<?xml version="1.0" standalone="no"?>
<!DOCTYPE svg PUBLIC "-//W3C//DTD SVG 20010904//EN"
 "http://www.w3.org/TR/2001/REC-SVG-20010904/DTD/svg10.dtd">
<svg version="1.0" xmlns="http://www.w3.org/2000/svg"
 width="2571.000000pt" height="631.000000pt" viewBox="0 0 2571.000000 631.000000"
 preserveAspectRatio="xMidYMid meet">
<metadata>
Created by potrace 1.15, written by Peter Selinger 2001-2017
</metadata>
<g transform="translate(0.000000,631.000000) scale(0.100000,-0.100000)"
fill="#000000" stroke="none">
<path d="M12770 3585 c0 -144 -4 -245 -9 -245 -5 0 -26 -16 -47 -35 -20 -19
-43 -35 -51 -35 -30 0 -91 -55 -104 -92 -11 -35 -10 -41 19 -89 18 -27 32 -54
32 -58 0 -5 7 -14 16 -22 11 -9 14 -22 9 -46 -4 -21 -1 -43 9 -61 29 -55 51
-240 50 -422 0 -104 -19 -454 -33 -620 -5 -58 -5 -110 -1 -115 9 -11 8 -23
-15 -175 -8 -52 -17 -138 -19 -190 -3 -52 -10 -109 -16 -125 -7 -17 -16 -61
-21 -100 -16 -125 -21 -145 -34 -145 -8 0 -15 12 -17 28 -2 21 -13 32 -49 50
l-47 22 -6 73 c-3 39 -5 108 -5 152 1 44 3 139 4 210 2 146 9 165 93 252 36
37 41 48 47 107 7 60 6 66 -11 66 -11 0 -37 7 -60 15 -45 15 -80 11 -88 -12
-9 -24 -24 -6 -31 40 -8 46 -31 97 -44 97 -14 0 -28 51 -27 95 1 36 4 40 31
45 27 5 30 9 31 45 0 21 6 41 12 43 7 2 12 15 12 28 0 18 -5 24 -23 24 -13 0
-29 -6 -36 -12 -8 -7 -6 1 4 18 19 33 14 70 -8 61 -6 -3 -19 -8 -29 -12 -11
-4 -18 0 -23 14 -4 15 -15 21 -36 21 -24 0 -29 -4 -29 -25 0 -30 -16 -33 -25
-5 -5 15 -12 19 -26 15 -18 -6 -19 -1 -19 69 0 41 -5 87 -12 101 -9 21 -9 31
0 46 23 37 15 80 -28 147 -27 41 -80 26 -80 -23 0 -19 -4 -37 -10 -40 -13 -8
-13 -68 -1 -80 9 -10 12 -35 29 -240 8 -106 8 -111 -15 -145 -23 -34 -33 -120
-14 -120 5 0 9 -19 9 -42 0 -24 0 -69 1 -101 0 -42 4 -59 15 -63 21 -8 21 -83
1 -110 -22 -29 -18 -52 14 -82 l28 -27 2 -175 c2 -168 1 -176 -19 -188 -19
-11 -31 -5 -126 68 -121 92 -125 93 -200 24 -27 -25 -43 -43 -36 -39 6 3 12 3
12 -2 -1 -4 -33 -32 -73 -62 -49 -37 -64 -45 -47 -26 31 36 23 31 -115 -80
-60 -49 -115 -92 -122 -97 -13 -10 -53 11 -53 28 0 6 11 21 24 33 20 19 27 21
44 10 42 -27 72 35 31 63 -20 13 -21 16 -7 43 12 23 23 29 49 29 29 1 34 5 37
28 3 22 -2 29 -23 34 -24 6 -26 10 -21 37 3 16 6 33 6 37 0 5 9 6 20 3 29 -8
50 14 50 53 0 27 -4 34 -20 34 -11 0 -20 4 -20 9 0 5 -3 16 -6 24 -4 11 2 16
23 19 26 3 28 6 28 48 0 44 -1 45 -35 50 -43 6 -53 35 -16 44 20 5 26 13 26
35 0 50 -9 61 -50 61 -39 0 -64 25 -35 36 10 4 15 20 15 50 0 39 -3 44 -27 50
-14 4 -34 2 -44 -4 -26 -17 -47 11 -25 33 49 50 -24 126 -75 79 -25 -23 -41
-9 -33 31 10 56 -1 75 -48 75 -31 0 -41 -4 -45 -19 -4 -16 -8 -17 -28 -7 -18
8 -23 17 -19 33 3 12 3 31 -1 43 -6 18 -13 21 -48 18 -35 -3 -43 -7 -45 -26
-5 -34 -36 -24 -40 13 -5 39 -19 55 -49 55 -39 0 -65 -18 -58 -41 5 -16 1 -19
-25 -19 -25 0 -31 3 -26 16 12 31 -48 63 -84 44 -12 -6 -20 -21 -20 -35 0 -14
-8 -29 -19 -35 -26 -14 -31 -13 -31 6 0 41 -63 59 -93 26 -20 -22 -22 -43 -5
-60 9 -9 8 -12 -4 -12 -9 0 -19 -6 -21 -12 -3 -7 -6 -3 -6 9 -1 17 -9 24 -36
29 -56 10 -68 1 -63 -49 4 -29 1 -47 -10 -56 -9 -9 -17 -10 -21 -4 -3 6 -16
15 -29 22 -19 10 -28 10 -48 -3 -31 -21 -43 -65 -20 -78 18 -10 19 -17 7 -37
-7 -11 -13 -10 -34 4 -24 15 -27 15 -51 0 -31 -20 -37 -78 -10 -93 28 -15 3
-37 -41 -37 l-40 0 -3 -47 c-3 -46 -2 -48 22 -48 51 0 25 -37 -29 -42 l-40 -3
0 -45 c0 -42 2 -45 28 -48 37 -4 39 -42 2 -42 -14 0 -25 -4 -25 -10 0 -5 -7
-10 -15 -10 -10 0 -15 -10 -15 -33 0 -36 28 -67 60 -67 27 0 25 -14 -5 -30
-54 -29 -36 -110 25 -110 29 0 47 -24 28 -36 -7 -4 -14 -2 -16 4 -8 26 -19 9
-20 -33 -2 -40 1 -47 24 -57 20 -9 30 -9 45 0 28 18 33 16 54 -25 15 -27 17
-37 7 -41 -16 -5 -16 -69 1 -75 6 -2 24 2 38 11 26 14 28 14 59 -18 29 -30 30
-33 15 -50 -23 -25 -11 -60 19 -60 13 0 30 10 38 22 l15 22 29 -20 c16 -11 46
-27 67 -37 21 -9 36 -21 33 -25 -2 -4 -124 -6 -270 -4 l-266 3 0 84 c0 46 4
106 10 132 5 26 11 109 13 185 l4 136 -26 6 c-75 15 -108 24 -126 33 -11 6
-39 13 -62 17 -33 5 -46 2 -60 -12 -10 -10 -30 -24 -45 -31 -16 -8 -28 -18
-28 -23 0 -4 -5 -8 -12 -8 -6 0 -19 -6 -27 -14 -15 -13 -58 -39 -121 -73 -14
-7 -41 -13 -60 -13 -19 0 -50 -4 -68 -10 -19 -5 -104 -10 -189 -11 l-156 -2 7
-71 c5 -56 4 -68 -6 -58 -25 25 -38 13 -38 -33 0 -33 4 -45 15 -45 10 0 15 11
16 33 l1 32 9 -30 c5 -16 6 -53 3 -81 -5 -46 -9 -51 -30 -51 -22 0 -24 4 -25
46 -1 25 -3 64 -5 86 -15 213 -16 263 -5 269 14 9 15 86 0 86 -6 0 -9 10 -7
23 2 12 10 22 18 22 8 0 14 -7 12 -17 -2 -11 3 -15 16 -11 10 2 42 -5 72 -16
29 -11 57 -18 62 -15 12 8 1 56 -15 67 -9 6 -9 10 1 14 22 9 14 50 -10 57
l-23 6 28 25 c15 15 27 36 27 51 0 28 -25 43 -43 25 -22 -22 -52 -13 -62 20
-8 24 -19 34 -49 45 -22 7 -43 11 -48 8 -4 -3 -19 3 -33 12 -21 14 -31 15 -51
5 -14 -6 -34 -11 -44 -11 -14 0 -20 -7 -20 -23 0 -29 -18 -47 -47 -47 -12 0
-26 -6 -30 -13 -4 -6 -20 -18 -35 -26 -36 -18 -39 -61 -5 -61 12 0 29 -5 37
-10 12 -8 9 -10 -12 -10 -51 0 -22 -73 33 -84 28 -5 30 -8 24 -36 -12 -57 45
-83 79 -37 l17 22 -6 -25 c-17 -68 -18 -70 -1 -70 9 0 16 7 16 16 0 8 5 12 10
9 6 -3 10 -23 10 -44 0 -36 -1 -37 -35 -37 -31 1 -35 4 -35 29 0 25 -3 27 -40
27 -22 0 -40 -4 -40 -9 0 -6 -17 -11 -37 -13 -30 -2 -38 -7 -38 -23 0 -14 -8
-21 -27 -23 -24 -3 -28 -8 -28 -33 0 -16 4 -29 9 -29 6 0 11 -19 13 -42 3 -42
4 -43 37 -40 19 1 41 8 49 15 12 10 14 7 8 -21 -6 -24 -4 -33 8 -38 12 -5 16
-20 16 -64 0 -31 4 -70 9 -86 5 -16 12 -60 14 -97 l5 -68 -42 1 c-179 3 -370
-16 -418 -41 -10 -5 -26 -9 -35 -9 -10 0 -27 -7 -37 -15 -11 -8 -30 -15 -42
-15 -13 0 -26 -4 -29 -10 -3 -5 -19 -10 -35 -10 -16 0 -32 -4 -35 -10 -3 -5
-16 -10 -28 -10 -12 0 -31 -7 -41 -15 -11 -8 -30 -15 -42 -15 -13 0 -26 -5
-29 -10 -3 -6 -19 -10 -35 -10 -16 0 -32 -4 -35 -10 -3 -5 -16 -10 -29 -10
-12 0 -26 -3 -30 -7 -27 -28 -117 -32 -658 -33 -528 0 -558 1 -558 18 0 46
-232 111 -412 116 -52 1 -99 6 -106 10 -7 4 -36 9 -65 10 -81 4 -266 35 -332
55 -33 10 -85 24 -115 31 -30 6 -86 21 -124 32 -46 14 -95 21 -150 21 -53 -1
-121 8 -196 25 -72 16 -137 25 -175 23 -33 -1 -137 -3 -232 -4 -159 -1 -174 0
-200 19 -15 11 -30 32 -34 46 -11 41 -42 77 -67 78 -15 0 -26 9 -34 28 -7 15
-17 34 -24 42 -7 8 -32 53 -56 100 -34 65 -53 91 -86 113 -37 25 -45 27 -60
16 -9 -7 -14 -9 -10 -5 14 16 -14 36 -50 36 -31 0 -85 -19 -144 -51 -24 -13
-34 -11 -52 6 -17 18 -111 21 -193 7 -59 -10 -55 -15 -100 118 -18 50 -36 84
-57 103 -17 16 -25 25 -17 21 9 -5 12 -1 8 12 -3 11 -11 38 -17 61 -12 46 -56
91 -74 73 -21 -21 -56 -11 -76 22 -11 18 -21 36 -22 40 -2 4 -22 1 -46 -7 -34
-12 -46 -13 -62 -2 -16 9 -22 9 -28 0 -10 -16 -83 -41 -101 -35 -9 3 -11 0 -6
-8 5 -9 4 -11 -4 -6 -6 4 -9 12 -5 17 9 15 -16 39 -42 39 -12 0 -25 4 -29 9
-10 17 -49 8 -85 -19 -19 -14 -50 -35 -68 -45 -17 -11 -34 -27 -37 -36 -3 -9
-16 -20 -30 -23 -13 -3 -34 -20 -47 -37 -13 -16 -37 -46 -54 -66 l-31 -36 -6
113 c-4 62 -9 116 -13 119 -9 10 -43 -41 -55 -84 -6 -22 -11 -71 -10 -110 l1
-70 -103 -25 c-56 -13 -116 -24 -133 -25 -18 0 -40 -8 -51 -17 -16 -15 -27
-16 -79 -8 -32 5 -67 7 -76 4 -19 -6 -20 16 -19 249 0 54 -4 72 -19 87 -35 35
-62 22 -74 -36 -4 -18 -10 -73 -14 -123 -6 -70 -5 -92 5 -95 7 -3 13 -15 13
-27 0 -20 -2 -21 -17 -7 -10 9 -24 13 -30 11 -16 -6 -17 13 -2 23 7 4 9 37 5
103 -3 53 -9 253 -12 445 -3 195 -9 357 -15 367 -13 26 -49 43 -61 31 -28 -28
-35 -145 -37 -615 0 -92 -23 -113 -37 -34 -8 43 -10 65 -12 155 -2 46 -5 54
-28 64 -22 11 -28 10 -40 -7 -37 -50 12 -343 66 -395 14 -14 25 -31 24 -37 -1
-7 -2 -29 -3 -48 -1 -33 -3 -35 -36 -35 -25 0 -37 6 -45 21 -7 11 -21 32 -33
46 -12 13 -31 43 -42 66 -11 23 -36 52 -55 65 -19 12 -56 43 -83 67 -29 27
-53 42 -62 39 -10 -4 -30 11 -58 41 -23 26 -61 68 -85 94 -23 25 -45 56 -48
69 -4 13 -14 22 -25 22 -10 0 -19 5 -19 10 0 15 -73 12 -115 -6 -47 -19 -134
-20 -209 0 -56 15 -61 15 -80 -2 -12 -9 -24 -21 -27 -25 -3 -5 -10 -9 -15 -9
-23 -1 -34 -12 -48 -49 -9 -21 -23 -39 -31 -39 -14 0 -16 -5 -14 -27 0 -5 -10
-10 -23 -13 -13 -3 -27 -15 -32 -25 -11 -26 -53 -58 -66 -50 -6 3 -10 17 -10
31 0 13 -3 24 -6 24 -18 0 -33 -41 -34 -88 0 -41 -4 -54 -17 -58 -27 -8 -115
-55 -142 -76 -13 -10 -39 -18 -57 -18 l-33 0 -3 116 c-3 97 -6 119 -20 128 -9
5 -21 7 -25 2 -4 -4 -10 -62 -13 -129 -3 -71 -9 -122 -15 -122 -12 0 -19 70
-10 94 4 9 6 93 5 186 -4 302 -6 325 -22 342 -37 36 -46 -2 -50 -214 -2 -83
-6 -149 -10 -147 -3 2 -9 31 -13 65 -7 59 -25 83 -45 63 -16 -16 16 -206 37
-224 31 -26 21 -130 -13 -130 -11 0 -15 -6 -11 -20 4 -17 -14 -45 -24 -36 -2
2 -25 6 -52 9 l-47 7 0 -850 0 -850 12855 0 12855 0 0 351 c0 300 -2 350 -14
340 -10 -9 -54 -10 -158 -5 -118 6 -153 4 -200 -10 -35 -10 -93 -16 -156 -16
-110 0 -112 1 -112 66 0 32 -2 34 -34 34 -19 0 -38 4 -41 10 -15 25 -25 5 -25
-51 0 -44 -3 -60 -12 -56 -9 2 -13 29 -14 80 -1 42 -4 77 -8 77 -3 0 -11 0
-17 0 -8 0 -10 -16 -6 -50 8 -68 -3 -96 -44 -104 -18 -3 -37 -2 -41 2 -5 5
-13 92 -18 193 -5 101 -12 208 -14 237 -5 51 -3 55 35 93 58 58 50 115 -11 77
-10 -7 -22 -9 -27 -5 -10 11 -41 347 -52 569 -5 103 -12 192 -16 198 -4 6 -8
100 -9 210 -1 109 -5 202 -9 207 -12 11 -45 -36 -58 -82 -6 -22 -11 -89 -9
-150 1 -60 2 -317 3 -570 1 -253 5 -465 10 -472 4 -6 6 -26 5 -45 -1 -18 2
-113 7 -210 6 -136 5 -181 -5 -193 -18 -22 -136 -17 -178 7 -40 25 -45 44 -40
171 3 96 6 105 35 145 l31 43 2 184 c1 192 -1 200 -40 175 -12 -8 -15 -33 -13
-142 2 -140 -1 -168 -20 -168 -12 0 -12 12 -9 380 1 171 1 172 -9 192 -12 23
-26 23 -38 -1 -6 -10 -15 -128 -21 -262 -12 -261 -16 -318 -23 -326 -10 -9
-32 12 -34 32 0 11 -6 47 -12 80 -6 33 -11 79 -13 103 -2 39 -4 42 -30 42
l-29 0 5 -117 c8 -177 15 -198 76 -223 28 -11 28 -12 35 -130 4 -65 4 -123 1
-128 -3 -5 -33 -12 -66 -14 -48 -3 -64 -9 -76 -26 -20 -29 -47 -28 -82 6 -57
52 -57 56 -55 329 1 238 3 254 22 282 12 16 21 35 21 43 0 20 29 108 45 138
22 41 39 140 39 220 -5 674 -5 671 -25 691 -34 34 -61 21 -73 -37 -4 -18 -10
-73 -14 -123 -6 -74 -5 -92 7 -96 12 -5 13 -33 7 -174 -3 -93 -11 -193 -16
-223 -6 -29 -8 -83 -4 -120 6 -67 6 -68 -18 -68 -21 0 -25 7 -37 61 -11 48
-12 72 -3 108 7 25 15 127 18 226 4 99 11 186 16 192 6 8 8 49 4 100 -3 49 -8
247 -11 442 -4 198 -10 362 -16 372 -13 26 -49 43 -61 31 -28 -28 -35 -145
-37 -615 0 -92 -23 -113 -37 -34 -8 43 -10 65 -12 155 -2 46 -5 54 -28 64 -22
11 -28 10 -40 -7 -36 -50 12 -344 65 -393 22 -21 24 -29 23 -105 -1 -45 -1
-93 -2 -107 0 -21 -5 -26 -27 -25 -25 0 -28 -4 -31 -40 -2 -25 -11 -44 -23
-53 -19 -13 -20 -23 -15 -125 13 -318 30 -455 58 -493 4 -6 7 -54 6 -105 -3
-182 3 -410 12 -434 6 -16 6 -35 -1 -52 -7 -20 -7 -28 3 -34 26 -16 -6 -44
-54 -47 -36 -2 -49 2 -72 23 -26 24 -32 25 -159 25 -73 0 -156 3 -184 6 -51 7
-53 8 -63 45 -12 43 -57 86 -74 69 -21 -21 -56 -11 -76 23 -11 17 -21 35 -22
39 -2 4 -22 1 -46 -7 -34 -12 -46 -13 -62 -2 -16 9 -22 9 -28 0 -10 -16 -83
-41 -101 -35 -9 3 -11 0 -6 -8 5 -9 4 -11 -4 -6 -6 4 -9 12 -5 17 9 15 -16 39
-42 39 -12 0 -25 4 -29 9 -10 17 -49 8 -85 -19 -19 -14 -50 -35 -68 -45 -17
-11 -34 -27 -37 -36 -3 -9 -16 -20 -30 -23 -13 -3 -34 -20 -47 -37 -13 -16
-38 -48 -57 -70 l-34 -39 -452 0 -452 1 -29 36 c-16 20 -38 54 -49 77 -11 22
-36 51 -55 64 -19 12 -56 43 -83 67 -29 27 -53 42 -62 39 -10 -4 -30 11 -58
41 -23 26 -61 68 -85 94 -23 25 -45 56 -48 69 -4 13 -14 22 -25 22 -10 0 -19
5 -19 10 0 15 -73 12 -115 -6 -47 -19 -134 -20 -209 0 -56 15 -61 15 -80 -2
-12 -9 -24 -21 -27 -25 -3 -5 -10 -9 -15 -9 -23 -1 -34 -12 -48 -49 -9 -21
-23 -39 -31 -39 -14 0 -16 -5 -14 -27 0 -5 -10 -10 -23 -13 -13 -3 -27 -15
-32 -26 -5 -12 -24 -31 -43 -44 -18 -12 -33 -29 -33 -37 0 -18 -48 -63 -69
-63 -24 -1 -126 -66 -124 -78 2 -8 -20 -10 -67 -8 -47 2 -78 -1 -97 -11 -30
-16 -175 -21 -232 -8 -31 7 -31 6 -31 -34 l0 -41 -619 0 c-486 0 -621 3 -625
13 -5 9 -7 9 -12 0 -3 -7 -14 -13 -24 -13 -35 0 -44 154 -10 185 28 25 27 57
-2 53 -20 -3 -23 2 -25 32 -1 19 -4 51 -7 70 -9 60 -29 350 -30 447 -1 50 -5
95 -9 99 -4 4 -14 -1 -23 -12 -13 -17 -14 -72 -10 -447 l5 -427 -60 0 -59 0 0
33 c0 18 9 49 20 70 16 30 20 56 20 137 0 78 -3 100 -14 100 -18 0 -26 -45
-19 -112 3 -31 1 -58 -4 -61 -6 -4 -9 53 -7 147 2 149 -4 192 -25 171 -8 -8
-27 -200 -32 -320 l0 -20 -9 20 c-5 11 -9 41 -9 66 -1 29 -7 51 -16 59 -21 17
-23 13 -25 -50 -3 -91 -1 -100 26 -127 19 -19 27 -39 29 -70 l3 -43 -63 0
c-87 0 -90 5 -87 148 2 64 6 121 11 126 5 6 20 49 35 96 25 82 26 93 23 299
-2 189 -4 215 -19 225 -9 5 -21 7 -25 2 -7 -7 -25 -331 -23 -433 0 -24 -4 -43
-9 -43 -14 0 -25 64 -17 97 4 14 7 69 7 122 0 52 3 99 6 104 3 5 4 86 3 181
-4 306 -6 326 -22 343 -37 36 -46 -2 -50 -214 -2 -83 -6 -149 -10 -147 -3 2
-9 31 -13 65 -7 59 -25 83 -45 63 -16 -16 16 -206 37 -224 31 -26 21 -130 -13
-130 -11 0 -15 -6 -11 -20 3 -11 1 -23 -5 -26 -13 -8 -1 -274 16 -354 6 -31
10 -101 8 -158 l-3 -102 -29 0 c-16 0 -32 5 -35 10 -3 6 -17 10 -30 10 -13 0
-27 5 -30 10 -3 6 -17 10 -30 10 -13 0 -27 5 -30 10 -3 6 -16 10 -28 10 -13 0
-31 6 -42 13 -11 7 -40 19 -65 26 -52 15 -71 22 -123 45 -21 9 -46 16 -56 16
-10 0 -21 3 -25 7 -25 25 -93 33 -307 33 l-227 0 3 30 c3 40 9 44 34 28 14 -8
24 -9 29 -3 4 6 21 16 37 24 69 31 80 40 83 66 4 29 -25 65 -53 65 -8 0 -15 5
-15 10 0 6 10 8 23 6 37 -9 61 -9 77 -3 8 3 24 7 35 9 16 3 21 12 23 50 l3 47
-38 3 -38 3 34 18 c19 9 45 17 58 17 20 0 23 5 23 35 0 34 -1 35 -41 35 -33 0
-40 3 -37 18 1 9 -1 19 -5 20 -19 9 -86 -12 -110 -34 l-27 -25 0 31 c0 17 9
39 21 51 25 25 18 79 -10 79 -9 0 -26 7 -38 15 -15 10 -32 13 -49 9 -18 -5
-25 -3 -20 4 3 6 21 14 39 17 17 4 43 15 57 24 14 10 45 23 70 30 25 7 52 19
60 26 8 7 35 19 60 25 25 7 47 15 50 19 8 9 43 31 63 37 9 4 17 10 17 15 0 5
7 9 16 9 20 0 44 24 44 45 0 8 7 18 15 21 8 4 15 12 15 20 0 8 6 23 12 34 10
16 10 24 0 40 -6 11 -12 27 -12 35 0 8 -6 15 -14 15 -7 0 -16 9 -19 21 -3 12
-10 18 -16 14 -6 -3 -11 0 -11 8 0 14 -27 28 -60 32 -36 4 -52 18 -46 41 4 13
4 34 1 47 -7 26 -65 67 -96 67 -23 0 -60 -18 -70 -33 -4 -6 -16 -1 -30 12 -29
27 -69 27 -104 0 -16 -13 -30 -18 -33 -12 -11 16 -48 33 -72 33 -12 0 -36 7
-53 16 -61 32 -67 34 -97 34 -16 0 -30 -4 -30 -10 0 -5 -4 -10 -9 -10 -13 0 0
54 15 63 19 11 18 63 -1 71 -11 4 -15 22 -15 71 0 62 -1 66 -27 76 -16 6 -49
9 -75 6 -47 -4 -48 -4 -48 24 0 24 -4 29 -26 29 -19 0 -28 -7 -36 -27 -10 -27
-13 -28 -68 -25 -89 5 -96 -2 -102 -100 -2 -46 -2 -115 1 -155 6 -71 6 -72
-17 -66 -57 14 -120 -49 -107 -107 6 -27 3 -30 -32 -39 -21 -6 -43 -11 -49
-11 -6 0 -21 -11 -34 -25 -13 -14 -29 -25 -37 -25 -7 0 -13 -9 -13 -19 0 -11
-5 -21 -11 -23 -6 -2 -13 -33 -16 -69 -5 -62 -4 -67 21 -87 15 -11 26 -24 26
-28 -1 -4 32 -22 72 -41 40 -19 81 -39 90 -44 10 -5 26 -9 37 -9 10 0 24 -7
31 -15 7 -8 19 -15 27 -15 12 0 14 -8 9 -32 -3 -18 -6 -116 -7 -216 l-1 -184
-34 4 c-26 3 -34 0 -34 -12 0 -42 -189 -67 -352 -45 -55 7 -58 6 -67 -17 -8
-21 -15 -24 -53 -22 l-43 2 2 208 c2 115 5 317 8 448 4 159 2 243 -5 250 -5 5
-10 18 -10 28 0 22 -38 24 -66 3 -10 -8 -27 -15 -36 -15 -10 0 -18 -4 -18 -10
0 -5 -11 -10 -23 -10 -13 0 -27 -3 -31 -7 -29 -29 -197 -67 -372 -84 -130 -12
-455 9 -478 32 -6 5 -19 9 -30 9 -23 1 -123 33 -133 44 -3 3 -15 6 -25 6 -10
0 -26 4 -36 9 -9 6 -66 34 -125 63 -148 72 -147 72 -147 80 0 5 -6 8 -13 8 -7
0 -28 13 -47 29 -19 15 -46 32 -59 36 -23 7 -24 6 -18 -29 4 -23 2 -36 -5 -36
-8 0 -9 -41 -4 -140 8 -185 20 -910 14 -910 -6 0 -77 94 -105 140 -14 23 -23
56 -25 95 -3 53 -6 60 -26 63 -24 4 -48 33 -62 78 -4 16 -27 80 -49 142 -26
73 -41 131 -41 161 0 34 -5 53 -18 65 -26 23 -45 114 -47 226 -1 52 -7 138
-14 190 -6 52 -15 181 -20 285 -4 105 -11 197 -15 206 -4 10 -3 20 3 24 6 3
11 34 11 68 -1 61 -15 97 -39 97 -7 0 -11 21 -11 59 0 52 -2 59 -22 65 -46 12
-48 9 -48 -59 0 -58 -12 -85 -22 -53 -2 6 -10 8 -16 4 -15 -9 -16 -36 -2 -36
6 0 10 -7 10 -15 0 -8 -5 -15 -11 -15 -15 0 -7 -109 8 -118 7 -5 8 -24 3 -57
-5 -27 -11 -104 -15 -170 -3 -66 -8 -152 -11 -192 -5 -70 -6 -72 -32 -70 -21
2 -27 -3 -27 -18 0 -14 6 -20 23 -19 20 1 22 -4 22 -48 0 -27 -5 -59 -11 -71
-7 -11 -13 -57 -14 -101 -1 -45 -3 -98 -4 -118 0 -23 -9 -46 -21 -58 -15 -15
-20 -33 -20 -74 0 -33 -10 -79 -26 -122 -14 -38 -37 -103 -50 -144 -30 -93
-34 -99 -70 -109 -28 -7 -29 -10 -29 -67 0 -63 0 -62 -98 -217 -27 -42 -52
-77 -56 -77 -8 0 -24 112 -46 330 -8 80 -19 183 -24 230 -12 113 -7 1219 6
1290 15 82 28 113 87 210 22 36 44 67 48 68 38 17 -64 142 -116 142 -8 0 -26
14 -38 31 -13 17 -33 35 -45 40 -23 8 -23 9 -23 249 l0 240 -40 0 -40 0 0
-245z m-1802 -1380 c58 -13 181 -83 235 -133 45 -43 106 -123 126 -167 7 -16
17 -38 22 -47 5 -10 9 -25 9 -33 0 -8 5 -15 10 -15 6 0 10 -13 10 -29 0 -16 6
-56 14 -88 15 -59 15 -166 1 -238 -18 -91 -107 -230 -194 -305 -58 -50 -168
-113 -185 -107 -7 3 -18 29 -25 58 -14 60 -51 189 -82 289 -12 36 -23 96 -25
134 -3 41 -11 75 -20 83 -8 8 -14 25 -14 38 0 13 -6 26 -12 29 -10 5 -10 7 0
12 19 9 15 62 -6 73 -29 15 -71 2 -78 -25 -3 -13 -4 -30 -1 -38 3 -8 -3 -38
-14 -68 -10 -29 -19 -70 -19 -91 0 -21 -11 -73 -24 -115 -14 -42 -34 -111 -46
-152 -40 -136 -73 -230 -83 -230 -24 0 -149 80 -201 130 -65 61 -130 155 -122
176 3 7 1 16 -4 19 -6 4 -10 19 -10 35 0 16 -4 31 -9 34 -5 3 -12 30 -16 61
-3 30 -11 57 -16 60 -14 9 -10 105 6 150 8 22 14 55 15 73 0 17 5 32 10 32 6
0 10 9 10 20 0 40 84 178 140 228 70 65 203 142 245 142 11 0 27 5 35 10 17
11 264 7 318 -5z m2584 -657 c15 -12 20 -31 34 -140 l7 -48 -76 0 c-42 0 -79
4 -82 10 -11 17 7 161 22 176 18 17 74 18 95 2z m2838 -33 c7 -8 19 -15 27
-15 7 0 25 -7 38 -16 13 -9 29 -13 34 -10 6 4 19 1 31 -6 18 -12 20 -23 20
-122 0 -92 -3 -111 -17 -122 -15 -11 -16 -16 -5 -33 8 -13 12 -61 12 -135 0
-109 -1 -114 -20 -109 -12 3 -20 0 -20 -7 0 -6 9 -14 19 -17 20 -5 36 -31 26
-42 -3 -3 -29 -5 -58 -6 -50 0 -52 1 -55 29 -2 16 1 33 7 39 6 6 11 40 11 75
0 72 -13 91 -63 92 l-28 0 2 203 c1 111 4 205 6 210 7 11 19 8 33 -8z m-5612
-277 l-3 -233 -25 -4 c-38 -5 -132 19 -127 32 18 50 118 361 127 395 23 90 30
42 28 -190z m81 128 c15 -18 83 -277 85 -321 1 -28 -2 -31 -45 -39 -82 -16
-79 -24 -79 217 0 202 8 273 21 193 3 -19 11 -42 18 -50z m-1926 -421 c-6 -43
-12 -60 -23 -60 -11 0 -17 18 -22 74 -4 40 -12 79 -17 85 -5 6 -11 49 -12 96
l-4 85 28 -3 c25 -3 33 5 28 32 -1 5 4 13 11 17 10 7 14 -19 16 -129 1 -75 -1
-164 -5 -197z m7877 131 c0 -21 -6 -36 -15 -40 -10 -3 -15 -19 -15 -46 0 -29
4 -40 15 -40 10 0 15 -11 15 -35 l0 -35 -80 0 -80 0 0 93 0 92 34 11 c18 6 43
7 55 2 16 -5 21 -3 21 8 0 8 4 13 9 9 5 -3 12 -1 16 5 13 21 25 9 25 -24z
m-3169 -72 c47 -23 119 -97 119 -121 0 -10 -50 -13 -254 -13 -140 0 -257 4
-260 9 -10 16 58 90 108 117 87 48 202 51 287 8z"/>
</g>
</svg>
