<?xml version="1.0" encoding="UTF-8"?>
<!-- Created with Inkscape (http://www.inkscape.org/) -->
<svg width="3428" height="841.33" version="1.1" viewBox="0 0 3428 841.33" xmlns="http://www.w3.org/2000/svg" xmlns:cc="http://creativecommons.org/ns#" xmlns:dc="http://purl.org/dc/elements/1.1/" xmlns:rdf="http://www.w3.org/1999/02/22-rdf-syntax-ns#">
 <metadata>
  <rdf:RDF>
   <cc:Work rdf:about="">
    <dc:format>image/svg+xml</dc:format>
    <dc:type rdf:resource="http://purl.org/dc/dcmitype/StillImage"/>
    <dc:title/>
   </cc:Work>
  </rdf:RDF>
 </metadata>
 <path d="m-2.1863 794.79c0-34.49 0.22499-48.915 0.76995-49.365 0.52654-0.43486 1.5359-0.46124 3.1926-0.0834 3.032 0.69142 4.647 0.28649 5.5747-1.3978 0.39795-0.72252 1.108-1.2482 1.5779-1.1683 1.0534 0.17925 1.2142-7.1617 0.16854-7.6955-1.0393-0.53046-2.837-5.9809-3.2308-9.7953-0.31036-3.006-0.20987-3.3673 0.88804-3.1927 0.88508 0.14077 1.3987 1.0242 1.8017 3.0988 1.4058 7.2364 2.5286 3.8506 2.6052-7.8557 0.053-8.1065 0.60221-10.226 2.2887-8.8344 1.0112 0.83453 1.1125 2.5206 1.375 22.892 0.1668 12.941 0.2518 13.734 1.4179 13.218 1.0574-0.46737 1.2697-1.555 1.4387-7.3702 0.16284-5.6035 0.38688-6.8219 1.2544-6.8219 0.86759 0 1.0915 1.2196 1.2545 6.8326l0.19837 6.8326h2.699c1.5622 0 3.4063-0.45617 4.3782-1.0831 2.0379-1.3145 7.4943-3.7326 9.4085-4.1696 1.0708-0.24446 1.5589-1.1187 2.1122-3.7837 0.78343-3.773 1.9972-4.5854 2.3488-1.5722l0.22096 1.8936 5.2589-3.9288c2.9789-2.2255 5.7768-4.8954 6.4534-6.1583 1.2333-2.302 5.757-5.2978 9.0214-5.9744 0.97033-0.20114 3.0979-0.0747 4.728 0.28097 5.4229 1.1832 9.9902 1.1848 13.182 5e-3 3.1469-1.1636 8.44-1.4856 8.44-0.5134 0 0.31982 0.46514 0.5815 1.0336 0.5815s1.4398 0.63637 1.9362 1.4142c0.85793 1.3442 6.3913 6.7707 10.599 10.394 1.1577 0.997 2.3813 1.5444 3.0081 1.3458 0.64983-0.20594 2.2009 0.58231 4.0291 2.0476 1.6349 1.3104 4.3462 3.163 6.025 4.117 1.9221 1.0922 3.5246 2.6276 4.3275 4.146 0.70123 1.3264 1.9005 2.9514 2.665 3.6112 0.76453 0.65979 1.7609 1.7719 2.2141 2.4714 0.98584 1.5213 5.0298 1.7702 6.4122 0.39457 1.2519-1.2458 0.41886-4.6447-1.6316-6.6572-0.93851-0.92116-2.2452-3.4624-2.9037-5.6473-0.65854-2.1848-1.4704-4.8883-1.8041-6.0077-0.52873-1.7736-1.0209-8.2255-0.78737-10.322 0.10312-0.92559 2.3522-0.94448 3.4606-0.0291 0.4647 0.38378 0.8449 1.9384 0.8449 3.4546s0.322 2.9212 0.71557 3.1221c0.39356 0.20088 0.54965 0.58697 0.34685 0.85796-0.46483 0.62116 0.99787 6.5172 1.7901 7.2158 1.4836 1.3083 2.3954-7.3182 2.2014-20.828-0.23349-16.265 1.0993-21.421 4.7561-18.401 1.1332 0.93593 1.4555 1.9418 1.4562 4.5455 5e-4 1.839 0.33072 13.349 0.73381 25.578 0.52559 15.945 0.51675 22.568-0.0313 23.414-0.62334 0.96193-0.5315 1.2391 0.49833 1.5038 0.69437 0.17851 1.8023 0.56178 2.462 0.85171 0.65973 0.28993 1.3414 0.33624 1.5149 0.10292 0.17349-0.23332 0.33137-3.6456 0.35086-7.583 0.0195-3.9373 0.23042-7.6661 0.46874-8.2863 0.48577-1.264 2.7679-1.5152 3.6413-0.40067 0.31328 0.39978 0.72803 4.7828 0.92165 9.74 0.33513 8.5799 0.41973 9.0074 1.7602 8.8933 0.77449-0.0659 3.2748 0.12177 5.5564 0.41707 3.6784 0.47611 4.379 0.4012 6.1857-0.66131 1.1206-0.65903 2.5078-1.0492 3.0826-0.86701 0.57483 0.18217 4.6032-0.42536 8.9521-1.3501l7.9069-1.6813 0.0971-4.3498c0.1022-4.5748 1.111-8.021 2.6586-9.0817 0.732-0.50172 1.0166-0.0724 1.3722 2.0699 0.24672 1.4866 0.44858 4.2364 0.44858 6.1107s0.1991 3.4078 0.44245 3.4078c0.24334 0 2.6256-1.7009 5.2938-3.7797 2.6683-2.0788 5.1623-3.7797 5.5422-3.7797s0.69089-0.36925 0.69089-0.82055c0-0.82062 1.4325-1.8953 7.2212-5.4174 2.2264-1.3546 3.5608-1.7852 4.7964-1.5476 0.94156 0.18107 2.504 0.47197 3.4721 0.64646 2.3566 0.42473 3.6625 1.3426 3.2312 2.271-0.19434 0.41825-2e-3 0.9401 0.42879 1.1597 0.43016 0.21957 0.58748 0.13911 0.34958-0.17878-0.25133-0.33588 0.58501-0.60959 1.9965-0.65342 1.3359-0.0415 3.4112-0.49492 4.6118-1.0077 1.2005-0.51273 2.641-0.78703 3.201-0.60955 0.55999 0.17747 2.3532-0.058 3.9849-0.5233 1.6317-0.46528 3.0472-0.65698 3.1456-0.42598 0.0983 0.231 0.82943 1.3015 1.6246 2.3788 1.362 1.8453 1.6122 1.9369 4.3164 1.5797 3.5518-0.46907 5.1847 0.56815 6.2465 3.9678 0.40866 1.3085 0.91653 2.8697 1.1286 3.4694 0.27843 0.78742 0.12005 0.97636-0.56996 0.67995-0.52555-0.22576-0.0915 0.24711 0.9646 1.0508 1.0561 0.80373 2.7467 3.2453 3.7569 5.4257s2.3098 4.9033 2.888 6.0509l1.0512 2.0865 3.6409-0.511c5.6393-0.79147 11.114-0.61101 13.488 0.44456 2.0444 0.90928 2.3047 0.88451 6.2095-0.59059 4.696-1.774 11.605-1.9704 11.177-0.31776-0.17616 0.67894-0.0364 0.71813 0.63078 0.17684 0.66612-0.54046 1.4618-0.44063 3.571 0.44805 2.898 1.221 5.1174 3.7035 7.6387 8.544 0.86112 1.6532 2.0245 3.3203 2.5853 3.7047 0.56081 0.38438 1.4604 1.5702 1.9992 2.635 0.6261 1.2376 1.4657 1.9362 2.327 1.9362 0.95717 0 1.9965 1.0889 3.5885 3.7597 1.9131 3.2095 2.6228 3.8601 4.8492 4.4455 3.852 1.0128 22.264 1.3654 26.587 0.50917 3.0174-0.59768 4.3296-0.55065 8.61 0.30854 2.7775 0.55753 4.9286 1.1759 4.7802 1.3742s0.72968 0.40685 1.9512 0.46346c18.694 0.86654 28.767 2.2411 39.537 5.3955 5.0969 1.4928 22.257 3.5782 38.02 4.6204 4.6469 0.30725 10.35 0.99741 12.673 1.5337 2.3235 0.53627 5.4071 1.2088 6.8525 1.4945 4.505 0.89037 8.2852 2.3537 8.2852 3.2072 0 0.6964 6.1092 0.78739 41.013 0.61088 24.644-0.12463 42.699-0.45408 45.237-0.82546 2.3235-0.33993 12.907-2.9983 23.519-5.9075l19.294-5.2894h11.836c13.609 0 13.551 0.0226 12.554-4.9427-0.7983-3.9742-0.7738-9.116 0.036-7.5594 0.3328 0.63964 0.6274 2.1315 0.6546 3.3152 0.068 2.9472 1.9573 8.7214 3.0376 9.2825 1.0442 0.54234 3.4839 0.0209 4.2149-0.90089 0.2828-0.35667 0.4323-8.5906 0.3322-18.298-0.1681-16.284-0.2811-17.709-1.4612-18.422-0.9756-0.58916-1.1665-1.1961-0.8043-2.5578 0.2612-0.98196 0.3348-1.7854 0.1636-1.7854-0.1711 0-1.5207 0.79391-2.9992 1.7642-2.3925 1.5703-2.8044 1.6681-3.747 0.88969-0.9425-0.77843-0.7737-1.1033 1.5352-2.9552 3.6092-2.895 3.5681-3.9342-0.094-2.3703-1.9813 0.84615-5.4582 0.63923-6.2133-0.36976-0.2373-0.31706 0.4803-1.2006 1.5946-1.9633 1.9532-1.337 1.9781-1.4175 0.694-2.2406-0.7326-0.46957-1.6831-0.96401-2.1122-1.0988-0.9979-0.31331 1.6425-2.0794 3.1462-2.1044 0.6106-0.0102 2.6585 1.1555 4.5508 2.5904 2.2468 1.7036 3.6801 2.4112 4.1306 2.0391 0.4505-0.37208 0.032-1.1371-1.2064-2.2046-1.043-0.89912-1.8964-2.066-1.8964-2.5932s-0.3835-1.6536-0.8522-2.5032c-0.7366-1.3352-0.6706-1.6545 0.4866-2.3533 1.8381-1.1101 2.2915-1.0345 4.2464 0.7076 1.5628 1.3927 1.7935 1.44 2.833 0.58149 1.3351-1.1026 1.1659-1.0846 3.4496-0.36754 2.8566 0.89701 2.405 3.3729-1.0103 5.5386-2.7298 1.7309-3.6265 3.2075-1.9362 3.1882 0.484-5e-3 1.614-0.64919 2.5109-1.4304 1.9053-1.6593 5.4231-3.2115 7.2784-3.2115 1.816 0 1.6255 1.0007-0.2842 1.493-0.8713 0.22464-2.3763 1.0719-3.3444 1.8827-1.2195 1.0214-1.3879 1.3621-0.5479 1.109 1.8515-0.55789 5.6419 0.71673 5.1675 1.7377-0.2173 0.46777-0.3951 1.4833-0.3951 2.2567 0 1.7886-2.2072 1.8858-5.4737 0.24101-3.0318-1.5266-4.2462-1.4644-5.2012 0.26672-0.5938 1.0764-0.5704 1.8606 0.095 3.1878 0.4855 0.96813 0.6667 2.2229 0.4025 2.7883-0.5404 1.1571-0.5292 21.997 0.016 29.718 0.5381 7.6189 0.5555 7.6536 3.8376 7.6536 1.5416 0 2.822-0.19625 2.8453-0.43612 0.023-0.23986 0.2002-6.4546 0.3932-13.81 0.193-7.3559 0.57-13.546 0.8377-13.757 0.2678-0.2103 6.3484-0.69199 13.512-1.0704 14.153-0.74766 16.797-1.1758 20.195-3.2711 1.2328-0.75997 2.4478-1.3818 2.7-1.3818 0.2523 0 3.2042-1.5677 6.5598-3.4837l6.101-3.4837 3.5204 0.85635c1.9362 0.471 5.4058 1.2115 7.7101 1.6456l4.1896 0.78922-0.3172 8.3799c-0.3217 8.4993-0.1831 21.477 0.233 21.821 0.4084 0.33733 37.475 0.30815 37.294-0.0294-0.097-0.18044-0.176-0.72058-0.176-1.2003 0-0.47974-0.5909-0.87224-1.3132-0.87224s-2.1188-0.52335-3.1034-1.163c-2.1688-1.409-3.8547-1.476-5.5349-0.22023-2.047 1.53-3.4347 0.61598-3.3023-2.1753 0.091-1.9264-0.2317-2.6668-1.5479-3.5471-1.0522-0.70366-2.1957-0.97776-3.112-0.74593-3.7372 0.94556-3.746 0.93459-2.7212-3.3748 0.5474-2.3022-2.1371-4.6504-4.7703-4.1727-2.5184 0.45683-4.4759-1.0629-3.436-2.6677 0.4001-0.61743 1.2167-1.1226 1.8147-1.1226 0.858 0 0.9838-0.39858 0.5966-1.8898-0.6989-2.6911-0.931-2.8724-3.1596-2.4681-1.5118 0.27423-2.1645 0.10246-2.6896-0.70785-0.9027-1.3929 0.2125-3.0752 2.0386-3.0752 1.129 0 1.3731-0.4071 1.3731-2.2891 0-2.1576-0.1315-2.2996-2.2882-2.4714-1.9126-0.15229-2.2883-0.42087-2.2883-1.636 0-1.2151 0.3757-1.4836 2.2883-1.636 2.1989-0.1751 2.2882-0.28145 2.2882-2.7235 0-2.34-0.1533-2.5558-1.9362-2.7252-1.5365-0.14602-1.9362-0.48411-1.9362-1.6377 0-1.2555 0.3153-1.4537 2.3119-1.4537 1.288 0 2.6085-0.3863 2.9815-0.87224 1.1486-1.4961 0.7905-3.3846-0.7169-3.7797-0.9062-0.23755-1.4081-0.87982-1.4081-1.8019 0-1.6991 1.7745-2.4318 3.6041-1.4881 1.7089 0.88146 1.5153 0.9692 3.048-1.3812 1.3364-2.0497 1.336-2.0565-0.192-2.9404-1.7898-1.0354-2.0167-2.8678-0.4178-3.3746 1.4947-0.47373 1.4416-0.48539 2.7645 0.60714 1.0806 0.89248 1.3168 0.83267 3.3532-0.84911 2.1183-1.7495 2.1492-1.847 0.9365-2.9537-0.8059-0.73549-1.0886-1.5749-0.7911-2.3491 0.5405-1.4066 2.6295-1.5852 3.8884-0.33241 1.168 1.1623 1.7895 1.1042 4.2492-0.39773 1.8992-1.1597 1.9947-1.3772 1.0999-2.505-0.669-0.84323-0.7683-1.5472-0.3131-2.219 1.0183-1.5028 3.3427-1.2124 4.1389 0.51709 0.38 0.82555 0.9266 1.4059 1.2147 1.2897 4.2376-1.7096 4.3232-1.7836 3.9322-3.398-0.2961-1.2231-0.051-1.7615 1.019-2.2343 1.4997-0.66285 2.3137-0.19681 3.1861 1.824 0.9016 2.089 5.9043 0.71499 6.2417-1.7143 0.1795-1.2915 0.5847-1.6293 1.9548-1.6293 1.2635 0 1.8403 0.39106 2.144 1.4537 0.3661 1.2809 0.7872 1.4537 3.5425 1.4537 2.5729 0 3.172-0.20606 3.381-1.163 0.3742-1.7132 1.1946-2.2004 2.9366-1.7437 1.2808 0.33573 1.4804 0.70629 1.1393 2.1151-0.4309 1.7791-0.3425 1.8467 3.2695 2.5009 1.6378 0.29662 2.0579 0.11297 2.6415-1.1548 0.5106-1.1092 1.1122-1.4584 2.277-1.3216 1.3341 0.15659 1.5612 0.51058 1.4442 2.2506-0.1223 1.822 0.1583 2.1969 2.3866 3.188l2.5252 1.1232 1.0438-1.2983c1.2286-1.5281 2.4558-1.6526 3.7358-0.37881 0.7245 0.72107 0.7431 1.1585 0.086 2.0273-1.2073 1.5966-1.0808 1.9195 1.328 3.3904 2.0512 1.2524 2.2362 1.2699 3.4942 0.32958 1.4782-1.1048 3.2902-0.8022 3.9711 0.66314 0.2853 0.61403-0.1149 1.3092-1.1107 1.9296l-1.5565 0.9697 1.5777 1.718c0.8677 0.94488 1.6566 1.8101 1.7531 1.9227 0.097 0.11257 0.8787-0.20207 1.738-0.69922 1.13-0.65366 1.9223-0.74491 2.8619-0.3296 1.7014 0.75204 1.653 2.0856-0.1088 2.9943-1.6137 0.8323-1.734 1.5456-0.6059 3.5906 0.6629 1.2014 1.2444 1.4337 3.3444 1.3357 2.2805-0.10639 2.5421 0.0311 2.5421 1.3351 0 1.0649-0.4238 1.5034-1.5842 1.6396-1.1094 0.13013-1.5693 0.5658-1.5347 1.4537 0.097 2.4797 1.0477 3.5476 3.1802 3.5712 1.7008 0.0188 2.051 0.26645 2.051 1.4502 0 1.0435-0.4736 1.5198-1.7602 1.7707-1.51 0.29437-1.7603 0.66942-1.7603 2.6372 0 2.0912 0.1869 2.3219 2.1123 2.6094 1.6182 0.24156 2.0573 0.58293 1.8773 1.4594-0.3124 1.5218-1.0085 2.0565-2.8247 2.1695-1.1302 0.0703-1.6241 0.59999-1.967 2.1095-0.3973 1.7489-0.1918 2.1909 1.5528 3.3397 2.2844 1.5044 2.2592 1.5574-1.1027 2.3154-1.5921 0.35898-2.787 1.11-3.376 2.1221-0.8055 1.384-0.7343 1.7647 0.611 3.2675 1.9219 2.1469 1.2292 3.2039-1.8306 2.7938-1.783-0.23897-2.6389-0.0148-3.783 0.991-1.8865 1.6585-1.8636 2.3306 0.1056 3.1054 3.5922 1.4133 7.4219-0.14856 16.722-6.8196 2.5171-1.8055 5.2443-3.6571 6.0606-4.1145 0.8162-0.45745 3.7852-2.5326 6.5977-4.6114 2.8125-2.0788 5.3924-3.867 5.7332-3.9737 0.698-0.21852 6.1465 3.1513 7.4593 4.6136 1.0778 1.2005 8.1293 3.5985 9.8001 3.3328 1.7797-0.28306 2.2196-2.1749 2.2993-9.8886 0.072-7.0094-0.8848-12.301-2.5147-13.901-1.2231-1.2003-1.1845-2.0132 0.2525-5.3245 1.1415-2.6304 1.1355-2.8514-0.1335-4.9427-0.8391-1.3828-1.2538-3.107-1.1259-4.6811 0.1113-1.3706-0.1793-2.8718-0.6458-3.336-0.491-0.48866-0.6557-1.4777-0.3909-2.3487 0.2514-0.82756 0.078-2.3714-0.3861-3.4307-0.7338-1.676-0.6459-2.2389 0.6775-4.3358 1.2856-2.037 1.5188-3.3739 1.5078-8.6428-0.01-3.4282-0.5259-8.4574-1.1528-11.176-1.2851-5.5724-1.3274-6.4389-0.4543-9.3004 0.8841-2.8973 2.6333-2.9225 4.3994-0.0634 1.5672 2.5372 1.8213 4.1643 0.7856 5.0317-0.7988 0.66904 0.3876 17.375 1.371 19.306 0.8125 1.595 2.811 1.7183 3.2908 0.20308 0.3848-1.2155 3.6958-2.0328 4.7636-1.176 0.3679 0.29521 1.2198 0.53675 1.8931 0.53675 1.4992 0 2.4597 4.1726 1.4725 6.3964-0.9896 2.2291 0.01 8.7204 1.4429 9.3833 0.6535 0.30202 1.8654 2.3906 2.6931 4.6413 1.6636 4.5232 2.8287 5.3505 4.9219 3.4949 1.6262-1.4417 1.6381-1.4429 4.8617-0.49736 3.9958 1.172 4.3032 1.4793 3.9586 3.9566-0.3212 2.3084-0.5747 2.6553-5.8948 8.0651l-2.9924 3.0428-0.054 8.8156c-0.093 15.053 0.1302 23.502 0.6638 25.15 0.314 0.96966 1.4551 1.995 2.944 2.6452 1.3372 0.58399 2.9323 1.786 3.5447 2.6711 2.3651 3.4185 4.3745 1.3373 5.4738-5.6695 0.3754-2.3931 1.1876-7.3603 1.8048-11.038 0.6171-3.6779 1.4447-8.9114 1.839-11.63 0.3944-2.7185 1.0013-6.2849 1.3487-7.9254 0.3475-1.6405 0.369-3.9448 0.048-5.1206-0.3533-1.2937-0.2067-5.1675 0.3712-9.8102 3.1902-25.63 2.7953-47.53-1.0296-57.106-0.8043-2.0132-1.0143-3.4185-0.6021-4.0268 0.4612-0.68064-0.2392-2.1212-2.5787-5.3037-1.7665-2.4031-3.2119-5.0487-3.2119-5.8791 0-1.8221 3.9327-5.0986 6.8228-5.6843 1.088-0.22051 3.3248-1.4848 4.9706-2.8095l2.9923-2.4086 0.011-10.782c0.01-5.9301 0.2812-11.134 0.6116-11.565 1.3474-1.7558 2.194 3.1741 2.194 12.775v9.7837l2.0077 0.85745c1.1042 0.4716 2.5373 1.525 3.1846 2.3409s1.5973 1.4834 2.1112 1.4834c1.5039 0 6.7606 3.4024 7.5959 4.9165 0.6682 1.2113 0.3035 2.0133-2.8419 6.2494-1.9847 2.6729-3.6097 5.2445-3.6111 5.7147 0 0.47023-0.7144 1.7708-1.5842 2.8902l-1.5816 2.0352 0.063 35.471c0.044 24.501 0.3326 37.18 0.9335 40.995 0.4785 3.0383 1.1265 7.7484 1.4399 10.467s0.9451 7.0361 1.4035 9.5946c0.4585 2.5586 1.1734 6.5491 1.5886 8.8678 0.5915 3.3032 1.0096 4.2158 1.9318 4.2158 1.5576 0 4.1602-2.3901 7.3804-6.7779 2.75-3.7469 3.872-6.6547 3.9002-10.108 0.014-1.7189 0.5381-2.4174 3.1852-4.2448 1.7426-1.203 3.1683-2.6822 3.1683-3.287s0.2742-1.2396 0.6092-1.4107c0.3351-0.17102 0.7878-1.2198 1.0061-2.3306 0.2182-1.1108 0.8691-2.8834 1.4464-3.9392 1.2832-2.3469 3.2751-9.0283 3.2751-10.986 0-0.78792 0.519-2.0445 1.1533-2.7925 0.7491-0.88329 1.3404-3.3233 1.687-6.9619 0.2936-3.0811 1.1746-9.5271 1.9578-14.324 1.5653-9.5873 3.0282-28.714 2.7635-36.132-0.1364-3.8226 0.068-4.9483 1.0634-5.8607 0.8024-0.73553 1.2321-2.0766 1.2321-3.8457 0-1.494 0.2799-2.7163 0.622-2.7163 0.7409 0 1.4673 2.0238 1.4806 4.1257 0.01 0.82994 0.6119 1.9592 1.3481 2.5094 1.6846 1.2592 2.3723 4.1634 1.5478 6.5377-0.396 1.1404-0.2715 6.6863 0.332 14.782 0.9028 12.113 1.3148 15.553 3.1982 26.706 0.4051 2.3987 0.9996 6.0119 1.3213 8.0295 0.3217 2.0175 1.385 5.0268 2.3628 6.6872 0.978 1.6604 1.979 4.5194 2.2248 6.3533 0.2456 1.8339 0.7413 3.4848 1.1014 3.6686 0.3601 0.18383 0.6548 0.84569 0.6548 1.4708 0 0.6251 0.291 1.5909 0.6465 2.1463 1.6487 2.5747 3.578 6.6143 3.578 7.4915 0 0.53363 1.2656 2.3251 2.8126 3.9811 1.9137 2.0487 3.0349 3.9789 3.5081 6.0399 0.6697 2.9162 2.6077 5.6842 6.9381 9.909l2.0387 1.989 0.5272-3.4428c0.2899-1.8935 0.4124-15.793 0.2722-30.888-0.184-19.796-0.034-27.628 0.5364-28.1 0.5863-0.48494 2.1373 0.0607 5.9847 2.1054 11.309 6.0103 28.029 11.636 41.101 13.831 20.259 3.4006 42.392 1.5334 60.463-5.1006 2.2749-0.83514 4.521-1.5184 4.9916-1.5184 2.237 0 2.4866 2.8695 2.4283 27.912-0.032 13.726 0.1459 25.228 0.3952 25.561 0.7655 1.023 5.52 0.67296 8.4448-0.62169 2.5338-1.1216 3.0891-1.1649 6.4343-0.5021 2.492 0.49372 5.7388 0.59117 10.166 0.30513 6.6502-0.42965 9.5773-1.1211 10.955-2.588 0.4353-0.46336 1.2913-0.66586 1.9424-0.45953 0.6402 0.2029 1.9534 0.12107 2.9181-0.18187l1.7541-0.55079v-13.318c0-11.258-0.167-13.432-1.0798-14.058-0.5938-0.40705-3.3661-1.3936-6.1607-2.1924-10.209-2.918-15.116-6.8695-14.082-11.339 0.6333-2.7361 4.695-5.4996 10.062-6.8459l4.8934-1.2275-1.1097-1.7722c-1.3292-2.1229-0.6009-3.9308 2.1927-5.4424 1.4841-0.80317 2.1511-0.86128 3.6052-0.31412 0.9813 0.36926 2.0709 0.52499 2.4214 0.34608s0.5908-4.369 0.5339-9.3112c-0.057-4.9423 0.029-9.087 0.19-9.2106 0.3927-0.30055 11.703-0.5884 18.072-0.45995l5.1048 0.10297v8.1409c0 8.4193 0.1279 8.7477 2.9265 7.5107 1.4482-0.64011 2.6214-0.41244 8.0931 1.5706 1.2203 0.44224 2.8045 0.80504 3.5205 0.80624 0.7159 1e-3 2.3563 0.53319 3.6453 1.1822l2.3435 1.18 2.3584-1.2038c2.7054-1.3809 5.5919-1.1017 6.7275 0.65074 0.9463 1.4603 1.6566 1.3837 3.8325-0.41333 1.417-1.1703 2.2547-1.426 3.7284-1.1382 3.8317 0.74833 5.4683 3.9956 3.3015 6.5505-1.0608 1.2508-0.3707 2.3534 1.0264 1.6403 0.6311-0.3221 8.9061 2.941 10.868 4.2854 0.5034 0.34506 0.9687 1.8747 1.0341 3.3992 0.109 2.5443-0.1376 2.9928-3.0049 5.4641-2.8703 2.4739-12.315 6.894-14.73 6.894-0.4886 0-1.1894 0.21973-1.5572 0.48829-0.3679 0.26856-1.7779 0.83116-3.1332 1.2502-2.4643 0.76192-3.6872 1.1784-10.123 3.4473-1.8886 0.66586-3.9934 1.2107-4.6772 1.2107s-1.4257 0.3925-1.6486 0.87224c-0.2229 0.47973-1.1282 0.88056-2.0116 0.89073-0.8835 0.0102-2.2213 0.40269-2.9729 0.87224-0.7518 0.46956-2.5102 0.85375-3.9077 0.85375-3.3807 0-4.2308 0.8466-4.2308 4.2135 0 2.792 0.031 2.8299 3.3444 4.1154 4.8286 1.8732 7.02 3.1979 7.4294 4.4911 0.4312 1.3617 2.4752 1.5077 3.0737 0.21965 0.2838-0.61058-0.4812-1.532-2.2929-2.7621-6.3101-4.2844-6.0593-3.9917-5.1848-6.0488 0.6026-1.4176 1.3984-2.0139 3.2513-2.4364 2.9815-0.67989 4.4606-0.28947 4.4606 1.1774 0 1.6341 1.1608 1.3353 2.5934-0.66765 1.8606-2.6014 5.9035-3.1356 7.5352-0.99568 0.5731 0.75161 0.5469 1.3164-0.1006 2.1727-0.4812 0.6364-0.875 1.9243-0.875 2.8619 0 2.5063-0.6388 3.4867-2.9016 4.4531-1.4047 0.5999-2.0269 1.3074-2.0269 2.3045 0 1.7343 1.7871 1.9471 2.3162 0.27582 0.2204-0.69582 0.9604-1.163 1.8424-1.163 0.8107 0 1.474-0.37346 1.474-0.82991 0-1.179 4.9553-4.4035 6.7671-4.4035 0.9255 0 1.6613 0.45375 1.8859 1.163 0.2025 0.63964 0.8996 1.163 1.549 1.163 1.5853 0 0.9495 1.3991-0.7553 1.6617-3.7192 0.57297-4.0449 2.5739-0.6854 4.2109 2.8291 1.3786 2.6631 2.3584-0.5627 3.3218-3.3091 0.98825-4.3067 0.87405-6.662-0.76273-1.8854-1.3103-3.6488-1.8848-3.6488-1.1888 0 0.84088 3.8846 4.7936 5.3297 5.4232 1.9097 0.83197 2.2401 2.5293 0.6981 3.5862-0.8183 0.56087-1.7103 0.2392-4.6398-1.6733-1.9946-1.3022-3.9151-2.3676-4.2676-2.3676-0.8604 0-0.8168 1.0045 0.063 1.4537 0.3872 0.19766 0.7041 1.2598 0.7041 2.3603 0 1.6295-0.2679 2.0009-1.4433 2.0009-1.3078 0-1.4235 0.30461-1.2322 3.245l0.2112 3.245 29.572-0.1002 7.7448 2.2551c29.529 8.5979 30.27 8.7882 34.277 8.794l4.0017 6e-3 0.2228-5.8939c0.1472-3.8958-0.1832-7.5921-0.9747-10.903-1.684-7.0442-1.9539-17.272-0.5157-19.546 0.6067-0.95947 1.478-1.6791 1.9362-1.5991 1.0343 0.18049 1.1751-7.1708 0.1473-7.6954-1.0393-0.53047-2.837-5.9809-3.2308-9.7954-0.3104-3.006-0.2099-3.3673 0.8879-3.1927 0.8852 0.14078 1.3988 1.0242 1.8018 3.0988 1.4058 7.2364 2.5287 3.8506 2.6052-7.8557 0.053-8.1065 0.6022-10.226 2.2888-8.8344 0.9906 0.81753 1.0811 2.2826 1.3356 21.627 0.091 6.8762-0.2066 15.119-0.6604 18.317-0.8638 6.0891-0.4004 9.3039 1.3409 9.3039 0.7429 0 1.045-0.91164 1.1565-3.489 0.8282-19.145 1.2839-23.841 2.3133-23.841 0.8938 0 1.1221 1.9666 1.4853 12.793 0.4212 12.56 0.397 12.872-1.3294 17.154-0.9672 2.3987-2.1901 4.7743-2.7174 5.2792-1.2703 1.2162-1.3677 14.503-0.114 15.538 0.5025 0.41494 2.9229 0.69779 5.9713 0.69779h5.1262l-0.452-2.7621c-0.2601-1.5891-0.9607-3.0609-1.6497-3.4658-1.8638-1.0952-2.9062-3.7986-2.6667-6.9161 0.1586-2.0628 0.5098-2.8471 1.275-2.8471 0.7803 0 1.1481 0.89952 1.4082 3.4437 0.1936 1.894 0.7018 3.5386 1.1292 3.6545 0.9528 0.25836 1.6871-4.9996 1.6871-12.079 0-5.3561 0.413-7.1574 1.5124-6.5962 0.3693 0.18847 0.6329 4.2275 0.5977 9.1552-0.034 4.8499-0.049 9.0665-0.03 9.3703 0.017 0.30383 0.4286 0.22484 0.9127-0.17553 0.5496-0.45467 0.88-2.3885 0.88-5.1512 0-3.228 0.2609-4.4963 0.9655-4.6938 1.4458-0.40507 0.7235 10.594-0.8508 12.957-0.6392 0.95946-1.1641 2.7258-1.1664 3.9251l-0.01 2.1806h9.3349l-0.4355-3.3436c-0.8197-6.2931-0.7066-46.104 0.133-46.798 1.1362-0.93836 1.3884 0.0731 1.8453 7.4016 0.2193 3.518 0.5548 7.9665 0.7454 9.8854 0.1905 1.9189 0.7048 7.2245 1.1428 11.79 0.738 7.6926 0.8929 8.276 2.1122 7.9564 1.7031-0.44644 1.7178 0.73728 0.029 2.3127-1.0874 1.0141-1.2397 1.9451-0.9816 5.9978l0.3055 4.7973h92.086v-1.6282c0-2.3206 1.0975-3.0162 3.763-2.3848 3.4441 0.81578 11.548 0.63015 13.762-0.31522 1.1059-0.4723 4.308-0.89047 7.3239-0.95639 3.1573-0.069 5.3005-0.35825 5.2168-0.70404-0.1542-0.63714 7.5495-4.4782 8.9816-4.4782 1.4398 0 15.9-12.106 16.687-13.97 0.764-1.81 5.6668-4.9352 8.7425-5.5727 0.9703-0.20113 3.0979-0.0747 4.728 0.28098 5.4229 1.1832 9.9902 1.1848 13.182 5e-3 3.1491-1.1636 8.4421-1.4856 8.4421-0.51337 0 0.31982 0.4651 0.58149 1.0337 0.58149 0.5684 0 1.4398 0.63637 1.9362 1.4142 0.8579 1.3442 6.3913 6.7707 10.599 10.394 1.1577 0.997 2.3813 1.5444 3.0081 1.3458 0.6498-0.20595 2.2008 0.5823 4.0291 2.0476 1.6349 1.3104 4.3462 3.163 6.025 4.117 1.9036 1.0816 3.5397 2.6422 4.3468 4.1461 0.7119 1.3264 2.1917 3.2502 3.2883 4.2753l1.9941 1.8637 63.178 0.0722 5.2012-4.0804c2.8608-2.2442 5.5172-4.0804 5.9032-4.0804 0.3862 0 0.702-0.36925 0.702-0.82055 0-0.82062 1.4325-1.8953 7.2212-5.4174 2.2264-1.3547 3.5608-1.7852 4.7965-1.5476 0.9415 0.18106 2.504 0.47197 3.4721 0.64645 2.3566 0.42474 3.6625 1.3426 3.2312 2.271-0.1943 0.41826 0 0.9401 0.4288 1.1597 0.4301 0.21957 0.5874 0.13912 0.3495-0.17878-0.2513-0.33587 0.585-0.60959 1.9964-0.65342 1.336-0.0415 3.4113-0.49492 4.6119-1.0076 1.2005-0.51273 2.641-0.78703 3.2009-0.60956 0.56 0.17748 2.3532-0.058 3.9849-0.5233 1.6318-0.46528 3.0473-0.65697 3.1456-0.42597 0.098 0.23099 0.8295 1.3015 1.6247 2.3788 1.3619 1.8453 1.6122 1.9368 4.3163 1.5797 3.486-0.46037 5.1669 0.5562 6.21 3.7558 0.4715 1.446 1.2318 2.2999 2.2853 2.5666 0.8684 0.21979 6.6948 0.57735 12.948 0.79459 9.8888 0.34354 11.567 0.54308 12.891 1.5327 1.1565 0.86445 2.4644 1.1225 5.4444 1.0742 2.1899-0.0355 4.1507-0.36873 4.4393-0.75455 0.6939-0.92714 0.2633-6.7054-0.7173-9.6282-0.643-1.9165-0.6195-16.432 0.035-21.778 0.1618-1.321-1.3477-8.7484-2.2345-10.995-0.4303-1.0901-1.0807-5.8002-1.4452-10.467-1.4181-18.151-1.4291-19.041-0.2575-20.912 0.6068-0.96899 1.1032-2.2794 1.1032-2.9121 0-1.583 1.9851-3.0896 3.5354-2.6832 1.1122 0.29152 1.3383-0.15519 1.772-3.4999 0.7424-5.7245 0.1439-9.1974-1.9367-11.24-0.996-0.97749-2.3007-3.486-2.9725-5.7147-0.6585-2.1848-1.4704-4.8883-1.8041-6.0077-0.5288-1.7736-1.0209-8.2255-0.7873-10.322 0.103-0.92559 2.3522-0.94448 3.4605-0.0291 0.4647 0.38378 0.8449 1.9384 0.8449 3.4546s0.322 2.9212 0.7156 3.1221c0.3935 0.20088 0.5496 0.58697 0.3468 0.85796-0.4648 0.62116 0.9979 6.5172 1.7901 7.2158 1.4836 1.3083 2.3954-7.3182 2.2015-20.828-0.2316-16.131 1.1057-21.416 4.6737-18.469 1.2703 1.0491 1.4091 2.3465 1.8553 17.338 0.9289 31.207 0.2782 52.875-1.8181 60.538-0.6799 2.4856-0.6408 3.7187 0.2123 6.6872 0.9879 3.4377 1.1601 3.6396 3.1033 3.6396h2.0573l0.044-5.2334c0.025-2.8784 0.4174-8.2681 0.8736-11.977 0.4561-3.709 0.8091-11.952 0.7842-18.317-0.025-6.3653 0.1704-12.031 0.4339-12.591 0.554-1.1768 2.7962-1.3564 3.6313-0.29075 0.3133 0.39978 0.8105 9.1004 1.1049 19.335 0.2943 10.234 0.5915 19.916 0.6601 21.515 0.1417 3.2979-1.2164 9.1696-2.6226 11.339-1.1676 1.8014-3.1493 6.8777-3.1493 8.0673 0 0.48521-0.8155 1.5852-1.8122 2.4444l-1.8122 1.5622-0.118 14.751c-0.1305 16.3-0.02 16.792 4.4752 19.916 2.6277 1.8261 5.0806 1.955 6.3981 0.33614 0.7303-0.89722 2.0829-1.2891 5.5426-1.6059l4.5765-0.41903-0.1737-6.3897c-0.2173-7.991-0.4426-8.7688-2.8114-9.7065-1.0562-0.41809-2.671-1.884-3.5885-3.2576-1.4465-2.1658-1.6568-3.2245-1.5832-7.9718 0.096-6.1797 0.4093-7.2598 2.1063-7.2598 0.9965 0 1.3355 1.0685 2.0701 6.5244 0.8317 6.1777 1.3911 7.4008 3.3945 7.4225 0.9468 0.0102 1.2946-3.0693 2.2977-20.343 0.3806-6.5564 0.8701-12.509 1.0878-13.229 0.4728-1.5638 1.4422-1.6975 2.1077-0.29074 0.5811 1.2284 0.522 30.549-0.064 31.811-0.6477 1.3942 1.864 1.8778 3.0129 0.58015 0.74-0.83576 0.8937-2.8757 0.662-8.7866-0.2453-6.2557-0.1096-7.8299 0.7245-8.4016 2.1358-1.4639 2.5291 0.27307 2.2725 10.037-0.2277 8.6647-0.3907 9.6919-1.845 11.623-2.474 3.2857-3.6704 7.3374-3.667 12.419 0.01 5.1736 0.1628 5.5247 3.3994 7.4968 1.8509 1.1278 3.1542 1.3902 6.9973 1.4089 6.7639 0.0328 7.187-0.40891 7.187-7.5043 0-3.1278-0.3168-6.3752-0.704-7.2163-0.4275-0.92865-0.8497-16.05-1.0749-38.497-0.204-20.332-0.5116-37.156-0.6836-37.386-0.6104-0.8157 1.0288-7.1518 2.2386-8.6533l1.229-1.5252 0.513 2.326c0.2822 1.2793 0.5313 6.2528 0.5536 11.052 0.023 4.7994 0.3867 9.6404 0.8097 10.758 0.423 1.1173 1.0396 6.4798 1.3702 11.917s1.084 13.549 1.6743 18.026 1.0826 9.5229 1.0941 11.212c0.022 3.1851 1.3198 4.5204 3.0253 3.1118 1.2623-1.0425 2.6282-0.76828 2.6282 0.52758 0 0.65245-1.3051 2.2116-2.9001 3.4647-2.4265 1.9064-2.824 2.5285-2.4346 3.8098 0.256 0.84228 0.7574 7.012 1.1141 13.711 0.3569 6.6986 0.8375 12.431 1.0681 12.739 0.4658 0.6224 4.5292 0.75689 6.2633 0.2073 0.8665-0.27461 1.1137-1.2426 1.1137-4.3612 0-2.2845 0.3027-4.0082 0.7041-4.0082 0.4068 0 0.704 1.8414 0.704 4.3612 0 3.9735 0.1252 4.3612 1.4082 4.3612 1.2243 0 1.4082-0.38767 1.4082-2.9697 0-2.469 0.1878-2.9102 1.1137-2.6167 0.6125 0.19413 1.8799 0.35296 2.8163 0.35296 1.4119 0 1.7026 0.28984 1.7026 1.6969 0 3.4894 0.1208 3.5365 9.0527 3.5365 4.6143 0 10.352-0.38044 13.126-0.87033 4.0579-0.7166 6.152-0.75603 11.857-0.22322 3.8109 0.35589 8.0089 0.50231 9.3291 0.32538l2.4004-0.3217v39.468h-1810.2zm968.65-2.0062c0.3893-0.39978 0.549-1.586 0.3549-2.6362-0.2647-1.4321-1.08-2.3085-3.262-3.5067-5.6372-3.0957-6.581-3.3064-14.811-3.3064-8.6557 0-10.027 0.44337-15.083 4.8772-3.4035 2.9845-3.9041 3.9523-2.4146 4.6687 1.9076 0.91752 34.315 0.82858 35.216-0.0966zm197.31-17.272c0-19.103 0.1187-18.596-4.5765-19.561-1.1618-0.23874-3.841-1.0647-5.9537-1.8354-5.5817-2.0362-5.569-2.0669-5.4283 13.126l0.1167 12.603h1.8969c2.9428 0 3.5089 0.95375 3.8498 6.4871 0.1744 2.8285 0.4411 5.4557 0.5928 5.8382 0.2619 0.66025 6.7188 1.2904 8.6222 0.84147 0.6788-0.16008 0.8801-4.1644 0.8801-17.5zm18.884 15.182c0.1457-1.2559-0.2158-2.347-1.0211-3.082-1.0987-1.0026-1.1359-1.3587-0.3133-2.9984 1.8164-3.6209 1.8061-5.7091-0.034-6.8777-2.1922-1.3923-3.3497-1.3566-5.3093 0.16375-0.8878 0.68886-2.8092 1.4124-4.2699 1.6078l-2.6555 0.35537-0.2015 6.0121c-0.1108 3.3066 0.099 6.3119 0.4658 6.6784 0.452 0.4514 2.6749 0.57259 6.8903 0.37564l6.2229-0.29075zm-402.66-3.8492c2.1997-0.93946 3.04-2.17 2.4092-3.5278-0.4425-0.9524-1.8779-0.7716-5.3065 0.66835-2.4649 1.0352-3.002 1.8218-1.9553 2.8634 1.0764 1.0711 2.3378 1.0701 4.8526-4e-3zm-23.347-15.286c0.1631-11.661 0.045-13.52-0.8604-13.52-1.0829 0-2.5638 3.4536-3.8647 9.0132-0.3742 1.5991-1.9592 6.0281-3.5223 9.8423-1.563 3.8141-2.7656 6.9961-2.6723 7.071 0.6824 0.54826 5.605 1.3067 7.9144 1.2194l2.8164-0.10645zm11.998 12.222c0.5313-0.5929 0.7364-1.6432 0.4846-2.4817-0.2402-0.79955-0.7075-2.6313-1.0385-4.0704-0.3311-1.4392-0.9313-3.5326-1.3337-4.652-0.4025-1.1194-1.5678-4.652-2.5896-7.8502-1.8859-5.9034-2.7933-7.5106-3.9167-6.9372-0.7544 0.38507-0.847 26.617-0.096 27.251 0.9512 0.80387 7.5133-0.16982 8.4901-1.2598zm-24.729-2.0015c0.8963-0.6954 1.6296-1.7266 1.6296-2.2917 0-0.56501 0.3168-1.189 0.704-1.3867 0.3873-0.19766 0.7042-1.2444 0.7042-2.326 0-1.0816 0.3168-2.1283 0.704-2.326s0.7041-0.98268 0.7041-1.7445c0-0.76181 0.3168-1.5468 0.7041-1.7445 0.3872-0.19767 0.7041-1.506 0.7041-2.9075 0-1.4014 0.3168-2.7098 0.704-2.9075 0.3873-0.19766 0.7041-0.86729 0.7041-1.4881s0.3169-1.1287 0.7041-1.1287 0.7041-1.4039 0.7041-3.1198c0-2.1715 0.4018-3.5417 1.322-4.5079 1.5601-1.6381 3.2007-7.5935 2.6191-9.5074-0.2515-0.8276-0.01-1.6145 0.6422-2.0589 1.5565-1.0668 3.2804 0.28351 2.7192 2.13-0.2358 0.77595-0.03 2.5886 0.4586 4.0281 0.6609 1.9497 0.689 2.9766 0.1101 4.0261-0.4363 0.79078-0.5034 1.5486-0.1531 1.7275 0.3434 0.17525 0.7461-0.1425 0.8949-0.70611 0.1855-0.70218 0.7564-0.16535 1.8135 1.7055 0.8486 1.5016 1.5397 3.0716 1.5358 3.489-0.01 0.41732 0.6181 2.3288 1.3823 4.2477 1.9441 4.8816 4.6766 12.798 5.6854 16.472 0.4679 1.7036 1.269 3.23 1.7802 3.3921 1.2057 0.38209 9.0169-3.2514 12.634-5.8767 1.549-1.1244 3.0101-2.0493 3.2468-2.0554 0.355-9e-3 7.9425-9.1323 10.165-12.223 0.8449-1.1745 1.6794-6.0935 2.1735-12.811 0.3449-4.688 0.1667-6.2118-1.1561-9.8854-3.8206-10.611-10.894-17.976-21.822-22.723-6.1988-2.6929-8.5158-3.3164-15.365-4.1343-4.9435-0.59032-6.9001-0.55371-12.506 0.23395-21.72 3.0516-36.882 17.668-36.899 35.571-0.01 6.9986 1.2309 11.194 5.1393 17.425 2.9874 4.7625 11.01 12.606 12.895 12.606 0.5339 0 0.9708 0.26167 0.9708 0.58149s0.4717 0.5815 1.0481 0.5815 1.6924 0.45792 2.4799 1.0176c1.2913 0.91767 3.4551 1.6759 5.2276 1.8319 0.3623 0.0319 1.392-0.51099 2.2883-1.2064zm47.336-1.3005c1.887-1.6588 1.7004-3.4698-0.3828-3.7165-1.7862-0.21155-5.3302 2.979-4.734 4.2619 0.6088 1.3106 3.3363 1.0199 5.1168-0.54536zm396.78-2.6284c0.2227-0.29772 0.1162-0.68872-0.2367-0.8689-0.353-0.18017-0.8236 0.0634-1.0456 0.54131-0.4377 0.9421 0.6201 1.2124 1.2823 0.32759zm-11.83-5.008c0.5313-1.1434-0.097-1.6684-1.475-1.2318-0.6188 0.19611-0.8984 0.71988-0.6591 1.2348 0.5337 1.1488 1.5996 1.1472 2.1341-3e-3zm-4.0189-0.51924c1.1349-1.1294-0.2318-3.2354-2.0996-3.2354-1.0497 0-1.3834 0.3975-1.3834 1.6476 0 2.4936 1.7645 3.298 3.483 1.5878zm-216.8-8.7813c0.7277-0.72415 0.7285-1.6907 0.01-5.0881-0.4917-2.3068-1.2129-4.5212-1.6024-4.921-0.9385-0.96299-6.9673-0.93234-8.5834 0.0437-0.9521 0.57495-1.3669 1.8206-1.6344 4.9077-0.5117 5.9069-0.4688 5.9516 5.7012 5.9516 3.8342 0 5.4544-0.23688 6.1147-0.89399zm190.78-22.075c1.9695-1.7315 3.219-1.8423 4.1729-0.37028 0.4479 0.6913 1.7948 1.2056 3.7212 1.421 5.8828 0.65772 8.3212-2.7274 3.9064-5.4231l-2.2812-1.3929 1.7009-0.33161c0.9354-0.1824 1.8299-0.65136 1.9876-1.0422 0.4283-1.0611-1.7934-1.5354-3.7477-0.80004-2.2905 0.86193-2.2685 3.134 0.045 4.637 2.3403 1.5204 2.2242 2.4299-0.3105 2.4299-2.351 0-2.7696-0.39262-4.3268-4.0581-1.5949-3.7542-3.3084-3.5674-5.2198 0.56909-1.33 2.8782-1.6857 3.1982-3.5552 3.1982-2.038 0-2.0815-0.0643-2.29-3.3804-0.1768-2.8142-0.4127-3.3489-1.4081-3.1924-1.7273 0.27167-2.1072 6.8999-0.4728 8.2498 1.7998 1.4864 6.1149 1.2119 8.0781-0.51396zm32.258 0.14537c0.1732-0.75546-0.2334-1.0176-1.5785-1.0176-1.1411 0-1.8118-0.32289-1.8118-0.87224 0-0.47974 0.291-0.87224 0.6465-0.87224s1.1403-0.1565 1.7439-0.34778c0.7379-0.23389 1.3782 0.16124 1.9548 1.2066 0.4717 0.8549 1.7247 1.9247 2.7845 2.3773 2.545 1.087 8.3541 0.48152 9.6322-1.0039 1.18-1.3714 2.711-1.3654 3.605 0.0142 0.9636 1.487 6.1888 2.0555 8.3245 0.90563 2.1332-1.1486 2.0482-3.3487-0.1761-4.5523-2.1264-1.1507-2.2356-1.8504-0.352-2.2572 0.7745-0.16727 1.4081-0.59851 1.4081-0.95831 0-1.0403-2.0486-1.4098-3.9173-0.70659-2.2906 0.86194-2.2686 3.134 0.045 4.637 2.3402 1.5204 2.224 2.4299-0.3105 2.4299-2.3351 0-2.7423-0.38497-4.3051-4.0704-1.5453-3.6439-3.4421-3.5904-4.9411 0.13949-1.4211 3.5359-1.8625 3.8558-2.7277 1.9764-0.4135-0.89835-1.2486-1.5344-2.0146-1.5344-1.9814 0-2.3777 0.66144-1.0966 1.8306 1.0678 0.9744 1.0679 1.0798 0 1.4178-2.5911 0.82119-4.3119-1.1831-3.1818-3.7061 0.4384-0.97874 1.1434-1.2867 2.9459-1.2867 2.8093 0 3.5854-0.47753 2.5121-1.5456-1.4093-1.4024-4.1534-0.87916-6.7842 1.2936-1.9202 1.5858-2.8979 1.9938-4.1541 1.7334-2.1658-0.44894-2.0917-1.3662 0.148-1.8304 2.9404-0.6095 1.533-1.6862-2.204-1.6862-3.7727 0-5.9236 1.1613-5.9236 3.1982 0 1.8858-2.0177 1.336-2.6647-0.72598-0.3444-1.0979-1.1194-1.9728-1.8506-2.089-1.0806-0.17188-1.186 0.0705-0.7472 1.7204 0.8612 3.2385 3.0452 6.9096 4.1106 6.9096 0.5744 0 1.5568-1.2548 2.2763-2.9075 0.6963-1.5991 1.5202-2.9075 1.8309-2.9075 0.3108 0 0.565 1.1252 0.565 2.5004 0 1.3752 0.3946 2.8262 0.8767 3.2244 1.2771 1.0547 5.0452 0.60451 5.3299-0.63678zm-21.03-19.297c0.4614-0.45918 1.7353-0.99747 2.831-1.1962 2.8222-0.51195 3.2271-2.3795 0.9018-4.1594-2.5593-1.959-3.8895-1.5513-4.5984 1.4094-0.7138 2.9811-1.9131 2.6975-1.9131-0.45245 0-2.7818-0.6233-3.1417-3.4345-1.9835-3.2492 1.3387-3.9194 4.8864-0.9245 4.8941 0.6548 2e-3 2.1411 0.5059 3.3028 1.1205 2.6134 1.3826 2.7973 1.4002 3.8349 0.36757zm-6.418-8.3813c0.1805-1.0484-0.058-1.3083-1.0562-1.1511-0.7162 0.1128-1.3929 0.80492-1.5225 1.5572-0.1805 1.0484 0.058 1.3083 1.0562 1.1511 0.7162-0.1128 1.3929-0.80492 1.5225-1.5572zm11.684-0.28121c-0.5309-1.1424-2.4121-1.3089-2.4121-0.21354 0 1.0819 1.5819 2.2406 2.2761 1.6673 0.3225-0.26634 0.3837-0.92052 0.136-1.4537zm-11.983-4.876c-1.2032-1.5753-2.3982-1.5604-2.3982 0.0298 0 1.5486 1.3094 2.3305 2.4484 1.462 0.4473-0.34109 0.4298-0.86334-0.05-1.4918zm12.388 0.45183c0-1.4513-1.383-2.1659-2.1802-1.1264-1.0267 1.3387-0.7129 2.2551 0.7721 2.2551 0.9245 0 1.4081-0.38767 1.4081-1.1287zm-3.3444-1.4253c1.6182-1.0145 1.5718-2.098-0.09-2.098-1.5857 0-3.2057 1.4504-2.5696 2.3005 0.5885 0.78629 1.1505 0.74349 2.6594-0.2025zm-5.2361-0.78964c-0.1292-0.55969-0.9445-1.1012-1.8119-1.2034-1.7333-0.20425-2.0432 0.44041-0.7321 1.5232 1.2613 1.0417 2.8131 0.84663 2.544-0.31982zm-256.86-28.858c0-1.9106-1.4203-3.647-2.3531-2.8767-1.1601 0.95814 0.1823 4.8407 1.6738 4.8407 0.3736 0 0.6793-0.88381 0.6793-1.964zm5.2116 0.0947c0.3492-0.81595 0.4058-1.9721 0.1257-2.5692-0.4934-1.0518-0.5406-1.0505-1.5151 0.0431-1.2663 1.421-1.36 4.5895-0.1257 4.251 0.484-0.13274 1.1659-0.90894 1.5151-1.7249zm-285.3 95.289c-0.4758-1.0866-0.6494-2.4397-0.3858-3.0069 0.309-0.66512 0.034-1.3-0.7741-1.7881-1.0423-0.62948-1.5345-0.60457-2.9253 0.14803-1.7981 0.97304-3.8099 0.69934-3.7717-0.51315 0.033-1.0524 2.4887-3.3618 3.5746-3.3618 0.7063 0 0.7203-0.15506 0.063-0.69778-0.4647-0.38379-0.8449-1.2996-0.8449-2.0352 0-1.0772 0.3837-1.3374 1.9714-1.3374 1.0844 0 2.3304-0.29641 2.769-0.6587 0.4387-0.36229 1.3328-0.4891 1.9869-0.28179 1.1977 0.37955 1.1587 1.9622-0.1152 4.6838-0.4395 0.93917-0.1015 0.85835 2.0326-0.48597 2.8262-1.7803 4.2544-1.5853 3.6223 0.49462-0.2264 0.74506-0.064 1.5321 0.3609 1.749 1.0936 0.5582 0.2201 1.477-1.4041 1.477-1.5983 0-1.6604 0.20876-0.5132 1.7259 0.9926 1.3127 0.2207 2.3012-1.006 1.2882-1.3837-1.1428-1.875-0.80721-2.8463 1.944l-0.9293 2.6321zm-265.69-0.41815c1.0378-0.34349 2.0787-0.33641 2.8163 0.0192 0.89222 0.43008 0.50127 0.55948-1.6462 0.54486-2.4632-0.0168-2.6099-0.0875-1.1701-0.56404z" fill="#020202" stroke-width=".63986"/>
</svg>
