<?xml version="1.0" encoding="UTF-8"?>
<!-- Created with Inkscape (http://www.inkscape.org/) -->
<svg width="289.33" height="882.67" version="1.1" viewBox="0 0 289.33 882.67" xmlns="http://www.w3.org/2000/svg" xmlns:cc="http://creativecommons.org/ns#" xmlns:dc="http://purl.org/dc/elements/1.1/" xmlns:rdf="http://www.w3.org/1999/02/22-rdf-syntax-ns#">
 <metadata>
  <rdf:RDF>
   <cc:Work rdf:about="">
    <dc:format>image/svg+xml</dc:format>
    <dc:type rdf:resource="http://purl.org/dc/dcmitype/StillImage"/>
    <dc:title/>
   </cc:Work>
  </rdf:RDF>
 </metadata>
 <g stroke-width="1.3333">
  <path d="m16.986 868.33c13.218-18.599 19.667-29.848 20.477-35.717 2.7537-19.955 8.6849-99.323 8.6849-116.22 0-15.24 0.5099-21.495 2.0535-25.189 1.4425-3.4524 2.2055-10.939 2.5643-25.163 0.28099-11.137 1.1697-34.948 1.975-52.915 0.80527-17.967 1.6013-39.718 1.769-48.336 0.30188-15.516 0.27506-15.669-2.738-15.667-4.664 4e-3 -11.909-3.4607-13.517-6.4635-0.79236-1.4805-1.4407-4.4718-1.4407-6.6472s-2.6665-12.565-5.9254-23.088c-8.3606-26.995-10.063-44.151-10.104-101.8-0.01769-24.933 0.15582-46.833 0.38559-48.667 2.8498-22.739 11.761-56.676 21.357-81.333 8.6954-22.343 12.791-34.379 13.611-40 0.61809-4.2356 1.6968-5.2401 11.678-10.875 6.0485-3.4146 12.903-7.1572 15.233-8.3169 3.5455-1.7651 4.477-3.2515 5.7186-9.125 0.81577-3.859 4.3655-17.366 7.8882-30.016 4.3018-15.448 5.8722-23 4.7823-23-0.89245 0-4.0549 0.85816-7.0277 1.907l-5.4051 1.907-4.4292-5.315c-3.964-4.7568-5.2973-5.4356-12.694-6.4628-5.9553-0.827-10.054-2.3899-14.667-5.592l-6.4014-4.4442 21.333-0.66666c12.766-0.39894 22.437-1.3005 24.081-2.2451 4.7558-2.7322 12.588-17.452 12.569-23.621-9e-3 -3.0068 1.5853-10.717 3.5435-17.134 3.3804-11.077 3.751-11.667 7.3308-11.667h3.7704l-2.7832 7c-5.6265 14.151-5.4145 13.17-2.4448 11.321 1.4618-0.90995 4.2949-5.6971 6.2957-10.638 3.4386-8.4915 3.8752-8.9845 7.9712-9 2.3833-0.0091 4.3533 0.43357 4.3777 0.98357s1.1575 2.3338 2.518 3.964c2.4298 2.9116 2.8004 2.9436 20.956 1.8073l18.482-1.1568 11.251 8.3855 0.0412 27.49 0.0412 27.49 21.265 1.7223c11.696 0.94727 21.93 2.1336 22.744 2.6364 1.0092 0.62368 0.53204 2.519-1.5018 5.9662l-2.9808 5.0521-11.43-0.8604c-6.2863-0.47322-15.213-1.2398-19.836-1.7035-8.3551-0.83789-8.4022-0.82344-7.6579 2.3486 0.4119 1.7554 2.5673 13.992 4.7898 27.192 5.3558 31.81 6.1567 33.758 17.267 41.994 17.982 13.33 31.496 33.667 41.417 62.325 11.458 33.099 15.915 67.385 15.921 122.5 3e-3 28.09 0.51629 38.134 2.6565 52 3.2658 21.159 3.7148 54.664 0.80747 60.252-3.6757 7.0646-8.2964 10.113-15.328 10.113-8.3002 0-13.133-3.0576-13.967-8.8361-0.34479-2.3889-2.2249-19.043-4.1781-37.01-2.8573-26.283-4.7055-37.228-9.4581-56.01-4.1019-16.21-6.2218-27.822-6.9374-38l-1.0305-14.657-1.0467 12.667c-0.57566 6.9667-1.4822 14.767-2.0145 17.333-0.54792 2.642-0.2742 7.6751 0.63091 11.601 1.1593 5.0281 1.1926 7.0695 0.12133 7.4265-1.5671 0.52236-1.2841 2.0372 4.2685 22.853 1.5474 5.8006 2.8134 14.52 2.8134 19.377 0 4.8567 1.5125 26.511 3.3611 48.12 1.8486 21.609 3.745 50.99 4.2141 65.29 0.73244 22.326 1.3072 27.413 4.067 36 2.6287 8.179 3.4306 14.492 4.4038 34.667 0.6544 13.567 1.8023 31.867 2.5508 40.667 0.74855 8.8 1.3705 23.577 1.3821 32.837 0.0161 12.841 0.5556 18.063 2.2731 22 1.8329 4.202 2.3964 11.366 3.0281 38.496 0.639 27.443 1.1661 34.054 2.983 37.41 1.2138 2.2423 8.461 8.9743 16.105 14.96 12.578 9.849 14.17 11.595 16.765 18.375 1.577 4.1206 2.8671 7.7387 2.8671 8.0401 0 0.30141-16.489 0.54802-36.641 0.54802h-36.641l-0.85998-3.4264c-0.47298-1.8845-0.14106-7.883 0.73763-13.33 1.8548-11.498 0.81605-23.085-2.6938-30.047-2.327-4.616-3.247-9.1433-6.61-32.53-7.0734-49.188-20.456-113.16-29.349-140.29-3.6583-11.162-7.6034-24.962-8.7668-30.667-2.6415-12.953-5.6395-17.934-14.306-23.771-7.6721-5.1667-9.896-5.5183-15.751-2.4904-3.3296 1.7218-5.8918 5.866-13.885 22.458-5.3908 11.19-10.176 22.99-10.634 26.222-0.45792 3.2316-2.8285 12.176-5.2679 19.876-2.6272 8.2927-4.71 18.077-5.1092 24-0.37063 5.5-4.0222 25.824-8.1146 45.165-6.0705 28.689-7.4421 37.528-7.4482 48-0.0084 14.409-1.4436 21.05-6.0618 28.047-7.9962 12.115-9.145 23.672-4.6533 46.807 1.493 7.6898 2.7163 14.431 2.7185 14.981 0.0023 0.55-16.491 1-36.652 1h-36.656zm45.38-380.44c2.0262-7.3746 2.6907-13.639 2.6029-24.538-0.06484-8.0492-0.42598-14.943-0.80254-15.32-1.7887-1.7887-2.553 2.764-4.0423 24.079-0.88439 12.658-1.7618 23.614-1.9498 24.347s-0.18901 2.8333-0.0023 4.6667l0.33947 3.3333 0.56688-3.3333c0.31179-1.8333 1.7912-7.7895 3.2876-13.236zm10.059-100.42c-0.31892-1.6585-0.59197-0.61554-0.60677 2.3178s0.24614 4.2903 0.57986 3.0156c0.33372-1.2748 0.34583-3.6748 0.02691-5.3333z" fill="#d8e2e7"/>
  <path d="m13.674 873.46c9.0128-11.789 21.668-32.225 23.094-37.293 2.4891-8.849 9.3801-95.217 9.3801-117.56 0-16.547 0.47288-22.274 2.1729-26.313 2.364-5.6168 2.411-6.3686 4.4894-71.83 0.76836-24.2 1.619-50.15 1.8904-57.667 0.45638-12.642 0.30624-13.667-2.0027-13.667-5.3663 0-12.971-4.1874-14.556-8.0155-0.87108-2.103-1.26-4.3475-0.8642-4.9879 0.39576-0.64036-2.2464-10.618-5.8716-22.172-3.6251-11.554-6.5911-21.383-6.5911-21.842 0-0.45885 1.5224 1.2293 3.3832 3.7514l3.3832 4.5857-0.94958-13.327c-1.0638-14.929-1.1939-31.972-0.43253-56.66 0.4262-13.82 0.12697-17.39-1.7521-20.902l-2.2661-4.2354 4.5209-1.492c4.8989-1.6168 5.3428-2.5982 6.8474-15.142 1.0421-8.6878 1.9546-9.4612 12.841-10.883l6.2419-0.8152 2.0086-8.932c1.1047-4.9126 2.9353-14.032 4.0679-20.265l2.0593-11.333-5.4345-20.667c-2.989-11.367-5.7173-22.467-6.063-24.667-0.34572-2.2 0.27284-15.069 1.3746-28.598 2.3408-28.743 0.05245-25.141 23.976-37.743 13.679-7.2055 16.604-9.3564 21.739-15.985 3.2789-4.233 7.3918-8.0256 9.194-8.4779 3.8164-0.95786 3.8086-0.92687 1.4153-5.5956-1.0151-1.9802-2.634-10.098-3.5975-18.04-2.2388-18.454-2.5363-18.867-11.51-15.983l-6.9531 2.2347-3.0469-3.8008c-1.6758-2.0904-3.4388-4.3896-3.9178-5.1092-0.47895-0.71962-4.6363-1.8233-9.2385-2.4527-5.7746-0.78972-10.456-2.4828-15.108-5.4636l-6.7405-4.3193 21.312-0.66666c23.296-0.72872 25.947-1.4811 29.496-8.3729 1.2163-2.3616 3.6225-6.1504 5.3471-8.4197 2.4534-3.2281 3.146-5.8393 3.1829-12 0.0663-11.057 4.9593-25.066 8.9528-25.634 3.7948-0.53895 3.759 0.61127-0.33333 10.682-3.9527 9.7277-3.8788 9.2026-1.1478 8.1546 1.2021-0.46128 4.2202-5.2424 6.707-10.625 3.8116-8.2498 5.0322-9.7861 7.7745-9.7861 2.0672 0 4.3293 1.4557 6.2056 3.9936l2.9526 3.9936 37.948-1.7243 10.894 8.6279v27.221c0 25.47 0.1567 27.221 2.4351 27.221 3.0643 0 29.653 2.4519 37.268 3.4368l5.703 0.73753-2.9485 5.2462c-1.6217 2.8854-3.888 5.2505-5.0363 5.2558-1.1483 5e-3 -9.7468-0.68566-19.108-1.5354-9.3611-0.8498-17.376-1.1896-17.81-0.75509-0.4345 0.43449-0.13611 3.6754 0.66309 7.2021 0.7992 3.5267 3.0284 16.012 4.9537 27.745 1.9542 11.909 4.6367 23.561 6.0723 26.376 1.561 3.0606 5.9372 7.4634 11.135 11.203 29.168 20.983 48.81 68.32 54.67 131.76 1.1126 12.045 1.9851 36.137 2.0038 55.333 0.0265 27.211 0.55868 37.328 2.6652 50.667 3.197 20.244 3.6389 51.092 0.82824 57.819-2.8898 6.9162-8.035 10.181-16.045 10.181-9.5814 0-12.412-2.3343-13.349-11.009-6.5805-60.89-7.7907-69.07-13.538-91.503-4.6506-18.153-6.1374-26.681-6.8571-39.333l-0.91893-16.155-1.7092 16.667c-2.0495 19.985-2.0624 20.327-1.3088 34.667 0.32758 6.2333 1.8663 15.533 3.4194 20.667 1.931 6.3824 3.2495 16.078 4.1701 30.667 0.74047 11.733 1.9275 27.633 2.6378 35.333 2.4781 26.863 5.3141 71.429 5.3454 84 0.0241 9.6767 0.81403 15.185 3.3464 23.333 2.7491 8.8464 3.5441 15.217 4.6586 37.333 0.73908 14.667 1.9182 32.967 2.6203 40.667s1.2967 21.577 1.3214 30.837c0.034 12.743 0.589 18.093 2.2823 22 1.8073 4.1703 2.3867 11.443 3.0141 37.83 0.66242 27.862 1.127 33.312 3.1587 37.055 1.3101 2.4136 8.3105 9.0136 15.556 14.667 11.504 8.9749 13.609 11.262 16.604 18.033 1.8863 4.265 3.4296 8.015 3.4296 8.3333 0 0.31833-16.127 0.57878-35.837 0.57878-30.016 0-36.103-0.32057-37.475-1.9737-1.2927-1.5576-1.2963-4.3814-0.0171-13.393 1.8626-13.121 0.94307-23.485-2.8432-32.045-1.4466-3.2702-3.4496-12.09-4.4512-19.601-7.0868-53.137-21.541-123.9-31.385-153.65-3.6395-11-7.5888-24.8-8.7762-30.667-2.4402-12.056-5.646-17.208-14.496-23.297-6.9468-4.7795-12.307-5.1273-17.391-1.1283-5.2501 4.1298-21.595 38.903-23.298 49.567-0.72042 4.5096-3.04 12.997-5.1548 18.862-2.4312 6.7421-4.1361 14.636-4.637 21.468-0.43562 5.9431-4.0433 26.343-8.017 45.333-5.612 26.82-7.4046 38.326-8.0297 51.541-0.7886 16.673-0.91082 17.207-6.1109 26.682-8.0263 14.624-8.8151 20.25-5.5422 39.52 1.4988 8.8246 3.1057 17.561 3.5709 19.415l0.84581 3.37h-73.605zm51.056-397c0.69093-4.4071 0.81099-13.689 0.26734-20.667-0.96365-12.369-1.0226-12.541-2.5062-7.3333-0.83564 2.9333-1.8926 12.533-2.3488 21.333s-1.3936 18.888-2.083 22.418c-0.68947 3.53-0.847 8.03-0.35007 10 0.74856 2.9676 1.3205 1.7525 3.335-7.0848 1.3373-5.8667 2.9959-14.267 3.6857-18.667zm8.0913-89.844c-1.0917-1.8682-1.267-1.8001-1.3148 0.51104-0.03037 1.4667-0.34132 5.0667-0.69099 8l-0.63577 5.3333 1.9506-5.8444c1.2979-3.8889 1.5291-6.5656 0.69099-8z" fill="#9c9e9f"/>
  <path d="m11.082 878.1c0.58644-0.93493 6.078-9.1094 12.203-18.165 6.1254-9.0561 11.96-18.436 12.966-20.844 2.7962-6.6923 9.8964-91.089 9.8964-117.63 0-18.998 0.4066-23.573 2.6667-30.003 2.0246-5.7604 2.6667-11.005 2.6667-21.783 0-7.8077 0.57594-27.173 1.2799-43.033 0.70393-15.861 1.5643-39.726 1.9119-53.035l0.63206-24.197-6.2453-1.5696c-7.8809-1.9806-10.912-4.7023-10.912-9.7979 0-2.2084-2.7-12.548-6-22.976-3.3-10.428-5.9867-19.478-5.9704-20.111 0.01631-0.63297 1.2048 0.34913 2.641 2.1825l2.6114 3.3333-0.97437-16.667c-1.0001-17.108-1.0172-22.755-0.15855-52.667 0.41777-14.554 0.12767-18.012-1.8094-21.569l-2.3069-4.2354 4.5209-1.492c4.8226-1.5916 5.3538-2.6922 6.8541-14.2 0.48969-3.7561 1.3174-7.5203 1.8395-8.365s4.4607-2.1072 8.7526-2.8058c4.2919-0.69854 8.154-1.8372 8.5824-2.5303 0.42836-0.69309 2.4822-9.8573 4.5641-20.365l3.7853-19.105-4.8238-19.333c-2.6531-10.633-5.3485-20.571-5.9898-22.083-0.69364-1.6356-0.43004-12.439 0.65066-26.667 0.99917-13.154 1.8569-25.417 1.906-27.25 0.10347-3.8619 5.3019-7.5729 25.215-18 10.166-5.3231 13.916-8.1446 18.608-14 3.232-4.0333 7.5559-7.8597 9.6087-8.5031 3.5079-1.0995 3.615-1.3488 1.7816-4.147-1.0729-1.6375-2.9405-10.411-4.1502-19.497-1.2097-9.0858-2.6417-17.036-3.1823-17.667-0.5406-0.6308-4.1595-0.0919-8.042 1.1977l-7.0591 2.3446-4.7273-5.3998c-4.2726-4.8804-5.5107-5.4871-12.871-6.3066-5.6916-0.63375-9.9067-2.0766-14-4.7922l-5.8566-3.8854 19.053-5e-3c16.479-5e-3 19.767-0.36969 24.333-2.6995 2.9041-1.4819 5.2802-3.4763 5.2802-4.4323 0-0.95602 2.1-4.6919 4.6667-8.302 3.8396-5.4004 4.6659-7.7461 4.6624-13.235-2e-3 -3.669 1.2851-11.021 2.8609-16.338 2.5049-8.4514 3.2598-9.6667 6.0042-9.6667 1.7265 0 3.1391 0.21748 3.1391 0.48328s-1.7947 4.8355-3.9882 10.155c-3.8574 9.3542-3.8902 9.6086-1 7.7535 2.9685-1.9053 7.5136-9.5765 10.143-17.119 1.9091-5.4765 6.972-5.3784 10.953 0.21227l2.956 4.1513 38.092-1.9042 10.844 8.7147v27.11c0 14.911 0.45 27.128 1 27.15 0.55 0.0219 9.7 0.90396 20.333 1.9604s20.401 1.9386 21.706 1.9604c2.1669 0.0361 2.1089 0.50229-0.66667 5.3627-1.6719 2.9277-3.6398 5.3003-4.3731 5.2724-0.73334-0.0279-9.6469-0.80797-19.808-1.7336l-18.475-1.6829 0.885 5.4105c0.48676 2.9758 1.0615 6.9105 1.2771 8.7439 1.8061 15.353 7.076 41.838 9.3379 46.93 2.1104 4.7505 4.9178 7.8097 11.624 12.667 37.977 27.504 57.123 91.399 57.176 190.8 0.0137 26.209 0.55484 36.339 2.6494 49.602 2.8995 18.36 3.492 44.307 1.2002 52.562-2.2576 8.1314-7.7202 12.772-15.035 12.772-6.9944 0-12.523-2.1501-13.377-5.2024-0.32798-1.172-0.98865-6.031-1.4681-10.798-4.2783-42.532-7.8044-66.343-12.538-84.667-5.4814-21.218-8.0094-36.849-8.2824-51.212-0.1509-7.9398-0.34781-7.2436-2.04 7.212-1.0301 8.8-1.8108 19.9-1.7348 24.667 0.076 4.7667 0.0961 11.561 0.0447 15.099-0.0513 3.5377 1.3618 11.638 3.1405 18 2.0071 7.1794 3.55 17.132 4.0671 26.235 0.45826 8.0667 1.9834 28.767 3.3892 46 3.3334 40.863 5.3004 71.708 5.3004 83.118 0 5.829 1.1776 13.115 3.2361 20.023 2.467 8.2784 3.4376 15.455 4.0839 30.193 0.46628 10.633 1.71 30.427 2.7639 43.987 1.0539 13.559 1.9161 30.434 1.9161 37.499 0 8.3727 0.73504 14.877 2.1109 18.68 1.596 4.4112 2.3278 13.86 3 38.738 1.0426 38.584-0.38708 34.836 19.492 51.096 11.431 9.3499 13.422 11.613 16.127 18.333l3.0862 7.6667h-35.861c-41.502 0-39.469 0.70012-37.253-12.833 2.4833-15.164 1.7908-22.346-3.841-39.834-1.4169-4.4-3.5356-15.245-4.7081-24.1-2.8737-21.703-13.142-78.25-18.915-104.17-2.5808-11.586-7.6178-30.065-11.193-41.065s-7.2351-23.9-8.1326-28.667c-1.992-10.58-3.7148-14.123-9.4641-19.465-9.6568-8.9722-17.249-10.975-23.394-6.1718-4.5688 3.5715-21.617 40.078-23.144 49.56-0.71169 4.4192-3.0045 12.694-5.0952 18.39-2.231 6.0772-4.1943 14.761-4.7528 21.021-0.52337 5.8667-3.967 25.067-7.6525 42.667-4.9517 23.646-7.1172 37.581-8.2955 53.379-1.5715 21.07-1.665 21.494-6.4679 29.333-8.3979 13.707-9.0512 22.274-3.7844 49.621l2.3753 12.333h-35.851c-28.723 0-35.639-0.33797-34.785-1.6999zm51.585-388.73c2.1285-3.4439 3.5014-20.859 2.6746-33.925-1.4681-23.201-2.9025-16.882-7.2116 31.766-1.6685 18.836-0.36677 26.102 2.1923 12.237 0.90951-4.9279 1.9647-9.4631 2.3448-10.078zm10.616-102.19c-0.85838-2.6994-0.86759-2.6996-1.9049-0.0459-0.57328 1.4667-1.0252 5.3667-1.0042 8.6667l0.03811 6 1.8668-5.9542c1.0267-3.2748 1.4786-7.1748 1.0042-8.6667z" fill="#cac63e"/>
  <path d="m11.082 878.1c0.58644-0.93493 6.078-9.1094 12.203-18.165 6.1254-9.0561 11.96-18.436 12.966-20.844 2.7962-6.6923 9.8964-91.089 9.8964-117.63 0-18.998 0.4066-23.573 2.6667-30.003 2.0246-5.7604 2.6667-11.005 2.6667-21.783 0-7.8077 0.57594-27.173 1.2799-43.033 0.70393-15.861 1.5643-39.726 1.9119-53.035l0.63206-24.197-6.2453-1.5696c-7.8809-1.9806-10.912-4.7023-10.912-9.7979 0-2.2084-2.7404-12.675-6.0897-23.259-5.6555-17.872-6.8762-24.433-3.3038-17.758 1.8355 3.4297 13.849 9.6989 16.578 8.6515 1.5454-0.59301 1.7066-1.5275 0.71383-4.1386-0.87858-2.3108-0.61691-8.1839 0.83119-18.655 1.6627-12.023 1.8113-17.18 0.69677-24.181-1.3799-8.6669-1.3303-8.9685 1.9116-11.615 4.1511-3.3884 4.1588-4.1191 0.05375-5.1494-1.801-0.45203-4.8267-1.412-6.7239-2.1333l-3.4494-1.3114 19.9-26.277-5.5592-5.6583c-5.176-5.2683-5.3875-5.765-3.0678-7.2063 8.046-4.999 8.488-6.6954 12.801-49.135 1.4354-14.123 1.4055-14.427-3.2799-33.333-2.6007-10.494-5.2532-20.317-5.8945-21.83-0.69364-1.6356-0.43004-12.439 0.65067-26.667 0.99917-13.154 1.8569-25.417 1.906-27.25 0.10347-3.8619 5.3019-7.5729 25.215-18 10.166-5.3231 13.916-8.1446 18.608-14 3.232-4.0333 7.5559-7.8597 9.6087-8.5031 3.5079-1.0995 3.615-1.3488 1.7816-4.147-1.0729-1.6375-2.9405-10.411-4.1502-19.497-1.2097-9.0858-2.6417-17.036-3.1823-17.667-0.54061-0.6308-4.1595-0.0919-8.042 1.1977l-7.0591 2.3446-4.7273-5.3998c-4.2726-4.8804-5.5107-5.4871-12.871-6.3066-5.6916-0.63375-9.9067-2.0766-14-4.7922l-5.8566-3.8854 19.053-5e-3c16.479-5e-3 19.767-0.36969 24.333-2.6995 2.9041-1.4819 5.2802-3.4763 5.2802-4.4323 0-0.95602 2.1-4.6919 4.6667-8.302 3.8396-5.4004 4.6659-7.7461 4.6624-13.235-2e-3 -3.669 1.2851-11.021 2.8609-16.338 2.5049-8.4514 3.2598-9.6667 6.0042-9.6667 1.7265 0 3.1391 0.21748 3.1391 0.48328s-1.7947 4.8355-3.9882 10.155c-3.8574 9.3542-3.8902 9.6086-1 7.7535 2.9685-1.9053 7.5136-9.5765 10.143-17.119 1.9091-5.4765 6.972-5.3784 10.953 0.21227l2.956 4.1513 38.092-1.9042 10.844 8.7147v27.11c0 14.911 0.45 27.128 1 27.15 0.55 0.0219 9.7 0.90396 20.333 1.9604s20.401 1.9386 21.706 1.9604c2.1669 0.0361 2.1089 0.50229-0.66667 5.3627-1.6719 2.9277-3.6398 5.3003-4.3731 5.2724-0.73334-0.0279-9.6469-0.80797-19.808-1.7336l-18.475-1.6829 0.87014 5.4105c0.47859 2.9758 1.1163 7.5105 1.4172 10.077 1.6433 14.018 7.2365 41.415 9.4454 46.266 1.802 3.9571 5.1424 7.476 11.391 12 37.973 27.491 57.123 91.396 57.176 190.8 0.0137 26.209 0.55484 36.339 2.6494 49.602 2.8995 18.36 3.492 44.307 1.2002 52.562-2.2576 8.1314-7.7202 12.772-15.035 12.772-6.9944 0-12.523-2.1501-13.377-5.2024-0.32798-1.172-0.98865-6.031-1.4681-10.798-4.2783-42.532-7.8044-66.343-12.538-84.667-5.4814-21.218-8.0094-36.849-8.2824-51.212-0.1509-7.9398-0.34781-7.2436-2.04 7.212-1.0301 8.8-1.8108 19.9-1.7348 24.667 0.076 4.7667 0.0961 11.561 0.0447 15.099-0.0513 3.5377 1.3618 11.638 3.1405 18 2.0071 7.1794 3.55 17.132 4.0671 26.235 0.45826 8.0667 1.9834 28.767 3.3892 46 3.3334 40.863 5.3004 71.708 5.3004 83.118 0 5.829 1.1776 13.115 3.2361 20.023 2.467 8.2784 3.4376 15.455 4.0839 30.193 0.46628 10.633 1.71 30.427 2.7639 43.987 1.0539 13.559 1.9161 30.434 1.9161 37.499 0 8.3727 0.73504 14.877 2.1109 18.68 1.596 4.4112 2.3278 13.86 3 38.738 1.0426 38.584-0.38708 34.836 19.492 51.096 11.431 9.3499 13.422 11.613 16.127 18.333l3.0862 7.6667h-35.861c-41.502 0-39.469 0.70012-37.253-12.833 2.4833-15.164 1.7908-22.346-3.841-39.834-1.4169-4.4-3.5356-15.245-4.7081-24.1-2.8737-21.703-13.142-78.25-18.915-104.17-2.5808-11.586-7.6178-30.065-11.193-41.065s-7.2351-23.9-8.1326-28.667c-1.992-10.58-3.7148-14.123-9.4641-19.465-9.6568-8.9722-17.249-10.975-23.394-6.1718-4.5688 3.5715-21.617 40.078-23.144 49.56-0.71169 4.4192-3.0045 12.694-5.0952 18.39-2.231 6.0772-4.1943 14.761-4.7528 21.021-0.52337 5.8667-3.967 25.067-7.6525 42.667-4.9517 23.646-7.1172 37.581-8.2955 53.379-1.5715 21.07-1.665 21.494-6.4679 29.333-8.3979 13.707-9.0512 22.274-3.7844 49.621l2.3753 12.333h-35.851c-28.723 0-35.639-0.33797-34.785-1.6999zm51.585-388.73c2.1285-3.4439 3.5014-20.859 2.6746-33.925-1.4681-23.201-2.9025-16.882-7.2116 31.766-1.6685 18.836-0.36677 26.102 2.1923 12.237 0.90951-4.9279 1.9647-9.4631 2.3448-10.078zm10.616-102.19c-0.85838-2.6994-0.86759-2.6996-1.9049-0.0459-0.57328 1.4667-1.0252 5.3667-1.0042 8.6667l0.03811 6 1.8668-5.9542c1.0267-3.2748 1.4786-7.1748 1.0042-8.6667zm10.188-41.671c-1.4442-2.2513-1.4837-2.2478-0.75636 0.0672 0.42204 1.3433 0.83694 3.4433 0.92201 4.6667 0.13934 2.0038 0.2143 1.9972 0.75636-0.0672 0.33093-1.2603-0.08397-3.3603-0.92201-4.6667z" fill="#5f6264"/>
  <path d="m22.844 861.29c6.9188-10.177 13.239-20.227 14.045-22.333 2.689-7.0263 9.2051-87.394 9.2328-113.88 0.02157-20.637 0.43816-25.915 2.5258-32 2.674-7.7945 2.9457-12.732 5.4912-99.812 0.69444-23.755 0.99381-43.627 0.66527-44.158-0.32854-0.53158-2.8606-1.3306-5.6269-1.7756-7.7849-1.2523-11.028-4.1745-11.041-9.9501-0.0065-2.7084-2.6722-13.324-5.9238-23.591-3.9772-12.558-5.172-17.794-3.6509-16 2.9711 3.5041 14.329 8.8098 16.816 7.8555 1.5007-0.57587 1.6556-1.5289 0.66981-4.1217-0.87858-2.3108-0.61691-8.1839 0.83119-18.655 1.6627-12.023 1.8113-17.18 0.69677-24.181-1.3799-8.6669-1.3303-8.9685 1.9116-11.615 4.1511-3.3884 4.1588-4.1191 0.05375-5.1494-1.801-0.45203-4.8267-1.412-6.7239-2.1333l-3.4494-1.3114 19.9-26.277-5.5592-5.6583c-5.176-5.2683-5.3875-5.765-3.0678-7.2063 8.052-5.0027 8.5885-7.082 12.865-49.855 1.4537-14.541 1.4451-14.628-3.3566-33.695-2.6477-10.514-5.3203-20.065-5.9391-21.224-0.63099-1.182-0.32359-12.647 0.7-26.108 1.0038-13.2 1.8471-25.5 1.8741-27.333 0.055-3.7374 0.70883-4.1981 23.559-16.601 12.097-6.5657 15.992-9.4624 20.944-15.574 3.3746-4.1648 7.6011-7.889 9.4915-8.3634 3.2811-0.82352 3.3348-0.99671 1.4432-4.6546-1.0806-2.0896-3.0086-11.376-4.2846-20.637-2.5871-18.777-2.2883-18.427-12.62-14.775l-5.8343 2.0621-4.6667-5.3806c-4.2005-4.8431-5.4659-5.4701-12.667-6.2761-5.2086-0.58302-9.8305-2.1002-13.246-4.3481l-5.2463-3.4526 19.246-0.66667c14.993-0.51935 20.204-1.1898 23.58-3.0342 2.3833-1.3022 4.3333-2.8919 4.3333-3.5327s2.1-4.2857 4.6667-8.0998c3.7873-5.6279 4.6793-8.2284 4.7339-13.801 0.037-3.7763 1.4089-11.066 3.0487-16.199 2.4002-7.5135 3.5605-9.4169 5.9508-9.7618l2.9693-0.42843-2.8206 7.0951c-1.5514 3.9023-3.3446 8.4451-3.985 10.095-0.64041 1.65-0.69237 3-0.11546 3 2.5382 0 6.7456-5.7111 10.207-13.855 4.3869-10.322 7.5411-11.476 12.614-4.6135l3.1042 4.1986 37.876-1.721 9.6534 7.3238 0.0487 27.561 0.0485 27.561 3.6667 0.70381c2.0167 0.38711 12.217 1.4174 22.667 2.2896s18.998 1.9532 18.995 2.4021c-3e-3 0.44897-1.216 2.8026-2.696 5.2302-1.8258 2.9947-3.4318 4.2072-4.995 3.7712-1.2672-0.3535-7.704-1.0161-14.304-1.4724s-14.48-1.161-17.511-1.5659l-5.511-0.73616 1.1817 5.7947c0.64995 3.1871 1.4504 7.8947 1.7787 10.461 1.9659 15.368 7.5532 42.908 9.5582 47.113 1.4777 3.0987 5.6396 7.3345 11.175 11.373 11.627 8.4836 24.111 23.984 31.574 39.204 3.3195 6.7698 6.2584 13.466 6.5308 14.88 0.27239 1.4144 2.3 8.0148 4.5057 14.667 9.6329 29.053 14.598 70.874 14.672 123.58 0.0363 25.931 0.60234 36.419 2.6985 50 4.7412 30.717 3.268 51.569-4.1452 58.671-3.3999 3.2574-5.1056 3.8474-11.122 3.8474-8.9271 0-12.712-2.9346-12.735-9.8733-8e-3 -2.6363-1.7905-19.793-3.96-38.127-2.9392-24.837-5.2697-38.431-9.1436-53.333-5.2251-20.1-8.0762-38.56-8.3753-54.227-0.11453-5.9991-0.89266-1.6923-2.691 14.894-1.9599 18.076-2.2077 24.657-1.1001 29.21 1.059 4.3529 1.0306 6.1234-0.10934 6.828-1.4926 0.92252 1.6557 16.127 5.353 25.852 0.7564 1.9895 1.3833 7.6282 1.3931 12.53 9e-3 4.9022 1.4709 26.313 3.2468 47.58 1.776 21.267 3.9402 52.167 4.8094 68.667 1.2902 24.491 2.163 31.971 4.7532 40.735 2.1562 7.2959 3.1728 14.077 3.1728 21.166 0 5.737 1.1825 27.006 2.6278 47.265 1.4453 20.259 2.8574 41.634 3.1379 47.5 0.28054 5.8667 1.2433 13.067 2.1396 16 1.0109 3.3085 1.7955 16.796 2.0667 35.527 0.36629 25.295 0.81335 30.986 2.7556 35.079 1.545 3.2558 6.8774 8.4444 15.985 15.554 11.625 9.075 14.086 11.678 16.477 17.432 1.5459 3.7199 2.8107 7.2834 2.8107 7.919 0 1.5242-68.119 1.4616-70.529-0.0647-1.5019-0.95101-1.6404-3.2064-0.71493-11.646 1.6721-15.249 0.93447-26.54-2.1258-32.539-1.4384-2.8196-3.2359-9.2068-3.9943-14.194-11.784-77.488-23.046-133.6-32.024-159.57-2.9048-8.4015-6.8026-21.714-8.662-29.583-3.7614-15.919-6.0952-20.052-14.642-25.932-14.138-9.7275-18.933-6.7557-31.472 19.508-6.1134 12.805-9.8761 22.626-11.09 28.945-1.0102 5.2607-3.4255 13.765-5.3674 18.898-2.2519 5.9528-3.9434 13.921-4.6703 22-0.62682 6.9667-4.2618 27.367-8.0778 45.333-5.5273 26.024-7.1185 36.364-7.8251 50.85-0.84841 17.392-1.0716 18.48-5.1293 25.008-8.9765 14.44-9.987 22.645-5.6963 46.25 1.4555 8.0076 2.6555 15.309 2.6667 16.226 0.01569 1.2918-7.9128 1.6667-35.255 1.6667l-35.275-4e-5zm37.776-360.5c0.84325-4.5833 2.4194-12.233 3.5027-17 2.034-8.9506 2.3417-22.261 0.86314-37.333l-0.85022-8.6667-1.7751 6.6667c-0.9763 3.6667-2.3049 14.167-2.9525 23.333-0.64755 9.1667-1.5782 22.217-2.0682 29-1.0389 14.384 0.92837 16.783 3.2802 4zm12.864-114.13c-1.3826-5.5087-2.8757-1.0978-3.7675 11.13l-0.77796 10.667 2.7119-9.1486c1.6238-5.4781 2.3595-10.553 1.8336-12.648zm9.9861-41.162c-1.4442-2.2513-1.4837-2.2478-0.75636 0.0672 0.42204 1.3433 0.83694 3.4433 0.92201 4.6667 0.13934 2.0038 0.2143 1.9972 0.75636-0.0672 0.33093-1.2603-0.08397-3.3603-0.92201-4.6667z" fill="#7a731f"/>
  <path d="m22.844 861.29c6.9188-10.177 13.239-20.227 14.045-22.333 2.689-7.0263 9.2051-87.394 9.2328-113.88 0.02157-20.637 0.43816-25.915 2.5258-32 2.674-7.7945 2.9457-12.732 5.4912-99.812 0.69444-23.755 0.99381-43.627 0.66527-44.158-0.32854-0.53158-2.8606-1.3306-5.6269-1.7756-7.7849-1.2523-11.028-4.1745-11.041-9.9501-0.0065-2.7084-2.6722-13.324-5.9238-23.591-4.1266-13.029-5.2003-17.803-3.5552-15.808 1.9245 2.3347 14.588 9.8075 16.62 9.8075 0.30294 0 3.0928-3.3668 6.1996-7.4818l5.6488-7.4818-0.95202-21.583-0.95202-21.583 4.1239-10.602c5.1337-13.198 5.1428-14.657 0.10213-16.414l-4.0341-1.4063 6.3257-8.7933c4.6506-6.4647 6.5269-8.2198 7.0854-6.6277 1.1555 3.2941 5.7501-15.917 4.6418-19.409-1.4354-4.5226-3.2462-0.62759-3.4316 7.3814l-0.15435 6.6667-1.2782-5.3333c-0.70303-2.9333-0.90113-7.7333-0.44021-10.667 2.1494-13.679-1.3539-42.613-8.5636-70.727l-5.1116-19.932 13.128 13.996c9.4488 10.074 13.138 14.953 13.164 17.408 0.01975 1.8765 0.91683 4.5765 1.9935 6 2.1347 2.8223 2.826 13.23 0.79544 11.975-0.68583-0.42387-1.4358 1.1341-1.6667 3.4622l-0.4197 4.2329-4.3333-3.6594c-2.3833-2.0127-4.3333-3.2928-4.3333-2.8447 0 0.44814 2.4882 5.7515 5.5294 11.785l5.5294 10.97 1.9164 39.073 1.9164 39.073 22.254 52.52 25.76 0.82271c14.168 0.45249 35.745 0.90249 47.948 1l22.188 0.17729 0.83926-14.333c0.46158-7.8833 1.4346-28.433 2.1623-45.667 0.7277-17.233 1.9217-43.408 2.6534-58.167l1.3304-26.833-27.23-64.381c-14.976-35.41-28.032-64.829-29.014-65.377-0.98119-0.54769-9.9959-4.0166-20.033-7.7086l-18.249-6.7128-14.418 5.8036c-7.9299 3.192-20.39 8.5792-27.688 11.971-16.869 7.8405-15.536 6.5002 3.8008-3.8206 12.559-6.703 16.245-9.4088 21.274-15.616 3.3746-4.1648 7.601-7.889 9.4915-8.3634 3.2811-0.82352 3.3348-0.99671 1.4432-4.6546-1.0806-2.0896-3.0086-11.376-4.2846-20.637-2.5871-18.777-2.2883-18.427-12.62-14.775l-5.8343 2.0621-4.6667-5.3806c-4.2005-4.8431-5.4659-5.4701-12.667-6.2761-5.2086-0.58302-9.8305-2.1002-13.246-4.3481l-5.2463-3.4526 19.246-0.66667c14.993-0.51935 20.204-1.1898 23.58-3.0342 2.3833-1.3022 4.3333-2.8919 4.3333-3.5327s2.1-4.2857 4.6667-8.0998c3.7873-5.6279 4.6793-8.2284 4.7339-13.801 0.037-3.7763 1.4089-11.066 3.0487-16.199 2.4002-7.5135 3.5605-9.4169 5.9508-9.7618l2.9693-0.42843-2.8206 7.0951c-1.5514 3.9023-3.3446 8.4451-3.985 10.095-0.64041 1.65-0.69237 3-0.11546 3 2.5382 0 6.7456-5.7111 10.207-13.855 4.3869-10.322 7.5411-11.476 12.614-4.6135l3.1042 4.1986 37.876-1.721 9.6534 7.3238 0.0487 27.561 0.0485 27.561 3.6667 0.70381c2.0167 0.38711 12.217 1.4174 22.667 2.2896s18.998 1.9532 18.995 2.4021c-3e-3 0.44897-1.1738 2.7333-2.6024 5.0762-2.2506 3.6911-3.1847 4.18-6.995 3.6612-10.651-1.4501-34.943-3.1532-35.601-2.496-0.39754 0.39755 0.23703 3.392 1.4102 6.6543l2.133 5.9315-3.4871 1.6713c-1.9179 0.91924-3.6678 2.8668-3.8886 4.3278-1.1115 7.3531-1.803 8.8745-3.6869 8.1111-1.0693-0.43335-2.8442-1.1521-3.9442-1.5972-3.0584-1.2376-2.5016 0.944 4.0721 15.954 4.8325 11.034 7.0747 14.578 10.983 17.359 4.4522 3.1678 4.9899 3.2763 5.7583 1.1616 0.67696-1.8629 1.3365-1.3208 3.276 2.6927 1.5363 3.179 5.7082 7.4181 11.356 11.539 12.127 8.8481 26.827 27.199 29.51 36.84 1.1118 3.9944 1.7941 7.2625 1.5162 7.2625s-2.0229-3.45-3.8778-7.6667c-2.4071-5.4718-6.6966-11.033-14.983-19.424-6.3858-6.4668-12.593-12.302-13.795-12.967-1.9253-1.066-2.0529-0.62058-1.0764 3.7577 10.926 48.989 13.257 62.778 15.326 90.663 1.5323 20.644 2.6942 29.576 4.0424 31.076 2.5112 2.7938 2.3944 4.0041-0.28689 2.9752-1.979-0.75942-2.1143 1.1715-1.4742 21.042 0.7332 22.762 4.4069 44.988 10.172 61.543 1.8556 5.3282 3.3156 15.687 4.7892 33.981 1.1659 14.474 2.5485 26.697 3.0724 27.162 1.3244 1.1762 21.985 7.9383 22.544 7.3787 0.2504-0.2504-0.46917-4.85-1.5991-10.221-1.951-9.2747-1.9193-10.173 0.62995-17.865 2.5723-7.7616 2.6031-8.7883 0.73871-24.614-1.0701-9.0829-2.1309-16.7-2.3575-16.926-0.22657-0.22657-2.7782 0.12174-5.6704 0.77403-2.8922 0.65229-5.373 1.0691-5.513 0.92632-0.14-0.14281 1.2018-3.7098 2.9817-7.9267 2.919-6.9156 3.0848-8.2877 1.6917-14-0.84951-3.4831-2.03-7.291-2.6234-8.462-0.63209-1.2475-0.45517-2.7527 0.42728-3.6352 1.1192-1.1192 0.90313-2.1724-0.84134-4.1-2.258-2.4951-2.2158-2.6801 1.1081-4.858l3.4556-2.2641-5.5707-9.0136h6.7754c7.5784 0 8.1859-0.79524 3.5648-4.6667l-3.1831-2.6667 5.3123-5.7734-7.028-4.6049 2.9538-3.1442c1.6246-1.7293 2.2781-3.1442 1.4524-3.1442-1.0456 0-1.4265-5.032-1.2548-16.578 0.13561-9.1179 0.42293-16.402 0.63848-16.186 0.21554 0.21556 1.5706 12.926 3.0112 28.245 1.7542 18.654 2.623 38.47 2.6305 60 9e-3 25.4 0.56794 35.755 2.6637 49.333 4.7412 30.717 3.268 51.569-4.1452 58.671-3.3999 3.2574-5.1056 3.8474-11.122 3.8474-8.9272 0-12.712-2.9346-12.735-9.8733-8e-3 -2.6363-1.7905-19.793-3.96-38.127-2.9391-24.837-5.2697-38.431-9.1436-53.333-5.2251-20.1-8.0762-38.56-8.3753-54.227-0.11454-5.9991-0.89267-1.6923-2.691 14.894-1.9599 18.076-2.2078 24.657-1.1001 29.21 1.059 4.3529 1.0306 6.1234-0.10933 6.828-1.4927 0.92252 1.6557 16.127 5.353 25.852 0.7564 1.9895 1.3833 7.6282 1.3931 12.53 9e-3 4.9022 1.4709 26.313 3.2468 47.58 1.776 21.267 3.9402 52.167 4.8094 68.667 1.2902 24.491 2.163 31.971 4.7532 40.735 2.1562 7.2959 3.1728 14.077 3.1728 21.166 0 5.737 1.1825 27.006 2.6278 47.265 1.4453 20.259 2.8574 41.634 3.1379 47.5 0.28053 5.8667 1.2433 13.067 2.1396 16 1.0108 3.3085 1.7955 16.796 2.0667 35.527 0.3663 25.295 0.81335 30.986 2.7556 35.079 1.545 3.2558 6.8774 8.4444 15.985 15.554 11.625 9.075 14.086 11.678 16.477 17.432 1.5459 3.7199 2.8108 7.2834 2.8108 7.919 0 1.5242-68.119 1.4616-70.529-0.0647-1.502-0.95101-1.6404-3.2064-0.71494-11.646 1.6721-15.249 0.93447-26.54-2.1257-32.539-1.4384-2.8196-3.2359-9.2068-3.9943-14.194-11.784-77.488-23.046-133.6-32.024-159.57-2.9048-8.4015-6.8027-21.714-8.662-29.583-3.7614-15.919-6.0952-20.052-14.642-25.932-14.138-9.7275-18.933-6.7557-31.472 19.508-6.1134 12.805-9.8761 22.626-11.09 28.945-1.0102 5.2607-3.4255 13.765-5.3674 18.898-2.2519 5.9528-3.9434 13.921-4.6703 22-0.62682 6.9667-4.2618 27.367-8.0778 45.333-5.5273 26.024-7.1185 36.364-7.8251 50.85-0.84841 17.392-1.0716 18.48-5.1293 25.008-8.9765 14.44-9.987 22.645-5.6963 46.25 1.4555 8.0076 2.6555 15.309 2.6667 16.226 0.01569 1.2918-7.9128 1.6667-35.255 1.6667l-35.275-4e-5zm37.776-360.5c0.84325-4.5833 2.4194-12.233 3.5027-17 2.034-8.9506 2.3417-22.261 0.86314-37.333l-0.85022-8.6667-1.7751 6.6667c-0.9763 3.6667-2.3049 14.167-2.9525 23.333-0.64755 9.1667-1.5782 22.217-2.0682 29-1.0389 14.384 0.92837 16.783 3.2802 4zm197.72-177.29c-4.0948-16.012-4.5031-18.366-2.1476-12.38 2.5198 6.4033 6.3119 22.088 5.5294 22.87-0.30619 0.30619-1.828-4.4144-3.3818-10.49zm-7.9473-25.708c-0.83673-1.8364-1.0042-3.339-0.37209-3.339 1.1071 0 3.1019 5.4695 2.2906 6.2807-0.21846 0.21846-1.0818-1.1053-1.9185-2.9418z" fill="#171c22"/>
  <path d="m92.148 497.58c-3.6667-0.22274-11.467-0.75586-17.333-1.1847l-10.667-0.77972 1.2292-14.908c0.8237-9.9899 0.73414-20.94-0.27145-33.19-1.6178-19.707-1.9414-17.213 5.7325-44.19 3.6142-12.706 3.6678-13.342 1.6273-19.333-1.1604-3.4074-2.7909-13.095-3.6232-21.529-1.5994-16.206-4.6535-32.499-9.9888-53.289-1.7816-6.9422-3.0795-12.782-2.8842-12.977s5.8623 5.7847 12.593 13.289c8.6671 9.6623 12.24 14.639 12.245 17.056 0.0037 1.8765 0.88771 4.5765 1.9644 6 2.2256 2.9424 2.7243 9.9215 0.70907 9.9215-0.73333 0-1.3333 1.8437-1.3333 4.0971v4.0971l-4.9257-4.0602c-2.7092-2.2331-5.1466-3.8394-5.4165-3.5694-0.26993 0.26994 2.202 5.8524 5.4932 12.406l5.984 11.915 1.978 39.224 1.978 39.224 10.788 25.242c5.9334 13.883 10.788 25.733 10.788 26.333 0 1.0519-2.2686 1.0798-16.667 0.20519zm117.59-68.781c0.26356-6.05 0.85225-15.5 1.3082-21l0.82903-10 2.4431 10.667c1.3437 5.8667 3.0621 14.384 3.8186 18.927 0.75652 4.5434 1.7334 9.1934 2.1708 10.333 0.64577 1.6828-0.3183 2.0726-5.1268 2.0726h-5.9222zm2.7858-60.026 0.5423-14.974-27.067-64c-14.887-35.2-27.688-64.425-28.446-64.944-0.75815-0.51925-9.9185-4.0414-20.356-7.8269l-18.978-6.8828-14.367 5.7098c-7.9019 3.1404-17.197 7.1125-20.656 8.8269s-6.759 3.0872-7.3333 3.0505c-0.57438-0.0367 3.5832-2.4326 9.239-5.3243 8.0631-4.1225 11.464-6.821 15.75-12.499 3.1054-4.113 7.1589-7.8309 9.3833-8.6063 4.4768-1.5606 4.5824-1.8591 2.0812-5.8842-1.4112-2.2709-6.2697-30.531-6.1813-35.953 0.0262-1.6032-5.8708-1.1567-11.649 0.88195l-5.334 1.8819-3.8322-5.0947c-3.8049-5.0583-7.6396-6.606-16.502-6.6602-1.8333-0.0112-6.0333-1.8152-9.3333-4.009l-6-3.9886 18.955-5e-3c15.013-4e-3 19.935-0.47299 23.667-2.2526 2.5915-1.2362 4.7119-2.6215 4.7119-3.0788s2.1-4.3189 4.6667-8.5812c3.2949-5.4717 4.6667-9.3413 4.6667-13.164 0-7.4196 5.2561-26.317 7.5664-27.203 3.4674-1.3306 3.4524 0.76926-0.0683 9.5638-4.4403 11.092-4.3893 12.193 0.40627 8.7782 2.5532-1.8181 5.2064-5.9965 7.6667-12.074 3.0843-7.6193 4.3029-9.2972 6.7623-9.3106 1.65-0.0091 3.0216 0.43357 3.048 0.98357 0.0264 0.55 1.3764 2.6065 3 4.5701l2.952 3.5701 37.124-2.3353 10.156 8.0435 0.36011 27.576 0.3601 27.576 22 1.855c12.1 1.0202 22.169 1.989 22.375 2.1527 0.20624 0.16378-0.69376 2.1753-2 4.4699-2.7746 4.8742-3.235 4.9204-27.242 2.7296-8.7958-0.80265-16.284-1.1675-16.641-0.81077s0.28656 2.8867 1.4295 5.6222c2.7289 6.5312 2.6487 7.1637-1.0894 8.5849-2.4625 0.93626-3.3707 2.5594-4.0806 7.2929l-0.91304 6.0886-4.0433-2.0909c-2.2238-1.15-4.294-1.8402-4.6003-1.5339-0.77098 0.77099 2.3117 9.0924 7.8032 21.064 4.9459 10.782 2.9149 8.8416 31.334 29.937 8.4864 6.2993 25.03 26.051 27.133 32.395 2.2468 6.7767 0.45535 6.5397-2.1509-0.28453-1.7382-4.5515-5.6835-9.161-16.141-18.859-7.6124-7.059-13.841-12.25-13.841-11.535 0 0.71492 3.0452 15.315 6.7671 32.444 5.842 26.887 7.096 35.383 9.173 62.148 1.5058 19.404 3.0258 31.75 4.0628 33 1.4107 1.6998 1.0452 1.9965-2.4594 1.9965-2.8922 0-4.5892-0.88347-5.7063-2.9708-1.4847-2.7742-1.8036-2.3996-4.8174 5.6594-1.7751 4.7466-3.3689 8.7716-3.5418 8.9445-0.17286 0.17285-0.0703-6.4239 0.228-14.659z"/>
 </g>
 <g transform="matrix(0 0 0 1 5.6102 -.032118)" stroke-width="1.3333">
  <path d="m5.6102 424.5v-441.33h289.33v882.67h-289.33z" fill="#fefefe"/>
  <path d="m9.9435 864.19c0.18333-0.90498 5.2931-8.9552 11.355-17.889 6.062-8.9342 11.921-18.397 13.021-21.028 3.0229-7.2348 9.9574-88.127 9.9574-116.15 0-19.264 0.42686-24.272 2.6667-31.283 1.9357-6.0594 2.67-12.046 2.6788-21.84 0.0067-7.4211 0.56099-24.593 1.2319-38.16 0.67088-13.567 1.4154-37.202 1.6546-52.524l0.4348-27.857-6.2738-1.8324c-7.0704-2.0651-10.387-5.8105-10.405-11.75-0.0067-2.2202-2.7425-12.737-6.0795-23.37-3.3371-10.633-5.8049-20.735-5.4842-22.448 0.32078-1.7131-0.22984-10.105-1.2236-18.649-1.1159-9.5942-1.917-33.386-2.095-62.219-0.26993-43.728-0.09552-47.697 2.7543-62.684 4.3182-22.71 12.326-50.061 21.558-73.637 5.1722-13.208 8.2551-23.226 8.8219-28.667 1.0751-10.32 3.4826-12.873 20.361-21.59 6.5721-3.3944 12.292-6.726 12.711-7.4036 0.41879-0.67763 3.7652-12.213 7.4366-25.634 3.6713-13.421 7.0239-25.542 7.4503-26.935 0.68251-2.23 0.23899-2.4427-3.7113-1.7801-2.4675 0.4139-5.5443 1.1708-6.8373 1.682-1.7076 0.67514-3.7142-0.53608-7.3333-4.4263-4.2679-4.5876-6.0343-5.4884-12.316-6.28-8.687-1.0949-20-7.5821-20-11.469 0-2.3612 1.2318-2.5277 18.709-2.5277 18.319 0 27.957-1.7636 27.957-5.1157 0-0.68847 2.1-4.3046 4.6667-8.0359 3.7814-5.4971 4.6667-8.0283 4.6667-13.343 0-6.5682 4.4187-23.373 6.9695-26.506 1.7186-2.1107 9.0305-2.1924 9.0305-0.10092 0 0.86116 1.3887 0.26116 3.0859-1.3333 4.2755-4.0166 8.2489-3.6247 12.57 1.24l3.6769 4.1391 37.333-1.8245 11.333 9.7542v53.005l4.3333 0.69146c2.3833 0.3803 12.133 1.3636 21.667 2.1852s17.859 1.9936 18.502 2.6047c1.7985 1.7092-0.0637 7.1102-3.8664 11.213-2.8094 3.0314-4.1995 3.5622-7.6988 2.9398-2.3487-0.41777-10.488-1.1696-18.087-1.6708l-13.817-0.91128 0.74552 3.8676c0.41004 2.1272 2.342 13.687 4.2933 25.688 4.4623 27.446 6.0947 31.246 16.711 38.906 11.321 8.1672 25.206 25.38 31.97 39.63 18.654 39.304 26.546 84.94 26.611 153.88 0.0239 25.25 0.60749 36.268 2.636 49.764 2.8509 18.967 3.4524 43.784 1.2532 51.703-3.1026 11.172-12.336 17.1-23.402 15.024-8.0902-1.5177-10.63-5.3048-11.709-17.458-3.0706-34.591-7.9343-66.767-13.393-88.602-4.5357-18.144-6.0372-22.534-6.7506-19.74-0.50463 1.9764-0.32119 6.4764 0.40765 10 0.72884 3.5236 1.0254 8.3028 0.65903 10.621-0.38545 2.4384 0.75072 9.1801 2.6964 16 2.3016 8.0672 3.6295 16.834 4.2086 27.786 0.4653 8.8 1.6968 25.9 2.7366 38 2.7995 32.576 5.9599 80.563 5.9599 90.495 0 5.313 1.2459 12.881 3.1997 19.437 2.4844 8.3356 3.3973 15.356 4.0834 31.402 0.486 11.367 1.7461 31.453 2.8003 44.636 1.0542 13.183 1.9231 29.383 1.9311 36 8e-3 7.182 0.85909 14.717 2.1103 18.697 1.5377 4.8912 2.2729 14.656 2.7606 36.667 0.36559 16.5 1.2576 31.935 1.9823 34.301 0.97022 3.1667 5.1243 7.3284 15.755 15.784 11.57 9.2024 14.862 12.595 16.574 17.077 1.1749 3.0764 2.1362 6.9235 2.1362 8.5489v2.9554h-36.095c-28.311 0-36.479-0.3836-37.874-1.7787-1.3338-1.3338-1.7268-6.4198-1.5714-20.333 0.18377-16.454-0.1248-19.32-2.725-25.311-1.6127-3.716-3.5889-12.116-4.3914-18.667-2.8677-23.406-14.543-87.877-21.475-118.58-2.1523-9.5333-6.5997-25.433-9.883-35.333-3.2833-9.9-7.1187-23.272-8.523-29.716-2.9898-13.718-4.7013-16.715-12.682-22.206-6.1975-4.264-11.084-5.0798-15.683-2.6183-3.8247 2.0469-20.771 37.618-22.574 47.383-0.79438 4.3032-3.1716 12.924-5.2827 19.157-2.2218 6.5601-4.371 16.668-5.103 24-0.69554 6.9667-4.3018 27.067-8.014 44.667-5.1621 24.474-7.0041 36.396-7.8326 50.694-1.0681 18.433-1.1524 18.806-6.0296 26.708-7.8199 12.669-8.7704 20.016-5.2644 40.692 1.6071 9.4775 2.576 18.134 2.1531 19.236-0.6582 1.7152-6.027 2.0037-37.293 2.0037-28.259 0-36.449-0.37235-36.191-1.6454zm53.957-411.34c-0.30647-2.0267-0.56541-0.685-0.57542 2.9817-0.01 3.6667 0.24074 5.3249 0.55722 3.685 0.31648-1.6399 0.32467-4.6399 0.0182-6.6667z" fill="#d8e2e6"/>
  <path d="m10.787 863.46c0.6988-1.3057 6.3843-9.9594 12.634-19.23s11.972-19.153 12.714-21.959c2.5048-9.4648 9.4803-96.423 9.4773-118.15-0.0023-16.456 0.46717-22.123 2.1536-26 1.696-3.8986 2.3901-12.502 3.2507-40.291 0.6018-19.433 1.4183-39.533 1.8145-44.667 0.39615-5.1333 0.81287-19.77 0.92603-32.527l0.20575-23.193-6.4295-2.4406c-8.3345-3.1637-9.958-4.9291-10.558-11.48-0.27218-2.9735-2.9409-13.189-5.9306-22.701-5.8656-18.662-6.3267-21.4-3.769-22.383 2.4007-0.9228 2.4007-77.326 0-81.521-2.6733-4.6713-1.967-6.9264 2.7921-8.9148 4.2391-1.7712 4.5387-2.3585 6.0815-11.922 0.8925-5.5326 2.3511-10.664 3.2413-11.403 0.89018-0.73878 4.8001-1.7653 8.6887-2.2811 8.3918-1.1132 8.0449-0.4684 12.143-22.572l2.9678-16.006-6.0637-23.994c-6.0455-23.923-6.0601-24.036-4.8793-37.994 0.65143-7.7 1.9012-19.537 2.7772-26.305 1.8593-14.365 1.6088-14.084 22.926-25.736 14.531-7.9423 15.721-8.8852 22.325-17.679 2.5667-3.418 5.7715-6.5872 7.1219-7.0426 1.7628-0.59455 2.2268-1.6378 1.6452-3.6995-0.44549-1.5793-1.816-9.7715-3.0456-18.205-1.2296-8.4333-2.3845-15.548-2.5664-15.81-0.18195-0.26222-3.4417 0.32054-7.2439 1.295l-6.9131 1.7718-4.3316-5.1594c-3.8375-4.5709-5.2633-5.2869-12.5-6.2765-9.2592-1.2663-18.833-6.6878-18.833-10.665 0-2.3156 1.3461-2.4895 19.271-2.4895 10.599 0 20.649-0.62853 22.333-1.3968 1.6845-0.76821 5.4003-5.1182 8.2574-9.6667 4.3376-6.9054 5.3603-9.9199 6.1985-18.27 1.0849-10.808 4.3619-21.584 7.3067-24.028 1.0147-0.84212 3.1253-1.1178 4.7093-0.61504 2.3758 0.75404 2.7429 1.6347 2.1304 5.1102-0.68503 3.8868-0.52716 3.7777 2.1229-1.4676 2.4459-4.8411 3.468-5.6667 7.0162-5.6667 3.0584 0 4.9243 1.0429 7.0781 3.9561l2.9249 3.9561 17.12-0.81892c19.868-0.95033 22.04-0.56486 27.865 4.9435l4.3333 4.0983v26.599c0 24.127 0.21027 26.599 2.2627 26.599 3.4867 0 32.527 2.6691 37.404 3.4378 5.3613 0.84504 5.8101 4.7001 1.2154 10.442l-3.1046 3.88-18.337-1.6535c-10.086-0.9094-18.555-1.436-18.821-1.1703-0.26573 0.26574 0.0323 2.8638 0.66216 5.7735 0.62994 2.9097 2.4923 13.99 4.1385 24.624 4.278 27.632 5.8002 31.154 17.129 39.632 19.076 14.276 32.297 35.205 42.766 67.701 10.541 32.719 14.671 66.524 14.679 120.15 4e-3 26.753 0.53847 36.935 2.658 50.667 3.1985 20.723 3.6552 51.606 0.86208 58.291-1.0003 2.394-3.7463 5.9748-6.1023 7.9572-3.4733 2.9226-5.6174 3.6044-11.335 3.6044-9.9143 0-13.648-3.1489-14.653-12.357-6.7558-61.933-7.8046-69.016-13.524-91.335-3.2454-12.664-5.9189-24.664-5.9412-26.667-0.0339-3.0455-0.25648-3.2709-1.3605-1.3777-2.3425 4.0169-0.57044 33.981 2.5865 43.736 1.9778 6.1115 3.1968 14.956 4.1349 30 0.73164 11.733 2.5252 35.433 3.9858 52.667 1.4605 17.233 3.0265 42.433 3.4799 56 0.69356 20.751 1.3358 26.331 4.0453 35.151 2.64 8.594 3.4615 15.327 4.5551 37.333 0.73383 14.767 1.917 33.449 2.6292 41.515 0.71222 8.0667 1.3001 21.641 1.3063 30.166 8e-3 11.091 0.634 17.158 2.2007 21.333 1.7024 4.5369 2.3816 13.098 3.0542 38.501 0.62008 23.419 1.3796 33.699 2.683 36.315 0.99997 2.0066 7.9483 8.4486 15.441 14.316 11.312 8.8578 14.104 11.786 16.461 17.266 4.9798 11.576 7.4667 10.771-33.257 10.771-30.6 0-36.405-0.31016-38.132-2.0372-1.7691-1.7691-1.825-3.5318-0.42524-13.393 1.8462-13.006 0.92903-23.433-2.8033-31.871-1.4197-3.2094-3.4885-12.33-4.5975-20.267-7.8679-56.317-22.2-126.4-31.31-153.1-3.0024-8.8-6.6585-21.385-8.1246-27.967-3.2037-14.383-5.9741-19.209-14.126-24.608-6.6969-4.4358-11.63-5.1393-15.755-2.2465-4.2874 3.0066-21.84 40.276-23.308 49.489-0.70104 4.4-3.0734 13.1-5.2719 19.333s-4.0136 13.733-4.0336 16.667c-0.0512 7.5092-1.8822 18.134-9.306 54-4.8378 23.373-6.6647 35.44-7.1904 47.499-0.70328 16.131-0.71805 16.191-7.0121 28.251-6.0611 11.613-6.2991 12.492-6.0953 22.501 0.11663 5.7289 1.3053 15.865 2.6415 22.525 1.3362 6.6597 2.1957 12.81 1.91 13.667-0.3794 1.1382-10.384 1.5582-37.122 1.5582-34.685 0-36.536-0.12435-35.332-2.374zm53.444-401.82c0.61971-4.6613 0.70948-11.175 0.1995-14.475-0.89441-5.7875-0.96077-5.627-1.8739 4.5345-1.7845 19.858-0.58826 26.96 1.6744 9.9406z" fill="#cfd1d0"/>
  <path d="m11.114 863.28c9.6302-13.465 21.359-31.206 23.76-35.94 2.5513-5.0301 3.4901-11.808 6.8334-49.333 2.4712-27.737 3.8805-52.028 3.8889-67.028 0.0108-19.198 0.47824-25.085 2.5407-32 2.674-8.9653 2.935-13.735 5.4534-99.702 0.67503-23.042 0.96212-42.324 0.63799-42.849-0.32413-0.52445-2.763-1.3613-5.4197-1.8597-6.5001-1.2194-11.192-6.0973-11.225-11.669-0.01404-2.4167-2.414-11.894-5.3331-21.061-6.1829-19.415-6.4895-21.888-2.5592-20.641 2.4808 0.78736 2.6817 0.43852 2.0602-3.5768-1.7867-11.543-2.1953-37.141-0.81063-50.778 1.4474-14.254 0.885-23.271-2.0364-32.648-0.7499-2.407-0.25659-3.2312 2.5793-4.3094 3.9814-1.5137 5.3992-4.4934 6.7144-14.111 1.258-9.1991 2.0821-10.124 10.153-11.4 3.8686-0.61155 7.6009-1.679 8.2941-2.3722 0.69316-0.69316 2.3322-6.5636 3.6422-13.045 4.7204-23.355 4.7247-23.232-1.7074-48.578l-5.8891-23.207 1.6926-21.333c2.4658-31.08 2.6461-31.922 7.6243-35.624 2.3473-1.7458 10.737-6.7431 18.644-11.105 11.882-6.5551 15.409-9.2617 20.332-15.601 3.2759-4.2184 6.9268-7.6698 8.113-7.6698 1.6738 0 1.963-0.82108 1.2913-3.6667-0.47607-2.0167-1.8969-10.668-3.1574-19.224s-2.7084-15.974-3.2176-16.483-3.7209 0.0265-7.137 1.1906l-6.2112 2.1164-5.3254-5.2202c-4.4047-4.3177-6.5664-5.3752-12.504-6.1171-7.6161-0.95158-20.003-7.5918-18.55-9.9436 0.47274-0.76491 8.4799-1.3207 19.07-1.3236 20.585-5e-3 24.844-1.4138 29.045-9.6027 1.2393-2.4158 3.3684-5.8232 4.7314-7.5721 1.5716-2.0166 2.4781-5.3604 2.4781-9.1409 0-7.0564 3.3972-21.105 6.1289-25.346 2.3902-3.7104 7.2044-4.0419 7.2044-0.49617 0 1.3771-0.93139 4.733-2.0698 7.4574-3.8518 9.2186-0.92461 8.1073 3.4102-1.2946 5.9848-12.981 8.3305-14.109 14.843-7.1373l3.9197 4.1961 36.589-1.811 11.308 8.3163v26.58c0 26.317 0.0297 26.592 3 27.791 1.65 0.6662 11.4 1.9012 21.667 2.7445 10.267 0.84327 19.168 2.0164 19.78 2.6069 1.4618 1.4096-2.4919 8.9785-5.4606 10.454-1.3346 0.66313-9.5662 0.5188-19.385-0.33992-9.3858-0.82087-17.342-1.2152-17.681-0.87632-2.0349 2.0349 6.991 53.016 10.527 59.457 1.659 3.0224 6.7444 8.1972 11.793 12 18.547 13.972 31.061 34.32 42.24 68.686 9.6726 29.734 14.854 73.406 14.854 125.2 0 25.566 0.54064 35.216 2.7788 49.602 3.5694 22.943 3.173 45.937-0.92805 53.84-3.6468 7.0272-10.623 10.608-18.395 9.4428-9.9052-1.4854-10.06-1.9282-14.362-41.076-3.0552-27.806-5.0559-39.952-9.7206-59.012-3.2305-13.2-6.2752-27.206-6.766-31.124-1.2291-9.8127-3.101-6.9613-3.366 5.1273-0.45482 20.751 0.23946 28.73 3.4693 39.871 1.8607 6.4182 3.2965 14.843 3.3066 19.402 9e-3 4.4317 1.4717 25.458 3.2487 46.724 1.7769 21.267 3.9451 52.167 4.818 68.667 1.3039 24.644 2.1521 31.857 4.7514 40.402 2.2043 7.2466 3.1641 13.652 3.1641 21.115 0 5.8919 1.1869 27.311 2.6376 47.598 1.4507 20.287 2.8628 41.685 3.1379 47.552 0.27515 5.8667 1.2275 13.067 2.1164 16 0.97858 3.2294 1.8253 17.288 2.1464 35.638 0.40383 23.079 0.99174 31.186 2.4656 34 2.2718 4.3379 7.3898 9.2106 20.021 19.061 7.1738 5.5947 9.8813 8.7279 12.333 14.272 1.728 3.9073 3.1418 7.687 3.1418 8.3994 0 0.80608-13.536 1.2953-35.837 1.2953-31.069 0-36.07-0.28093-37.589-2.1114-1.4113-1.7005-1.4617-4.4897-0.25895-14.333 1.59-13.013 0.65937-23.16-2.7291-29.76-2.0964-4.0833-4.233-14.029-5.5412-25.795-1.3731-12.349-13.829-81.484-18.808-104.39-2.584-11.887-7.6148-30.614-11.18-41.614-3.5649-11-7.5156-24.8-8.7793-30.667-2.8233-13.107-4.3783-16.274-10.868-22.138-7.7079-6.9636-12.315-8.4948-18.182-6.0432-4.3493 1.8172-5.6517 3.7989-14.3 21.757-6.2384 12.954-10.139 22.972-11.327 29.091-0.99643 5.1333-3.362 13.833-5.2568 19.333s-3.9761 15.4-4.6251 22c-0.64905 6.6-4.2862 26.7-8.0827 44.667-5.3724 25.425-7.1099 36.657-7.8377 50.667l-0.93514 18-5.7574 10.404c-7.3952 13.364-8.1452 20.874-4.2472 42.534 1.5445 8.5822 2.8083 16.232 2.8083 17 0 0.93865-12.064 1.3959-36.829 1.3959-36.053 0-36.791-0.0539-35-2.5577zm52.636-394.38c1.9657-8.354 2.3256-26.078 0.61731-30.395-1.2911-3.2624-2.2811 3.8115-3.5455 25.333-0.92599 15.762 0.02401 17.404 2.9282 5.0615z" fill="#cfcd59"/>
  <path d="m11.114 863.28c9.6302-13.465 21.359-31.206 23.76-35.94 2.5513-5.0301 3.4901-11.808 6.8334-49.333 2.4712-27.737 3.8805-52.028 3.8889-67.028 0.0108-19.198 0.47824-25.085 2.5407-32 2.674-8.9653 2.935-13.735 5.4534-99.702 0.67503-23.042 0.96212-42.324 0.63799-42.849-0.32413-0.52445-2.763-1.3613-5.4197-1.8597-6.5001-1.2194-11.192-6.0973-11.225-11.669-0.01404-2.4167-2.414-11.894-5.3331-21.061-5.8852-18.48-6.4341-22.051-3.199-20.809 1.16 0.44513 2.36 0.80932 2.6667 0.80932 0.30669 0 0.56681 1.05 0.57804 2.3333 0.0132 1.5049 0.3682 1.787 1 0.7944 0.53877-0.84641 0.45795-10.746-0.17961-22-0.7307-12.898-0.65814-26.129 0.19628-35.794 1.2267-13.877 0.5985-26.542-1.5873-32-0.5189-1.2957 0.48274-2.7163 2.8445-4.0342 3.1417-1.7531 3.926-3.4993 5.6756-12.637l2.0301-10.603 7.7718-1.3629c4.3919-0.77017 8.2309-2.2327 8.8274-3.3629 1.7538-3.3228 4.4205-19.823 3.5643-22.055-0.43979-1.1461-0.3181-1.7862 0.27043-1.4225 0.58853 0.36373 1.1346-3.3551 1.2135-8.2641 0.10361-6.4463-1.4364-15.221-5.5444-31.592l-5.6878-22.667 1.6926-21.333c2.4658-31.08 2.6461-31.922 7.6243-35.624 2.3473-1.7458 10.737-6.7431 18.644-11.105 11.882-6.5551 15.409-9.2617 20.332-15.601 3.2759-4.2184 6.9268-7.6698 8.113-7.6698 1.6738 0 1.963-0.82108 1.2913-3.6667-0.47607-2.0167-1.8969-10.668-3.1574-19.224s-2.7084-15.974-3.2176-16.483-3.7209 0.0265-7.137 1.1906l-6.2112 2.1164-5.3254-5.2202c-4.4047-4.3177-6.5664-5.3752-12.504-6.1171-7.6161-0.95158-20.003-7.5918-18.55-9.9436 0.47274-0.76491 8.4799-1.3207 19.07-1.3236 20.585-5e-3 24.844-1.4138 29.045-9.6027 1.2393-2.4158 3.3684-5.8232 4.7314-7.5721 1.5716-2.0166 2.4781-5.3604 2.4781-9.1409 0-7.0564 3.3972-21.105 6.1289-25.346 2.3902-3.7104 7.2044-4.0419 7.2044-0.49617 0 1.3771-0.93139 4.733-2.0698 7.4574-3.8518 9.2186-0.92461 8.1073 3.4102-1.2946 5.9848-12.981 8.3305-14.109 14.843-7.1373l3.9197 4.1961 36.589-1.811 11.308 8.3163v26.58c0 26.317 0.0297 26.592 3 27.791 1.65 0.6662 11.4 1.9012 21.667 2.7445 10.267 0.84327 19.168 2.0164 19.78 2.6069 1.4618 1.4096-2.4919 8.9785-5.4606 10.454-1.3346 0.66313-9.5662 0.5188-19.385-0.33992-9.3858-0.82087-17.342-1.2152-17.681-0.87632-2.0349 2.0349 6.991 53.016 10.527 59.457 1.659 3.0224 6.7444 8.1972 11.793 12 18.547 13.972 31.061 34.32 42.24 68.686 9.6726 29.734 14.854 73.406 14.854 125.2 0 25.566 0.54064 35.216 2.7788 49.602 3.5694 22.943 3.173 45.937-0.92805 53.84-3.6468 7.0272-10.623 10.608-18.395 9.4428-9.9052-1.4854-10.06-1.9282-14.362-41.076-3.0552-27.806-5.0559-39.952-9.7206-59.012-3.2305-13.2-6.2752-27.206-6.766-31.124-1.2291-9.8127-3.101-6.9613-3.366 5.1273-0.45482 20.751 0.23946 28.73 3.4693 39.871 1.8607 6.4182 3.2965 14.843 3.3066 19.402 9e-3 4.4317 1.4717 25.458 3.2487 46.724 1.7769 21.267 3.9451 52.167 4.818 68.667 1.3039 24.644 2.1521 31.857 4.7514 40.402 2.2043 7.2466 3.1641 13.652 3.1641 21.115 0 5.8919 1.1869 27.311 2.6376 47.598 1.4507 20.287 2.8628 41.685 3.1379 47.552 0.27515 5.8667 1.2275 13.067 2.1164 16 0.97858 3.2294 1.8253 17.288 2.1464 35.638 0.40383 23.079 0.99174 31.186 2.4656 34 2.2718 4.3379 7.3898 9.2106 20.021 19.061 7.1738 5.5947 9.8813 8.7279 12.333 14.272 1.728 3.9073 3.1418 7.687 3.1418 8.3994 0 0.80608-13.536 1.2953-35.837 1.2953-31.069 0-36.07-0.28093-37.589-2.1114-1.4113-1.7005-1.4617-4.4897-0.25895-14.333 1.59-13.013 0.65937-23.16-2.7291-29.76-2.0964-4.0833-4.233-14.029-5.5412-25.795-1.3731-12.349-13.829-81.484-18.808-104.39-2.584-11.887-7.6148-30.614-11.18-41.614-3.5649-11-7.5156-24.8-8.7793-30.667-2.8233-13.107-4.3783-16.274-10.868-22.138-7.7079-6.9636-12.315-8.4948-18.182-6.0432-4.3493 1.8172-5.6517 3.7989-14.3 21.757-6.2384 12.954-10.139 22.972-11.327 29.091-0.99643 5.1333-3.362 13.833-5.2568 19.333s-3.9761 15.4-4.6251 22c-0.64905 6.6-4.2862 26.7-8.0827 44.667-5.3724 25.425-7.1099 36.657-7.8377 50.667l-0.93514 18-5.7574 10.404c-7.3952 13.364-8.1452 20.874-4.2472 42.534 1.5445 8.5822 2.8083 16.232 2.8083 17 0 0.93865-12.064 1.3959-36.829 1.3959-36.053 0-36.791-0.0539-35-2.5577zm52.636-394.38c1.9657-8.354 2.3256-26.078 0.61731-30.395-1.2911-3.2624-2.2811 3.8115-3.5455 25.333-0.92599 15.762 0.02401 17.404 2.9282 5.0615z" fill="#a1a2a3"/>
  <path d="m12.52 862.17c5.4296-5.841 22.786-32.525 24.64-37.881 2.6731-7.724 9.7819-92.925 9.8014-117.47 0.01417-17.841 0.48294-23.132 2.6667-30.098 2.0507-6.542 2.6552-12.267 2.6749-25.333 0.014-9.2847 0.56643-27.081 1.2276-39.548 0.66119-12.467 1.3997-34.64 1.6412-49.273l0.43905-26.607-5.8649-1.6994c-7.4639-2.1628-10.802-5.1999-10.802-9.8288 0-2.0139-2.4-11.354-5.3333-20.757-2.9333-9.4023-5.3333-17.862-5.3333-18.798 0-2.0929 2.1789-2.2379 3.4213-0.22766 2.138 3.4593 2.5164-2.3204 1.4195-21.681-0.7307-12.898-0.65814-26.129 0.19628-35.794 1.2267-13.877 0.5985-26.542-1.5873-32-0.5189-1.2957 0.48274-2.7163 2.8445-4.0342 3.1417-1.7531 3.926-3.4993 5.6756-12.637l2.0301-10.603 7.7718-1.3629c4.4068-0.77279 8.2228-2.2288 8.8134-3.3629 1.3222-2.5388 3.7008-15.049 5.3601-28.192 1.2216-9.6757 1-11.373-4.3765-33.521l-5.6632-23.33 1.7095-24.479c0.94024-13.463 2.014-25.793 2.3861-27.399 0.69624-3.0057 7.1203-7.495 26.938-18.825 7.6911-4.397 12.558-8.3115 16.389-13.182 2.9974-3.8104 6.6794-7.3182 8.1823-7.7952 2.0671-0.65608 2.5176-1.5665 1.8499-3.7387-0.73558-2.393-5.7716-32.669-5.9668-35.871-0.0902-1.4792-5.7171-1.2136-10.639 0.50235-4.0719 1.4195-4.616 1.208-9.8656-3.8346-4.6687-4.4846-6.7076-5.4638-12.766-6.1311-7.5039-0.82645-18.232-6.5367-16.758-8.9203 0.44444-0.71912 8.6979-1.283 18.78-1.283 20.054 0 24.356-1.2337 27.848-7.9858 1.1208-2.1674 3.5309-6.1409 5.3559-8.8302 2.494-3.6752 3.3181-6.6297 3.3181-11.896 0-8.1965 4.5407-24.032 7.1816-25.045 3.8912-1.4932 4.7088 1.9365 2.0623 8.6506-2.9462 7.4747-3.1536 9.1067-1.1572 9.1067 0.78105 0 3.4992-4.5 6.0404-10 5.3359-11.549 8.2858-12.783 14.333-5.9959l3.5677 4.0041 37.972-1.637 10 9.3218v26.075c0 14.341 0.45 26.349 1 26.684 0.55 0.33478 7.9 1.28 16.333 2.1004 29.733 2.8926 29.843 2.9403 23.595 10.204l-3.072 3.5714-15.332-1.4971c-23.431-2.288-23.049-2.3376-21.871 2.8362 0.5423 2.3833 1.1398 7.0333 1.3277 10.333 0.18792 3.3 1.6826 13.688 3.3214 23.084 3.6863 21.135 6.5041 26.603 18.097 35.115 12.022 8.827 24.42 24.998 31.624 41.245 18.01 40.62 24.95 81.695 24.987 147.89 0.0149 26.555 0.55813 36.828 2.6713 50.519 3.5452 22.969 3.5912 48.619 0.10093 56.304-3.2734 7.2082-7.2618 9.8433-14.899 9.8433-9.616 0-12.69-3.1857-13.805-14.306-4.3167-43.06-7.9967-67.966-12.76-86.361-2.8485-11-5.8195-24.759-6.6022-30.576-0.78266-5.8167-1.6998-10.853-2.038-11.191-1.9287-1.9287-4.6048 21.577-3.1557 27.719 0.61186 2.593 0.76767 7.1573 0.34627 10.143-0.53304 3.7764 0.25631 8.848 2.594 16.667 2.2252 7.4426 3.643 16.192 4.1976 25.905 0.46055 8.0667 1.7061 25.167 2.7679 38 3.4204 41.34 5.8829 79.05 5.8944 90.265 8e-3 7.7896 0.93948 13.921 3.2412 21.333 2.4523 7.8975 3.4372 14.897 4.0907 29.069 0.4734 10.267 1.7157 30.067 2.7606 44 1.0449 13.933 1.9128 31.333 1.9287 38.667 0.0191 8.8401 0.75426 15.355 2.1815 19.333 1.6535 4.6085 2.3447 13.631 2.9806 38.905 0.97068 38.581-0.47427 34.786 19.455 51.095 11.113 9.094 13.485 11.748 16.088 18l3.0529 7.3333-35.551 0.35627c-40.736 0.40824-39.808 0.66089-37.92-10.327 0.56978-3.316 1.036-11.429 1.036-18.029 0-9.5964-0.58649-13.235-2.928-18.166-1.6104-3.3911-3.6018-11.491-4.4252-18-2.408-19.034-14.349-85.776-20.008-111.83-2.8669-13.2-7.3437-30.299-9.9484-37.997-5.4343-16.061-9.1703-29.332-11.359-40.35-1.6692-8.4029-5.3881-13.746-13.817-19.852-6.3823-4.6233-12.403-4.9173-17.564-0.85768-5.12 4.0274-21.735 38.8-23.36 48.888-0.67372 4.1834-2.7775 12.083-4.6751 17.554-1.8976 5.4712-4.2561 16.548-5.2412 24.614-0.9851 8.0667-4.6182 27.867-8.0735 44-4.5787 21.379-6.7017 34.969-7.8286 50.114-1.4711 19.771-1.7498 21.099-5.7377 27.333-2.3053 3.6039-5.2357 10.325-6.512 14.935-2.2561 8.1501-2.2387 8.8816 0.6284 26.354 1.6219 9.8843 3.2907 18.862 3.7083 19.951 0.66024 1.7206-4.0805 1.979-36.299 1.979h-37.059zm51.19-388.33c2.659-10.825 3.191-36.576 0.80486-38.962-2.0012-2.0012-2.6236 1.5865-4.2151 24.296-0.79659 11.367-1.7663 21.711-2.1549 22.988s-0.2848 3.0038 0.23068 3.8379c1.3344 2.1592 2.4316-0.34174 5.3344-12.159zm9.4779-98.917c-0.42563-1.0636-0.74158-0.74771-0.80556 0.80556-0.05789 1.4056 0.25724 2.193 0.70029 1.75 0.44305-0.44305 0.49042-1.5931 0.10527-2.5556z" fill="#ceca3c"/>
  <path d="m12.52 862.17c5.4296-5.841 22.786-32.525 24.64-37.881 2.6731-7.724 9.7819-92.925 9.8014-117.47 0.01417-17.841 0.48294-23.132 2.6667-30.098 2.0507-6.542 2.6552-12.267 2.6749-25.333 0.014-9.2847 0.56643-27.081 1.2276-39.548 0.66119-12.467 1.3997-34.64 1.6412-49.273l0.43905-26.607-5.8649-1.6994c-7.4639-2.1628-10.802-5.1999-10.802-9.8288 0-2.0139-2.4-11.354-5.3333-20.757-4.7692-15.287-6.0443-20.514-5-20.496 0.18333 3e-3 3.285 1.5031 6.8926 3.3333 9.1869 4.6608 9.7438 4.4529 9.8361-3.6722 0.04373-3.85 0.7611-11.2 1.5942-16.333 0.90138-5.5544 1.1446-13.807 0.60071-20.383-0.78703-9.5152-0.58672-11.411 1.4425-13.653 2.2841-2.5239 2.2099-2.6651-2.4137-4.5969-2.6236-1.0962-5.1546-2.6151-5.6244-3.3754-0.46986-0.76025 2.3995-5.7193 6.3764-11.02 12.056-16.07 11.703-14.741 5.5967-21.067-5.1378-5.3222-5.219-5.5473-2.6345-7.3066 7.7542-5.2782 7.5703-4.857 10.199-23.365 5.6255-39.609 5.6812-34.279-0.63024-60.279l-5.6632-23.33 1.7095-24.479c0.94024-13.463 2.014-25.793 2.3861-27.399 0.69624-3.0057 7.1203-7.495 26.938-18.825 7.6911-4.397 12.558-8.3115 16.389-13.182 2.9974-3.8104 6.6794-7.3182 8.1823-7.7952 2.0671-0.65608 2.5176-1.5665 1.8499-3.7387-0.73558-2.393-5.7716-32.669-5.9668-35.871-0.0902-1.4792-5.7171-1.2136-10.639 0.50235-4.0719 1.4195-4.616 1.208-9.8656-3.8346-4.6687-4.4846-6.7076-5.4638-12.766-6.1311-7.5039-0.82645-18.232-6.5367-16.758-8.9203 0.44444-0.71912 8.6979-1.283 18.78-1.283 20.054 0 24.356-1.2337 27.848-7.9858 1.1208-2.1674 3.5309-6.1409 5.3559-8.8302 2.494-3.6752 3.3181-6.6297 3.3181-11.896 0-8.1965 4.5407-24.032 7.1816-25.045 3.8912-1.4932 4.7088 1.9365 2.0623 8.6506-2.9462 7.4747-3.1536 9.1067-1.1572 9.1067 0.78105 0 3.4992-4.5 6.0404-10 5.3359-11.549 8.2858-12.783 14.333-5.9959l3.5677 4.0041 37.972-1.637 10 9.3218v26.075c0 14.341 0.45 26.349 1 26.684 0.55 0.33478 7.9 1.28 16.333 2.1004 29.733 2.8926 29.843 2.9403 23.595 10.204l-3.072 3.5714-15.332-1.4971c-23.431-2.288-23.049-2.3376-21.871 2.8362 0.5423 2.3833 1.1398 7.0333 1.3277 10.333 0.18792 3.3 1.6826 13.688 3.3214 23.084 3.6863 21.135 6.5041 26.603 18.097 35.115 12.022 8.827 24.42 24.998 31.624 41.245 18.01 40.62 24.95 81.695 24.987 147.89 0.0149 26.555 0.55813 36.828 2.6713 50.519 3.5452 22.969 3.5912 48.619 0.10093 56.304-3.2734 7.2082-7.2618 9.8433-14.899 9.8433-9.616 0-12.69-3.1857-13.805-14.306-4.3167-43.06-7.9967-67.966-12.76-86.361-2.8485-11-5.8195-24.759-6.6022-30.576-0.78266-5.8167-1.6998-10.853-2.038-11.191-1.9287-1.9287-4.6048 21.577-3.1557 27.719 0.61186 2.593 0.76767 7.1573 0.34627 10.143-0.53304 3.7764 0.25631 8.848 2.594 16.667 2.2252 7.4426 3.643 16.192 4.1976 25.905 0.46055 8.0667 1.7061 25.167 2.7679 38 3.4204 41.34 5.8829 79.05 5.8944 90.265 8e-3 7.7896 0.93948 13.921 3.2412 21.333 2.4523 7.8975 3.4372 14.897 4.0907 29.069 0.4734 10.267 1.7157 30.067 2.7606 44 1.0449 13.933 1.9128 31.333 1.9287 38.667 0.0191 8.8401 0.75426 15.355 2.1815 19.333 1.6535 4.6085 2.3447 13.631 2.9806 38.905 0.97068 38.581-0.47427 34.786 19.455 51.095 11.113 9.094 13.485 11.748 16.088 18l3.0529 7.3333-35.551 0.35627c-40.736 0.40824-39.808 0.66089-37.92-10.327 0.56978-3.316 1.036-11.429 1.036-18.029 0-9.5964-0.58649-13.235-2.928-18.166-1.6104-3.3911-3.6018-11.491-4.4252-18-2.408-19.034-14.349-85.776-20.008-111.83-2.8669-13.2-7.3437-30.299-9.9484-37.997-5.4343-16.061-9.1703-29.332-11.359-40.35-1.6692-8.4029-5.3881-13.746-13.817-19.852-6.3823-4.6233-12.403-4.9173-17.564-0.85768-5.12 4.0274-21.735 38.8-23.36 48.888-0.67372 4.1834-2.7775 12.083-4.6751 17.554-1.8976 5.4712-4.2561 16.548-5.2412 24.614-0.9851 8.0667-4.6182 27.867-8.0735 44-4.5787 21.379-6.7017 34.969-7.8286 50.114-1.4711 19.771-1.7498 21.099-5.7377 27.333-2.3053 3.6039-5.2357 10.325-6.512 14.935-2.2561 8.1501-2.2387 8.8816 0.6284 26.354 1.6219 9.8843 3.2907 18.862 3.7083 19.951 0.66024 1.7206-4.0805 1.979-36.299 1.979h-37.059zm51.19-388.33c2.659-10.825 3.191-36.576 0.80486-38.962-2.0012-2.0012-2.6236 1.5865-4.2151 24.296-0.79659 11.367-1.7663 21.711-2.1549 22.988s-0.2848 3.0038 0.23068 3.8379c1.3344 2.1592 2.4316-0.34174 5.3344-12.159zm9.4779-98.917c-0.42563-1.0636-0.74158-0.74771-0.80556 0.80556-0.05789 1.4056 0.25724 2.193 0.70029 1.75 0.44305-0.44305 0.49042-1.5931 0.10527-2.5556z" fill="#7b7d81"/>
  <path d="m21.692 850.84c17.417-24.695 17.028-23.502 20.834-63.976 1.8114-19.263 3.7634-50.624 4.3377-69.691 0.79238-26.306 1.5472-35.953 3.1298-40 2.0826-5.3256 2.1886-7.507 5.7398-118.21l0.7552-23.541-7.4075-2.1534c-7.8184-2.2729-10.138-4.7595-10.138-10.868 0-1.9868-2.2002-10.726-4.8894-19.421-2.6891-8.6945-4.4755-16.222-3.9697-16.728 0.5058-0.5058 3.756 0.0969 7.2227 1.3395 3.4667 1.2425 6.6741 2.2561 7.1277 2.2525 0.45354-4e-3 0.8604-3.1566 0.90413-7.0066 0.04373-3.85 0.7611-11.2 1.5942-16.333 0.90138-5.5544 1.1446-13.807 0.60071-20.383-0.78703-9.5152-0.58672-11.411 1.4425-13.653 2.2841-2.5239 2.2099-2.6651-2.4137-4.5969-2.6236-1.0962-5.1546-2.6151-5.6244-3.3754-0.46986-0.76025 2.3995-5.7193 6.3764-11.02 12.056-16.07 11.703-14.741 5.5967-21.067-5.1378-5.3222-5.219-5.5473-2.6345-7.3066 7.792-5.304 7.39-4.1519 11.629-33.328l4.0571-27.925-11.393-47.08 1.5743-23.799c0.86588-13.09 1.853-25.116 2.1935-26.725 0.44801-2.1172 5.3171-5.5599 17.612-12.453 13.269-7.4389 18.893-11.509 25.66-18.573 4.7667-4.9756 9.5667-9.3434 10.667-9.7062 1.6115-0.53151 1.6978-1.1734 0.44421-3.3048-0.85568-1.4549-2.5944-9.7833-3.8638-18.508-1.2694-8.7243-3.0655-16.687-3.9913-17.695-1.4254-1.552-2.6471-1.5043-7.9767 0.31164l-6.2935 2.1444-4.8261-5.1847c-4.0878-4.3915-5.9481-5.3301-12.159-6.1346-7.8547-1.0174-13.14-3.1906-15.927-6.5493-1.5577-1.8769 0.06944-2.0936 16.097-2.1438 21.998-0.0689 24.229-1.02 31.786-13.549 4.2372-7.0253 5.3914-10.274 5.4443-15.322 0.0918-8.7546 5.3682-24.928 8.3178-25.496 3.0163-0.58088 2.8991 2.0945-0.43186 9.8654-2.8091 6.5534-1.905 10.454 1.5034 6.4851 1.0323-1.2019 3.6768-5.8773 5.8768-10.39 2.2-4.5125 5.0126-8.3914 6.2502-8.6197 1.2376-0.2283 3.9376 1.4991 6 3.8386l3.7498 4.2537 37.902-1.6821 9.4318 8.2812v26.562c0 26.334 0.0257 26.571 3 27.651 1.65 0.59905 11.345 1.8076 21.545 2.6858 10.2 0.87811 19.048 1.9072 19.662 2.2868 1.4245 0.88041-2.2157 8.022-4.4908 8.8103-0.9438 0.32701-9.516-0.1072-19.049-0.96488-9.5333-0.85769-17.831-1.2878-18.439-0.95587-1.2976 0.70858-0.59704 6.9852 3.9047 34.983 4.0988 25.492 6.1585 29.922 17.898 38.497 11.155 8.1482 24.007 24.151 30.608 38.11 10.97 23.2 20.408 60.342 24.071 94.726 0.78109 7.3333 1.7162 31.033 2.0781 52.667 0.5005 29.923 1.3217 43.959 3.4322 58.667 2.9793 20.762 2.8428 44.839-0.28862 50.905-2.8361 5.494-6.921 9.0347-11.391 9.8732-5.2772 0.99001-13.462-1.4869-15.041-4.5518-0.63103-1.2246-1.5516-7.6266-2.0458-14.227-2.0623-27.546-7.5707-64.453-12.139-81.333-3.7467-13.845-8.4566-39.82-8.688-47.915-0.0223-0.77996-0.57752-0.5014-1.2338 0.61902-2.2045 3.7635-4.2449 28.529-2.8587 34.698 0.85119 3.7883 0.83796 6.6145-0.0387 8.2524-0.98401 1.8386-0.2632 6.3236 2.7526 17.127 2.5622 9.1784 4.0857 17.744 4.0857 22.971 0 4.5844 1.4622 25.716 3.2493 46.958s3.9566 51.823 4.821 67.956c1.2566 23.452 2.2092 31.594 4.7507 40.609 2.2657 8.0365 3.187 14.74 3.2071 23.333 0.0155 6.6317 0.92335 23.458 2.0175 37.391 1.0942 13.933 2.3266 33.433 2.7387 43.333 0.41214 9.9 1.7017 21.9 2.8657 26.667 1.541 6.3105 2.1912 16.487 2.3916 37.43 0.34141 35.674 0.0796 34.965 18.117 49.047 8.311 6.4884 13.854 11.885 15.259 14.857 1.2135 2.5667 2.9997 6.3262 3.9693 8.3546l1.763 3.6879-72.483-0.70919 0.25115-7.3333c1.0192-29.759 0.93291-31.073-2.5828-39.333-2.0292-4.7678-4.0241-13.118-4.9376-20.667-1.542-12.743-8.4952-54.006-13.477-79.976-6.1498-32.061-11.163-52.592-17.913-73.358-3.9331-12.1-7.8332-25.9-8.6669-30.667-1.8954-10.837-6.0292-17.263-14.982-23.292-8.0591-5.4273-10.66-5.7338-16.814-1.9814-3.6324 2.2146-6.2571 6.4614-14.212 22.995-5.8825 12.226-10.133 22.926-10.705 26.945-0.52143 3.6667-2.7005 11.767-4.8424 18-2.242 6.5246-4.396 16.425-5.0767 23.333-0.65031 6.6-4.2764 26.7-8.0579 44.667-5.4574 25.929-7.0755 36.55-7.8454 51.492-0.94047 18.254-1.1027 19.032-5.3441 25.642-5.4141 8.4371-8.1282 17.181-8.1282 26.186 0 7.0264 4.4134 34.113 5.9681 36.629 0.58379 0.94459-10.588 1.3849-35.138 1.3849h-35.994zm42.167-375.76c1.6525-7.6471 3.0174-17.504 3.0329-21.904 0.0366-10.334-1.373-22-2.6582-22-1.8732 0-2.822 4.6276-3.9643 19.333-3.2263 41.536-3.1688 39.725-1.242 39.083 1.1033-0.36775 3.0172-6.1166 4.8316-14.513zm10.138-97.618c0.15414-1.911-0.31974-3.6571-1.0531-3.8803-0.73333-0.22314-1.5234 1.9943-1.7558 4.9276-0.30793 3.8877-0.02249 4.9395 1.0531 3.8803 0.81153-0.79919 1.6016-3.0166 1.7558-4.9276z" fill="#9f9a2e"/>
  <path d="m21.692 850.84c17.417-24.695 17.028-23.502 20.834-63.976 1.8114-19.263 3.7634-50.624 4.3377-69.691 0.79238-26.306 1.5472-35.953 3.1298-40 2.0826-5.3256 2.1886-7.507 5.7398-118.21l0.7552-23.541-7.4075-2.1534c-7.8184-2.2729-10.138-4.7595-10.138-10.868 0-1.9868-2.2002-10.726-4.8894-19.421-2.6891-8.6945-4.5833-16.114-4.2092-16.488 0.37409-0.37409 3.7545 0.59748 7.5121 2.159 8.2934 3.4466 11.157 2.7618 10.158-2.429-0.39354-2.0446 0.19034-10.083 1.2975-17.862 1.5758-11.073 1.7037-16.132 0.58888-23.293-1.3462-8.6471-1.27-9.2499 1.3924-11.018 4.1791-2.7748 3.4325-5.4256-2.1835-7.753-2.75-1.1397-5.2341-2.2931-5.5202-2.5633s1.8229-3.6571 4.6866-7.5265c2.8637-3.8694 6.9461-9.6094 9.0719-12.755l3.8651-5.7201-9.932-10.171 4.71-3.8609 4.71-3.8609 2.7017-21.333c3.6989-29.208 3.5195-33.229-2.5871-58.004l-5.2938-21.478 2.0663-26.926c2.4096-31.398 0.541-28.052 22.521-40.336 9.6737-5.4063 15.712-9.9406 22-16.52 4.7667-4.9877 9.5667-9.3654 10.667-9.7282 1.6115-0.53151 1.6978-1.1734 0.44421-3.3048-0.85568-1.4549-2.5944-9.7833-3.8638-18.508-1.2694-8.7243-3.0655-16.687-3.9913-17.695-1.4254-1.552-2.6471-1.5043-7.9767 0.31164l-6.2935 2.1444-4.8261-5.1847c-4.0878-4.3915-5.9481-5.3301-12.159-6.1346-7.8547-1.0174-13.14-3.1906-15.927-6.5493-1.5577-1.8769 0.06944-2.0936 16.097-2.1438 21.998-0.0689 24.229-1.02 31.786-13.549 4.2372-7.0253 5.3914-10.274 5.4443-15.322 0.0918-8.7546 5.3682-24.928 8.3178-25.496 3.0163-0.58088 2.8991 2.0945-0.43186 9.8654-2.8091 6.5534-1.905 10.454 1.5034 6.4851 1.0323-1.2019 3.6768-5.8773 5.8768-10.39 2.2-4.5125 5.0126-8.3914 6.2502-8.6197 1.2376-0.2283 3.9376 1.4991 6 3.8386l3.7498 4.2537 37.902-1.6821 9.4318 8.2812v26.562c0 26.334 0.0257 26.571 3 27.651 1.65 0.59905 11.345 1.8076 21.545 2.6858 10.2 0.87811 19.048 1.9072 19.662 2.2868 1.4245 0.88041-2.2157 8.022-4.4908 8.8103-0.9438 0.32701-9.516-0.1072-19.049-0.96488-9.5333-0.85769-17.773-1.3234-18.311-1.0349-1.3838 0.74262 0.0883 18.271 3.1127 37.062 3.4052 21.157 6.8782 27.98 18.593 36.527 12.548 9.155 24.949 25.248 31.729 41.175 8.8483 20.786 13.398 35.602 17.493 56.964 5.5232 28.816 6.7555 43.167 7.4997 87.333 0.50376 29.899 1.3281 43.97 3.437 58.667 2.9793 20.762 2.8428 44.839-0.28862 50.905-2.8361 5.494-6.921 9.0347-11.391 9.8732-5.2772 0.99001-13.462-1.4869-15.041-4.5518-0.63103-1.2246-1.5516-7.6266-2.0458-14.227-2.0623-27.546-7.5707-64.453-12.139-81.333-3.7467-13.845-8.4566-39.82-8.688-47.915-0.0223-0.77996-0.57752-0.5014-1.2338 0.61902-2.2045 3.7635-4.2449 28.529-2.8587 34.698 0.85119 3.7883 0.83796 6.6145-0.0387 8.2524-0.98401 1.8386-0.2632 6.3236 2.7526 17.127 2.5622 9.1784 4.0857 17.744 4.0857 22.971 0 4.5844 1.4622 25.716 3.2493 46.958s3.9566 51.823 4.821 67.956c1.2566 23.452 2.2092 31.594 4.7507 40.609 2.2657 8.0365 3.187 14.74 3.2071 23.333 0.0155 6.6317 0.92335 23.458 2.0175 37.391 1.0942 13.933 2.3266 33.433 2.7387 43.333 0.41214 9.9 1.7017 21.9 2.8657 26.667 1.541 6.3105 2.1912 16.487 2.3916 37.43 0.34141 35.674 0.0796 34.965 18.117 49.047 8.311 6.4884 13.854 11.885 15.259 14.857 1.2135 2.5667 2.9997 6.3262 3.9693 8.3546l1.763 3.6879-72.483-0.70919 0.25115-7.3333c1.0192-29.759 0.93291-31.073-2.5828-39.333-2.0292-4.7678-4.0241-13.118-4.9376-20.667-1.542-12.743-8.4952-54.006-13.477-79.976-6.1498-32.061-11.163-52.592-17.913-73.358-3.9331-12.1-7.8332-25.9-8.6669-30.667-1.8954-10.837-6.0292-17.263-14.982-23.292-8.0591-5.4273-10.66-5.7338-16.814-1.9814-3.6324 2.2146-6.2571 6.4614-14.212 22.995-5.8825 12.226-10.133 22.926-10.705 26.945-0.52143 3.6667-2.7005 11.767-4.8424 18-2.242 6.5246-4.396 16.425-5.0767 23.333-0.65031 6.6-4.2764 26.7-8.0579 44.667-5.4574 25.929-7.0755 36.55-7.8454 51.492-0.94047 18.254-1.1027 19.032-5.3441 25.642-5.4141 8.4371-8.1282 17.181-8.1282 26.186 0 7.0264 4.4134 34.113 5.9681 36.629 0.58379 0.94459-10.588 1.3849-35.138 1.3849h-35.994zm42.167-375.76c1.6525-7.6471 3.0174-17.504 3.0329-21.904 0.0366-10.334-1.373-22-2.6582-22-1.8732 0-2.822 4.6276-3.9643 19.333-3.2263 41.536-3.1688 39.725-1.242 39.083 1.1033-0.36775 3.0172-6.1166 4.8316-14.513zm10.138-97.618c0.15414-1.911-0.31974-3.6571-1.0531-3.8803-0.73333-0.22314-1.5234 1.9943-1.7558 4.9276-0.30793 3.8877-0.02249 4.9395 1.0531 3.8803 0.81153-0.79919 1.6016-3.0166 1.7558-4.9276z" fill="#827b27"/>
  <path d="m21.692 850.84c17.417-24.695 17.028-23.502 20.834-63.976 1.8114-19.263 3.7634-50.624 4.3377-69.691 0.79238-26.306 1.5472-35.953 3.1298-40 2.0826-5.3256 2.1886-7.507 5.7398-118.21l0.7552-23.541-7.4075-2.1534c-7.8184-2.2729-10.138-4.7595-10.138-10.868 0-1.9868-2.2002-10.726-4.8894-19.421-2.6891-8.6945-4.5931-16.104-4.2311-16.466 0.36203-0.36202 3.8218 0.86792 7.6884 2.7332 3.8666 1.8653 7.6908 3.1712 8.4983 2.9021 0.81143-0.27048 2.5378-8.7996 3.8594-19.067 1.8344-14.252 2.0926-20.586 1.1089-27.204-1.169-7.8638-1.0397-8.8844 1.4623-11.548 3.7267-3.9669 2.7498-7.4644-2.5059-8.9716-5.1817-1.4861-5.3293-2.6183-1.0695-8.2031 5.2899-6.9354 11.412-17.921 11.412-20.478 0-1.3066-1.5-3.7847-3.3333-5.5071-4.0309-3.7868-4.1535-4.8933-0.66525-6.0004 4.0465-1.2843 5.2115-4.5893 7.3601-20.88 3.3509-25.406 2.7089-39.662-2.7656-61.401l-4.7374-18.812 2.1718-29.454c1.2624-17.121 2.7499-29.66 3.5525-29.948 0.7594-0.27165 2.661-1.9663 4.2257-3.7659 1.5647-1.7996 8.2479-6.2775 14.852-9.9508 8.3651-4.6532 14.635-9.425 20.673-15.734 4.7667-4.9801 9.5667-9.3516 10.667-9.7144 1.6115-0.53151 1.6978-1.1734 0.44421-3.3048-0.85568-1.4549-2.5944-9.7833-3.8638-18.508-1.2694-8.7243-3.0655-16.687-3.9913-17.695-1.4254-1.552-2.6471-1.5043-7.9767 0.31164l-6.2935 2.1444-4.8261-5.1847c-4.0878-4.3915-5.9481-5.3301-12.159-6.1346-7.8547-1.0174-13.14-3.1906-15.927-6.5493-1.5577-1.8769 0.06944-2.0936 16.097-2.1438 21.998-0.0689 24.229-1.02 31.786-13.549 4.2372-7.0253 5.3914-10.274 5.4443-15.322 0.0918-8.7546 5.3682-24.928 8.3178-25.496 3.0163-0.58088 2.8991 2.0945-0.43186 9.8654-2.8091 6.5534-1.905 10.454 1.5034 6.4851 1.0323-1.2019 3.6768-5.8773 5.8768-10.39 2.2-4.5125 5.0126-8.3914 6.2502-8.6197 1.2376-0.2283 3.9376 1.4991 6 3.8386l3.7498 4.2537 37.902-1.6821 9.4318 8.2812v26.562c0 26.334 0.0257 26.571 3 27.651 1.65 0.59905 11.345 1.8076 21.545 2.6858 10.2 0.87811 19.048 1.9072 19.662 2.2868 1.4185 0.87667-2.206 8.0096-4.4908 8.8377-0.9438 0.34208-6.216 0.17884-11.716-0.36277-5.5-0.54162-13.6-1.1988-18-1.4604l-8-0.47566-0.19913 11.333c-0.27515 15.66 4.8169 43.961 8.65 48.076 1.5686 1.6837 3.1895 4.1247 3.602 5.4244 0.41254 1.2998 4.499 5.0384 9.0811 8.3081 13.909 9.9254 27.169 26.966 31.604 40.618 1.5919 4.8992 4.0391 10.912 5.4382 13.363 1.3991 2.4504 2.6991 5.4504 2.8888 6.6667 0.18972 1.2163 0.81299 2.9614 1.3851 3.8781 0.57205 0.91667 0.63124 1.6667 0.13146 1.6667-0.49973 0-0.31453 0.75 0.41156 1.6667 2.3053 2.9103 5.5606 14.718 6.341 23 0.95155 10.099 2.0195 15.631 3.3458 17.333 3.0444 3.9064 6.6255 52.871 6.6413 90.806 9e-3 21.948 0.62636 32.069 2.8052 46 3.0327 19.39 2.9442 44.687-0.17749 50.732-2.8549 5.5282-6.9304 9.0672-11.409 9.9074-5.2772 0.99001-13.462-1.4869-15.041-4.5518-0.63103-1.2246-1.5516-7.6266-2.0458-14.227-2.0623-27.546-7.5706-64.453-12.139-81.333-3.7467-13.845-8.4566-39.82-8.688-47.915-0.0223-0.77996-0.57752-0.5014-1.2338 0.61902-2.2045 3.7635-4.2449 28.529-2.8587 34.698 0.85119 3.7883 0.83796 6.6145-0.0387 8.2524-0.98402 1.8386-0.2632 6.3236 2.7526 17.127 2.5622 9.1784 4.0857 17.744 4.0857 22.971 0 4.5844 1.4622 25.716 3.2493 46.958 1.7871 21.243 3.9566 51.823 4.8211 67.956 1.2566 23.452 2.2092 31.594 4.7507 40.609 2.2657 8.0365 3.187 14.74 3.2071 23.333 0.0155 6.6317 0.92334 23.458 2.0175 37.391 1.0942 13.933 2.3266 33.433 2.7387 43.333 0.41213 9.9 1.7017 21.9 2.8657 26.667 1.541 6.3105 2.1912 16.487 2.3916 37.43 0.34142 35.674 0.0796 34.965 18.117 49.047 8.311 6.4884 13.854 11.885 15.259 14.857 1.2135 2.5667 2.9997 6.3262 3.9694 8.3546l1.763 3.6879-72.483-0.70919 0.25115-7.3333c1.0192-29.759 0.93291-31.073-2.5828-39.333-2.0292-4.7678-4.0241-13.118-4.9376-20.667-1.542-12.743-8.4952-54.006-13.477-79.976-6.1498-32.061-11.163-52.592-17.913-73.358-3.9331-12.1-7.8332-25.9-8.6669-30.667-1.8954-10.837-6.0292-17.263-14.982-23.292-8.0591-5.4273-10.66-5.7338-16.814-1.9814-3.6324 2.2146-6.2571 6.4614-14.212 22.995-5.8825 12.226-10.133 22.926-10.705 26.945-0.52143 3.6667-2.7005 11.767-4.8424 18-2.242 6.5246-4.396 16.425-5.0767 23.333-0.65031 6.6-4.2764 26.7-8.0579 44.667-5.4574 25.929-7.0755 36.55-7.8454 51.492-0.94047 18.254-1.1027 19.032-5.3441 25.642-5.4141 8.4371-8.1282 17.181-8.1282 26.186 0 7.0264 4.4134 34.113 5.9681 36.629 0.58379 0.94459-10.588 1.3849-35.138 1.3849h-35.994zm42.167-375.76c1.6525-7.6471 3.0174-17.504 3.0329-21.904 0.0366-10.334-1.373-22-2.6582-22-1.8732 0-2.822 4.6276-3.9643 19.333-3.2263 41.536-3.1688 39.725-1.242 39.083 1.1033-0.36775 3.0172-6.1166 4.8316-14.513zm10.138-97.618c0.15414-1.911-0.31974-3.6571-1.0531-3.8803-0.73333-0.22314-1.5234 1.9943-1.7558 4.9276-0.30793 3.8877-0.02249 4.9395 1.0531 3.8803 0.81153-0.79919 1.6016-3.0166 1.7558-4.9276zm13.429-40.286c0.97925-2.5519-0.38635-6.2166-1.9552-5.247-1.5531 0.95987-1.5556 7.247-0.0029 7.247 0.65487 0 1.536-0.9 1.9582-2z" fill="#5e6061"/>
  <path d="m13.372 863.11c4.0738-3.7954 21.354-29.772 24.429-36.723 3.4845-7.8772 10.439-85.654 10.48-117.21 0.02485-18.835 0.47778-24.095 2.6794-31.119 1.9096-6.092 2.653-12.235 2.6622-22 0.0071-7.4513 0.56594-24.948 1.2421-38.881 0.67612-13.933 1.4204-38.17 1.6539-53.858l0.4246-28.525-7.1736-2.3437c-7.7873-2.5442-9.4426-4.165-9.4703-9.2727-0.01-1.8333-2.2178-10.385-4.9063-19.003-2.6885-8.6183-4.5479-16.01-4.1318-16.426 0.41604-0.41604 3.8469 0.57307 7.6242 2.198 3.9064 1.6805 7.3066 2.4392 7.8854 1.7594 0.55968-0.65725 2.0275-9.595 3.2618-19.862 1.6915-14.069 1.922-20.622 0.936-26.608-1.1879-7.2106-1.0541-8.2114 1.4539-10.881 3.7431-3.9843 2.7753-7.4806-2.4884-8.9903-5.1817-1.4861-5.3293-2.6183-1.0695-8.2031 5.2899-6.9354 11.412-17.921 11.412-20.478 0-1.3066-1.5-3.7847-3.3333-5.5071-4.0309-3.7868-4.1535-4.8933-0.66525-6.0004 1.4674-0.46575 3.2628-1.958 3.9896-3.3162 1.9449-3.634 4.0196-19.532 5.2894-40.531l1.1195-18.514-10.28-42.549 2.0462-27.545c1.1796-15.879 2.6299-27.754 3.4245-28.04 0.7581-0.2722 2.3602-1.6738 3.5603-3.1148 1.2001-1.4409 6.6819-4.9109 12.182-7.711 13.417-6.8306 20.148-11.927 25.382-19.215 2.4031-3.3463 5.6252-6.4756 7.1602-6.954 4.0301-1.2561 4.829-3.2216 2.8852-7.0982-0.94097-1.8767-2.427-9.1122-3.3024-16.079-2.5294-20.131-2.4855-20-6.699-20-2.0323 0-5.6911 0.6958-8.1306 1.5462-4.2438 1.4794-4.6134 1.3344-8.5519-3.3569-3.5888-4.2747-5.2246-5.0806-12.763-6.2883-8.5908-1.3761-14.647-4.1045-14.647-6.5984 0-0.77954 6.8264-1.3046 17-1.3076 20.672-7e-3 22.717-0.95292 30.739-14.23 4.688-7.7589 5.6071-10.433 5.6754-16.511 0.105-9.3498 3.9418-21.759 6.9039-22.33 1.9868-0.38262 1.9121 0.44297-0.68445 7.5725-1.6029 4.4011-2.5022 8.4141-1.9984 8.9178 2.1807 2.1807 5.5342-1.3858 9.4707-10.072 4.8531-10.709 7.8022-11.943 12.703-5.3132l2.9781 4.0281 39.212-1.6247 8.6667 8.3703v26.52c0 14.586 0.47934 26.817 1.0652 27.179 0.58585 0.36208 9.8778 1.4071 20.649 2.3223 10.771 0.91516 20.294 2.1031 21.163 2.6399 1.1661 0.7207 0.9725 1.9019-0.74036 4.516l-2.3195 3.5401-12.242-1.0792c-6.7329-0.59354-15.542-1.0854-19.575-1.0929l-7.3333-0.0137 0.34264 4c0.18845 2.2 0.34019 7 0.33719 10.667-3e-3 3.6667 1.4276 14.686 3.1792 24.487 3.7348 20.898 6.0573 25.103 19.618 35.513 9.7318 7.4711 22.532 22.756 27.255 32.546 8.5994 17.826 17.132 43.183 19.844 58.976 1.0884 6.3367 2.59 14.137 3.3368 17.333 2.8362 12.14 5.2189 48.435 5.3708 81.812 0.12467 27.4 0.70539 38.086 2.7704 50.978 2.8237 17.63 3.4263 42.039 1.2328 49.936-0.75071 2.7029-3.2701 6.5174-5.5987 8.4768-3.6239 3.0493-5.1484 3.4746-10.583 2.9523-9.2706-0.89079-10.036-2.004-11.042-16.059-2.0193-28.206-7.483-64.622-12.67-84.45-3.0806-11.775-5.8964-26.476-6.7674-35.333-1.9528-19.855-2.4776-22.432-4.0101-19.694-1.9598 3.502-4.9427 37.406-3.7415 42.526 0.60208 2.5667 0.74181 7.1633 0.31052 10.215-0.54804 3.8774 0.22833 9.097 2.5782 17.333 2.3014 8.0664 3.6293 16.834 4.2084 27.785 0.4653 8.8 1.6968 25.9 2.7366 38 2.7995 32.576 5.9599 80.563 5.9599 90.495 0 5.313 1.2459 12.881 3.1997 19.437 2.4844 8.3356 3.3973 15.355 4.0834 31.402 0.486 11.367 1.7461 31.453 2.8003 44.636 1.0542 13.183 1.9231 29.383 1.9311 36 8e-3 7.1976 0.85803 14.709 2.1144 18.697 1.5565 4.9415 2.2647 14.602 2.7367 37.333 0.7991 38.488 0.44214 37.488 18.448 51.697 11.124 8.7788 13.962 11.798 17.002 18.087 2.0072 4.1521 3.6572 7.6993 3.6667 7.8826 0.0351 0.67595-67.829 0.30868-69.615-0.37675-1.4998-0.57553-1.6297-2.6598-0.68556-11 1.6428-14.512 0.53464-29.071-2.7621-36.29-1.5071-3.3-3.4274-11.4-4.2672-18-3.2774-25.756-14.623-88.476-21.467-118.67-2.161-9.5333-6.8647-26.333-10.453-37.333s-7.2589-23.9-8.1574-28.667c-0.89857-4.7667-2.723-10.848-4.0544-13.515-2.3155-4.6376-9.2312-11.042-15.434-14.292-4.1808-2.191-11.322-1.8802-14.934 0.64988-3.8952 2.7283-24.153 43.656-24.153 48.797 0 2.0587-2.0719 10.182-4.6042 18.052-2.7623 8.5846-5.1208 19.376-5.8956 26.975-0.71027 6.9667-4.3095 26.919-7.9982 44.338-5.1671 24.4-6.8901 35.573-7.5052 48.667-0.78969 16.811-0.86348 17.126-6.8018 28.995-7.672 15.335-8.3745 21.663-4.6837 42.184 1.5349 8.5344 3.162 16.484 3.6157 17.667 0.74614 1.9444-2.5869 2.1497-34.902 2.1497h-35.727zm50.154-381.94c4.07-19.594 4.7191-26.73 3.5672-39.214-0.61954-6.7141-1.5167-12.598-1.9936-13.075-3.0241-3.0241-4.9515 7.5285-7.5506 41.338-1.1995 15.603-1.1682 20.135 0.14956 21.723 2.4091 2.9027 3.3468 1.1691 5.8274-10.773zm11.162-105.09c-0.26163-2.7006-1.1384-4.2438-2.4111-4.2438-1.5575 0-2.0692 2.0649-2.3126 9.3333l-0.31262 9.3333 2.7238-5.0896c1.5662-2.9266 2.549-6.893 2.3126-9.3333zm12.738-38.91c0.97925-2.5519-0.38635-6.2166-1.9552-5.247-1.5531 0.95987-1.5556 7.247-0.0029 7.247 0.65487 0 1.536-0.9 1.9582-2z" fill="#7a7320"/>
  <path d="m13.372 863.11c4.0738-3.7954 21.354-29.772 24.429-36.723 3.4845-7.8772 10.439-85.654 10.48-117.21 0.02485-18.835 0.47778-24.095 2.6794-31.119 1.9096-6.092 2.653-12.235 2.6622-22 0.0071-7.4513 0.56594-24.948 1.2421-38.881 0.67612-13.933 1.4204-38.17 1.6539-53.858l0.4246-28.525-7.1736-2.3437c-7.7873-2.5442-9.4426-4.165-9.4703-9.2727-0.01-1.8333-2.2178-10.385-4.9063-19.003-2.6885-8.6183-4.5789-15.979-4.2009-16.357 0.37806-0.37805 3.3267 0.51011 6.5526 1.9737 7.7327 3.5084 8.9635 3.4007 10.829-0.94703 0.86519-2.0167 2.6861-5.3067 4.0464-7.3112 2.2475-3.3118 2.3967-5.5636 1.6335-24.667l-0.83986-21.022 4.1237-11.333c4.0926-11.248 4.1034-11.347 1.4315-13.163-1.4807-1.0061-2.6897-2.5061-2.6866-3.3333 0.0053-1.439 4.0006-9.7715 8.0732-16.837 1.1947-2.0727 2.008-7.6194 2.1506-14.667 0.12615-6.2333 0.30551-12.533 0.39858-14 0.09307-1.4667-0.11841-11.967-0.46996-23.333-0.5527-17.871-1.282-23.268-5.3905-39.897-2.6132-10.577-4.3898-19.577-3.9481-20 1.325-1.2697 25.806 25.627 26.605 29.23 0.40641 1.8333 1.6023 5.3037 2.6575 7.7119 2.5442 5.8066 2.501 13.482-0.08145 14.473-1.1 0.42212-2 1.6114-2 2.6429 0 1.0315-0.6716 2.9508-1.4925 4.2652-1.1774 1.8854-0.85208 3.6405 1.5415 8.3152 2.789 5.4471 3.1906 9.101 4.9746 45.259l1.9406 39.333 21.424 50.946 45.258 0.9631c24.892 0.5297 45.499 0.72282 45.792 0.42913 0.29368-0.29368 1.154-13.99 1.9119-30.436s2.2248-48.18 3.26-70.519l1.882-40.617-53.983-127.83-17.709-6.4698c-9.7399-3.5584-18.838-6.4698-20.218-6.4698-2.0459 0-22.455 8.3438-47.583 19.453-2.51 1.1097-4.3333 1.3535-4.3333 0.57946 0-0.73498 4.65-3.6857 10.333-6.5572 13.698-6.9206 20.431-11.986 25.716-19.344 2.4031-3.3463 5.6252-6.4756 7.1602-6.954 4.0301-1.2561 4.829-3.2216 2.8852-7.0982-0.94097-1.8767-2.427-9.1122-3.3024-16.079-2.5294-20.131-2.4855-20-6.699-20-2.0323 0-5.6911 0.6958-8.1306 1.5462-4.2438 1.4794-4.6134 1.3344-8.5519-3.3569-3.5888-4.2747-5.2246-5.0806-12.763-6.2883-8.5908-1.3761-14.647-4.1045-14.647-6.5984 0-0.77954 6.8264-1.3046 17-1.3076 20.672-7e-3 22.717-0.95292 30.739-14.23 4.688-7.7589 5.6071-10.433 5.6754-16.511 0.105-9.3498 3.9418-21.759 6.9039-22.33 1.9868-0.38262 1.9121 0.44297-0.68445 7.5725-1.6029 4.4011-2.5022 8.4141-1.9984 8.9178 2.1807 2.1807 5.5342-1.3858 9.4707-10.072 4.8531-10.709 7.8022-11.943 12.703-5.3132l2.9781 4.0281 39.212-1.6247 8.6667 8.3703v26.52c0 14.586 0.45 26.795 1 27.13s9.1 1.3018 19 2.1473c26.124 2.2312 26.28 2.2892 21.622 8.0415-2.3662 2.9222-2.4695 2.9286-20.734 1.2817-21.187-1.9104-22.25-1.5714-19.828 6.3202 1.2314 4.0124 1.1476 5.7362-0.43287 8.9044-1.078 2.1608-1.9599 5.2219-1.9599 6.8024 0 4.1592-3.1828 7.9822-5.8072 6.9751-1.206-0.4628-2.1928-0.5556-2.1928-0.20622s2.3295 5.7923 5.1767 12.095c3.1936 7.0699 6.4925 12.323 8.6115 13.713 1.8891 1.2393 5.2454 4.7526 7.4583 7.8075 2.2129 3.0548 7.8511 8.4291 12.529 11.943 13.765 10.339 31.292 35.263 31.504 44.801 0.09 4.0516-2.4562 1.162-7.206-8.1779-2.9496-5.8-7.8152-12.14-13.967-18.198-5.1922-5.1137-9.4403-8.6662-9.4403-7.8945s2.7307 14.221 6.0683 29.887c4.9864 23.406 6.429 33.473 8.0919 56.467 1.3969 19.316 2.6146 28.827 3.9317 30.707 2.5284 3.6099 2.4162 6.1309-0.27306 6.1309-1.9531 0-2.1063 2.0565-1.4657 19.667 0.75528 20.761 5.1969 46.988 10.26 60.585 1.8657 5.0102 3.2482 14.669 4.726 33.018 1.1488 14.265 2.2175 26.029 2.3748 26.143 0.1573 0.11346 4.036 1.4529 8.6193 2.9763 9.3544 3.1093 9.1302 3.3642 6.8853-7.8329-1.2693-6.3311-1.1025-8.0981 1.3521-14.319 2.5739-6.5238 2.6843-8.085 1.3667-19.333-2.1665-18.496-2.1552-18.463-6.3201-18.19-8.1226 0.53126-8.7157-1.0406-4.2895-11.367 2.3139-5.3981 2.4628-7.0222 1.1409-12.444-0.83619-3.4295-1.9287-6.8355-2.4279-7.5688-1.91-2.806-1.369-13.87 0.73575-15.048 1.6958-0.94904 1.775-1.7453 0.46041-4.6306-2.2621-4.9647-0.77996-7.6545 4.2177-7.6545 3.58 0 3.9592-0.29624 2.5511-1.9929-0.90968-1.0961-1.3082-3.3149-0.88573-4.9306 0.42253-1.6157 0.21824-3.6004-0.45399-4.4104-0.73458-0.88513-0.75462-7.2963-0.0503-16.069 0.6446-8.0282 0.88092-17.597 0.52514-21.263-0.5309-5.4717-0.36558-6.2217 0.92236-4.1843 3.0106 4.7625 6.3547 48.247 6.5346 84.969 0.1367 27.907 0.7151 38.6 2.7872 51.526 2.8255 17.626 3.4292 42.036 1.2349 49.936-0.7507 2.7029-3.2701 6.5174-5.5986 8.4768-3.6239 3.0493-5.1484 3.4746-10.583 2.9523-9.2706-0.89079-10.036-2.004-11.042-16.059-2.0193-28.206-7.483-64.622-12.67-84.45-3.0806-11.775-5.8964-26.476-6.7674-35.333-1.9527-19.855-2.4776-22.432-4.0101-19.694-1.9598 3.502-4.9427 37.406-3.7415 42.526 0.60208 2.5667 0.74182 7.1633 0.31052 10.215-0.54804 3.8774 0.22834 9.097 2.5782 17.333 2.3014 8.0664 3.6293 16.834 4.2084 27.785 0.46531 8.8 1.6968 25.9 2.7366 38 2.7995 32.576 5.9598 80.563 5.9598 90.495 0 5.313 1.2459 12.881 3.1997 19.437 2.4844 8.3356 3.3973 15.356 4.0834 31.402 0.486 11.367 1.7461 31.453 2.8003 44.636 1.0542 13.183 1.9231 29.383 1.9311 36 8e-3 7.1976 0.85803 14.709 2.1144 18.697 1.5566 4.9415 2.2647 14.602 2.7367 37.333 0.79911 38.488 0.44215 37.488 18.448 51.697 11.124 8.7788 13.962 11.798 17.002 18.087 2.0072 4.1521 3.6572 7.6993 3.6667 7.8826 0.0351 0.67594-67.829 0.30868-69.615-0.37675-1.4998-0.57553-1.6297-2.6598-0.68556-11 1.6428-14.512 0.53464-29.071-2.7621-36.29-1.5071-3.3-3.4274-11.4-4.2672-18-3.2774-25.756-14.623-88.476-21.467-118.67-2.161-9.5333-6.8647-26.333-10.453-37.333-3.588-11-7.2589-23.9-8.1574-28.667-0.89857-4.7667-2.723-10.848-4.0544-13.515-2.3155-4.6376-9.2312-11.042-15.434-14.292-4.1808-2.191-11.322-1.8802-14.934 0.64988-3.8952 2.7283-24.153 43.656-24.153 48.797 0 2.0587-2.0719 10.182-4.6042 18.052-2.7623 8.5846-5.1208 19.376-5.8956 26.975-0.71027 6.9667-4.3095 26.919-7.9982 44.338-5.1671 24.4-6.8901 35.573-7.5052 48.667-0.78969 16.811-0.86348 17.126-6.8018 28.995-7.672 15.335-8.3745 21.663-4.6837 42.184 1.5349 8.5344 3.162 16.484 3.6157 17.667 0.74614 1.9444-2.5869 2.1497-34.902 2.1497h-35.727zm50.154-381.94c4.07-19.594 4.7191-26.73 3.5672-39.214-0.61954-6.7141-1.5167-12.598-1.9936-13.075-3.0241-3.0241-4.9515 7.5285-7.5506 41.338-1.1995 15.603-1.1682 20.135 0.14956 21.723 2.4091 2.9027 3.3468 1.1691 5.8274-10.773zm11.162-105.09c-0.26163-2.7006-1.1384-4.2438-2.4111-4.2438-1.4656 0-2.1816 2.0384-2.6794 7.6283-0.3737 4.1956-0.43944 8.3484-0.14611 9.2284 0.98101 2.943 5.6535-8.3109 5.2367-12.613zm180.48-70.425c-7.213-26.056-7.5395-27.475-5.9441-25.819 1.8696 1.9406 9.3243 25.298 11.133 34.882 2.9617 15.694 0.44972 11.306-5.189-9.0636z" fill="#736d1d"/>
  <path d="m13.372 863.11c4.0738-3.7954 21.354-29.772 24.429-36.723 3.4845-7.8772 10.439-85.654 10.48-117.21 0.02485-18.835 0.47778-24.095 2.6794-31.119 1.9096-6.092 2.653-12.235 2.6622-22 0.0071-7.4513 0.56594-24.948 1.2421-38.881 0.67612-13.933 1.4204-38.17 1.6539-53.858l0.4246-28.525-7.1736-2.3437c-7.8295-2.558-9.4417-4.1573-9.4727-9.3966-0.0112-1.9015-2.1094-10.001-4.6626-18-2.5532-7.9985-4.6532-15.286-4.6667-16.195-0.01589-1.0701 2.6003-0.36542 7.4255 2l7.45 3.6522 2.2166-2.815c1.2191-1.5482 3.5333-4.5482 5.1425-6.6667l2.9259-3.8517 0.07407 4.8368c0.07872 5.1399 3.479 9.7207 4.6863 6.3134 1.0748-3.0333 4.7909-21.302 6.0995-29.987 1.2108-8.035-0.12477-31.688-1.8889-33.452-1.8098-1.8098-3.4604 1.9999-4.7587 10.984-0.73953 5.1174-1.3565 12.119-1.371 15.559-0.01452 3.4401-0.6264 6.6255-1.3597 7.0787-0.85765 0.53005-1.3333-4.3455-1.3333-13.666 0-12.847 0.46392-15.761 4.0901-25.697 3.8037-10.422 3.9305-11.324 1.8109-12.874-1.2536-0.91663-2.9427-1.8878-3.7537-2.1581-1.9778-0.65928 2.5595-9.0305 8.3063-15.325 6.0349-6.6098 8.4491-11.645 7.9578-16.596-0.50972-5.1355-3.2873-6.2926-5.1118-2.1294-1.0487 2.3931-1.2043 1.2642-0.67348-4.8883 1.2307-14.266-1.9207-43.904-6.9199-65.078-2.5639-10.86-4.2841-20.122-3.8227-20.584 0.46142-0.46142 4.8764 3.5841 9.811 8.9901 14.356 15.728 13.775 14.745 17.241 29.116 0.41283 1.7112-0.03743 5.499-1.0006 8.4174-1.5137 4.5864-2.1706 5.2009-4.8434 4.53-1.7007-0.42684-3.0922-0.52694-3.0922-0.2224 0 0.30452 2.0565 4.9659 4.5701 10.359l4.5701 9.805 3.7075 77.333 10.451 24.667c5.7482 13.567 11.108 25.349 11.91 26.182 1.0163 1.0562 15.6 1.6623 48.125 2l46.667 0.48452 0.92628-14.667c1.102-17.449 3.5832-74.631 4.6573-107.33l0.7664-23.333-26.408-62.667c-14.525-34.467-26.931-63.362-27.57-64.211-0.63905-0.84945-9.6807-4.6979-20.092-8.5522l-18.931-7.0077-7.3409 2.7464c-4.0375 1.5105-11.541 4.3525-16.674 6.3156-9.7259 3.7194-9.8463 3.5552-1.7421-2.3749 2.7085-1.9819 6.8526-6.2882 9.2092-9.5696 2.3565-3.2814 5.5405-6.3577 7.0754-6.8361 4.0301-1.2561 4.829-3.2216 2.8852-7.0982-0.94097-1.8767-2.427-9.1122-3.3024-16.079-2.5294-20.131-2.4855-20-6.699-20-2.0323 0-5.6911 0.6958-8.1306 1.5462-4.2438 1.4794-4.6134 1.3344-8.5519-3.3569-3.5888-4.2747-5.2246-5.0806-12.763-6.2883-8.5908-1.3761-14.647-4.1045-14.647-6.5984 0-0.77954 6.8264-1.3046 17-1.3076 20.672-7e-3 22.717-0.95292 30.739-14.23 4.688-7.7589 5.6071-10.433 5.6754-16.511 0.105-9.3498 3.9418-21.759 6.9039-22.33 1.9868-0.38262 1.9121 0.44297-0.68445 7.5725-1.6029 4.4011-2.5022 8.4141-1.9984 8.9178 2.1807 2.1807 5.5342-1.3858 9.4707-10.072 4.8531-10.709 7.8022-11.943 12.703-5.3132l2.9781 4.0281 39.212-1.6247 8.6667 8.3703v26.52c0 14.586 0.45 26.795 1 27.13s9.1 1.3018 19 2.1473c26.124 2.2312 26.28 2.2892 21.622 8.0415-2.3662 2.9222-2.4695 2.9286-20.734 1.2817-21.192-1.9108-22.251-1.5726-19.825 6.3307 1.3603 4.4322 1.2214 5.3149-1.2501 7.9458-1.5292 1.6278-3.2023 4.9488-3.718 7.38-0.80945 3.8165-1.444 4.3838-4.6444 4.1518-3.3866-0.24537-3.6299 0.0379-2.8168 3.2777 0.48954 1.9505 3.3973 8.6713 6.4616 14.935 4.4344 9.0645 6.5636 11.933 10.432 14.056 2.6735 1.4667 6.6567 4.7667 8.8516 7.3333 2.1949 2.5667 7.2075 7.0024 11.139 9.8571 10.157 7.3748 28.559 31.176 26.047 33.689-0.39203 0.39201-1.9047-1.5954-3.3616-4.4164-1.4568-2.8211-7.7987-9.8195-14.093-15.552-9.0753-8.2653-11.444-9.8539-11.444-7.6745 0 1.5116 2.7274 15.502 6.0608 31.089 5.0369 23.554 6.3932 33.071 8.029 56.341 1.0825 15.4 2.6045 29.979 3.3822 32.398 1.0575 3.289 0.99928 4.8976-0.23087 6.3799-1.2262 1.4774-1.4289 6.8068-0.79633 20.935 0.89291 19.944 5.0732 44.397 10.169 59.485 1.692 5.0096 3.4386 15.057 4.2309 24.337 1.7894 20.961 0.81646 24.523-1.4013 5.131-0.96448-8.4333-4.373-25.75-7.5746-38.482-3.3168-13.19-6.448-29.538-7.2784-38-1.9157-19.522-2.4468-22.11-3.9758-19.378-1.9598 3.502-4.9427 37.406-3.7415 42.526 0.60208 2.5667 0.74181 7.1633 0.31052 10.215-0.54804 3.8774 0.22833 9.097 2.5782 17.333 2.3014 8.0664 3.6293 16.834 4.2084 27.785 0.4653 8.8 1.6968 25.9 2.7366 38 2.7995 32.576 5.9599 80.563 5.9599 90.495 0 5.313 1.2459 12.881 3.1997 19.437 2.4844 8.3356 3.3973 15.356 4.0834 31.402 0.486 11.367 1.7461 31.453 2.8003 44.636 1.0542 13.183 1.9231 29.383 1.9311 36 8e-3 7.1976 0.85803 14.709 2.1144 18.697 1.5565 4.9415 2.2647 14.602 2.7367 37.333 0.7991 38.488 0.44214 37.488 18.448 51.697 11.124 8.7788 13.962 11.798 17.002 18.087 2.0072 4.1521 3.6572 7.6993 3.6667 7.8826 0.0351 0.67594-67.829 0.30868-69.615-0.37675-1.4998-0.57553-1.6297-2.6598-0.68556-11 1.6428-14.512 0.53464-29.071-2.7621-36.29-1.5071-3.3-3.4274-11.4-4.2672-18-3.2774-25.756-14.623-88.476-21.467-118.67-2.161-9.5333-6.8647-26.333-10.453-37.333-3.588-11-7.2589-23.9-8.1574-28.667-0.89857-4.7667-2.723-10.848-4.0544-13.515-2.3155-4.6376-9.2312-11.042-15.434-14.292-4.1808-2.191-11.322-1.8802-14.934 0.64988-3.8952 2.7283-24.153 43.656-24.153 48.797 0 2.0587-2.0719 10.182-4.6042 18.052-2.7623 8.5846-5.1208 19.376-5.8956 26.975-0.71027 6.9667-4.3095 26.919-7.9982 44.338-5.1671 24.4-6.8901 35.573-7.5052 48.667-0.78969 16.811-0.86348 17.126-6.8018 28.995-7.672 15.335-8.3745 21.663-4.6837 42.184 1.5349 8.5344 3.162 16.484 3.6157 17.667 0.74614 1.9444-2.5869 2.1497-34.902 2.1497h-35.727zm237.57-334.99c-3.0138-1.5183-3.4452-2.7999-4.4998-13.369-0.64154-6.4296-0.89723-11.959-0.5682-12.288 0.32902-0.32903 5.2382 0.96181 10.909 2.8686 5.671 1.9067 10.664 3.1139 11.095 2.6827 0.43123-0.43123 0.0569-5.147-0.83187-10.479-1.4495-8.6969-1.353-10.451 0.9369-17.029 2.3712-6.8117 2.4295-8.3766 0.8197-22-0.9532-8.0667-1.7619-15.463-1.7971-16.436-0.0432-1.1952-1.5541-1.6404-4.6591-1.3729-2.5273 0.21774-4.9981-7e-3 -5.4906-0.49956-0.49249-0.49249 0.19722-3.934 1.5327-7.6479 2.154-5.9901 2.2351-7.6156 0.71812-14.398-2.6136-11.686-2.8137-18.027-0.64607-20.473 1.5521-1.7513 1.6117-2.8255 0.3146-5.6723-1.9618-4.3056-1.7997-4.4746 4.8331-5.0402l5.3333-0.45482 0.77979 36.664c0.53693 25.245 1.464 40.401 2.9767 48.664 2.4658 13.469 2.9385 38.777 0.86371 46.248-2.7085 9.7518-13.595 14.581-22.62 10.034zm14.933-145.21c-1.9822-1.9822-2.0822-5.9446-0.17981-7.1203 0.95913-0.59278 0.81283-1.5923-0.45063-3.0787-1.4531-1.7095-1.6818-4.8805-1.0242-14.201 0.93432-13.243 2.0748-11.656 3.3538 4.6667 0.43097 5.5 1.1331 12.55 1.5603 15.667 0.78073 5.6963-0.29174 7.0344-3.2595 4.0667z" fill="#2d302e"/>
  <path d="m11.61 864.5c0.45322-0.73334 1.6347-1.3333 2.6256-1.3333 2.0644 0 20.843-27.62 24.687-36.31 3.5734-8.0782 10.687-87.271 10.687-118.97 0-18.83 0.43654-24.082 2.5014-30.098 1.9967-5.817 2.6778-13.07 3.3757-35.954 0.48086-15.767 1.4-46.067 2.0425-67.333 0.75452-24.975 0.7069-39.226-0.13447-40.248-0.71646-0.86953-3.2112-1.9784-5.5438-2.4642-6.7402-1.4037-10.24-4.2447-10.249-8.3189-0.0043-1.9998-2.0943-10.236-4.6446-18.303-2.5503-8.0667-4.6469-14.795-4.659-14.953-0.01213-0.15728 2.7277 0.89272 6.0885 2.3333 8.1196 3.4805 9.191 3.3452 12.716-1.6056l3.0084-4.2248 1.5076 4.4777c1.6782 4.9843 3.6014 6.26 5.5525 3.6831 0.71252-0.94108 2.6942-9.6619 4.4037-19.38 2.5749-14.637 2.9622-20.22 2.2573-32.54-0.63072-11.023-1.4179-15.498-3.0422-17.293-1.8331-2.0255-1.9585-3.3386-0.76712-8.0322 1.431-5.6376 0.2958-10.466-2.4606-10.466-0.70753 0-1.2864-0.64002-1.2864-1.4223 0-1.5914 5.8163-9.5598 10.193-13.964 1.5726-1.5827 3.6365-6.3505 4.5864-10.595 1.6125-7.2056 1.5533-7.86-0.893-9.8679-2.2547-1.8506-2.9414-5.5908-4.9239-26.817-1.5562-16.662-3.5911-29.643-6.2705-40-2.1817-8.4333-3.9505-16.233-3.9306-17.333 0.05337-2.9578 21.229 20.1 22.041 24 0.38169 1.8333 1.5503 5.2889 2.5968 7.679 1.6736 3.822 1.6463 4.9867-0.22623 9.6667-2.1323 5.329-3.6302 6.4838-5.1728 3.9877-1.2535-2.0282-3.3333-1.5914-3.3333 0.69995 0 1.1183 2.0363 6.0768 4.525 11.019l4.525 8.9854 1.9314 39.315 1.9314 39.315 22.757 53.333 6.4984 0.88319c3.5741 0.48576 25.263 0.93576 48.198 1l41.7 0.11681 1.227-3.2272c1.1174-2.9391 3.619-64.354 4.9566-121.69l0.53459-22.914-26.117-61.743c-14.365-33.959-26.946-63.008-27.96-64.555-1.216-1.8558-8.3011-5.1978-20.839-9.8294-20.75-7.6653-19.232-7.5957-34.202-1.5689-3.85 1.55-7 2.5013-7 2.1139 0-2.3686 11.353-15.14 14.063-15.82 3.4153-0.85718 4.1218-3.3543 2.0464-7.2323-0.67317-1.2578-2.24-9.4684-3.4819-18.246-1.2419-8.7773-3.079-16.825-4.0826-17.884-1.5624-1.6488-2.8215-1.6701-8.7598-0.14816l-6.9352 1.7774-3.8448-4.3031c-4.0328-4.5135-9.4786-6.7339-16.515-6.7339-2.3069 0-5.6109-1.18-7.3421-2.6223l-3.1477-2.6223 15.709-0.0444c20.484-0.0579 22.927-1.105 30.736-13.178 4.9368-7.6314 6.1528-10.72 6.4822-16.464 0.38802-6.7661 0.55627-7.0523 3.9163-6.6615 4.3399 0.50476 7.8954-3.6481 11.351-13.258 1.3478-3.7482 3.2913-7.1374 4.3189-7.5318 1.0845-0.41615 3.3738 1.1276 5.4566 3.6796 3.5707 4.375 3.6434 4.3957 14.809 4.2133 6.1712-0.1008 14.384-0.55284 18.25-1.0045 6.1395-0.71722 7.7017-0.37671 12.333 2.6884l5.3034 3.5097 0.0204 26.314c0.0107 14.473 0.55091 27.152 1.1993 28.176 0.82657 1.3054 7.2951 2.4456 21.646 3.8156 11.257 1.0746 20.666 2.1354 20.909 2.3574 0.24275 0.22192-0.22836 1.6549-1.0469 3.1844-1.7332 3.2386-5.3064 3.4336-26.02 1.4198-16.123-1.5675-18.018-0.64808-15.346 7.446 1.4837 4.4956 1.3953 5.2184-0.83789 6.8513-1.3731 1.004-3.1352 4.0541-3.9157 6.778-1.2333 4.3039-1.8899 4.9022-5.0135 4.5687-4.9334-0.52679-4.6948 1.5574 1.8997 16.594 3.9239 8.9472 6.8686 13.66 10.304 16.492 2.6454 2.1805 5.4602 3.9646 6.2552 3.9646 0.795 0 2.7639 1.7833 4.3753 3.9628 1.6114 2.1796 6.49 6.4735 10.841 9.5422 4.3513 3.0686 9.8678 8.3354 12.259 11.704l4.3474 6.1245-8.8096-7.6667c-9.5139-8.2796-12.188-9.405-11.087-4.6667 0.38324 1.65 3.6393 17.1 7.2357 34.333 5.4916 26.315 6.7894 35.391 8.1025 56.667 0.85997 13.933 2.1151 27.072 2.7891 29.197 0.73079 2.3041 0.73907 4.4572 0.0205 5.3333-0.66276 0.8081-1.4268 2.9693-1.6978 4.8026-0.27101 1.8333-1.2397 3.1796-2.1526 2.9917-2.809-0.5781-4.0464 4.93-5.4685 24.342-1.9279 26.315-1.2226 44.716 2.1209 55.333 1.6729 5.3124 3.0757 14.601 3.6245 24 0.49244 8.4333 1.7752 25.833 2.8507 38.667 3.0907 36.882 5.888 79.768 5.9093 90.598 0.0133 6.5754 1.1032 13.559 3.2266 20.667 2.4265 8.1226 3.4196 15.441 4.08 30.069 0.48009 10.633 1.7368 30.733 2.7926 44.667 1.0558 13.933 1.9264 30.733 1.9344 37.333 9e-3 7.1682 0.86014 14.684 2.1144 18.667 1.5311 4.8613 2.3396 15.332 2.9856 38.667 1.06 38.291 0.40996 36.557 19.459 51.903 9.8245 7.915 13.76 12.017 15.669 16.333 1.4022 3.1699 3.1214 5.7635 3.8204 5.7635s1.2709 0.6 1.2709 1.3333c0 1.3825-64.755 1.9831-68.273 0.63329-1.438-0.55179-1.6197-2.74-0.85814-10.333 1.5422-15.378 1.1729-26.559-1.0669-32.3-3.2196-8.2524-5.3883-18.305-8.4853-39.333-7.9537-54.005-19.772-110.31-29.239-139.32-3.5942-11.01-7.27-23.918-8.1686-28.685-2.603-13.808-6.5507-19.863-18.115-27.786-6.0384-4.1366-13.771-3.8507-19.19 0.70944-5.906 4.9696-22.046 38.985-24.103 50.798-0.83677 4.8051-3.1786 13.283-5.204 18.841-2.1183 5.812-4.0823 14.635-4.6235 20.771-0.51748 5.8667-3.9552 25.067-7.6394 42.667-4.937 23.585-7.0361 37.084-7.9824 51.333-1.2693 19.114-1.3513 19.47-7.2237 31.333-3.5409 7.1534-6.2435 14.693-6.6918 18.667-0.84766 7.5154 4.108 39.726 6.2225 40.444 0.71926 0.24445 1.3077 0.99445 1.3077 1.6667 0 0.71007-14.839 1.2222-35.412 1.2222-23.268 0-35.129-0.45723-34.588-1.3333zm239.83-337.31c-2.4075-0.97222-2.9773-2.6785-3.7897-11.348-0.52589-5.612-0.70649-10.453-0.40132-10.759 0.30518-0.30517 5.2098 1.0102 10.899 2.9231 6.9138 2.3246 10.788 3.0346 11.681 2.1412s0.77677-4.6694-0.35181-11.386c-1.3432-7.9936-1.3529-11.169-0.0477-15.526 0.90244-3.0121 2.2115-5.1238 2.9091-4.6927 1.7055 1.054 1.6088 33.347-0.1184 39.566-2.4254 8.733-11.654 12.766-20.78 9.0807zm-193.65-89.353c0-1.1 0.51566-3.2 1.1459-4.6667 0.72229-1.6808 1.1459-1.9273 1.1459-0.66666 0 1.1-0.51566 3.2-1.1459 4.6667-0.72229 1.6809-1.1459 1.9273-1.1459 0.66667zm201.15 0.14461c0-0.39717 0.99032-3.3152 2.2007-6.4846 1.9425-5.0863 1.9888-6.6561 0.39497-13.378-2.585-10.902-2.7234-17.678-0.40816-19.993 1.0812-1.0812 1.6313-2.7885 1.2225-3.7939s-1.1075-2.7281-1.5527-3.8281c-0.61602-1.5223 0.18017-2 3.3333-2h4.1426l-8e-3 50-4.6627 0.1c-2.5644 0.055-4.6626-0.22488-4.6626-0.62206zm6.7719-68.922c0.064-1.5533 0.37992-1.8692 0.80555-0.80556 0.38516 0.9625 0.3378 2.1125-0.1052 2.5556-0.44307 0.44306-0.75819-0.34445-0.70029-1.75zm-150.66-282.93c-0.16474-2.5067 3.7937-11.496 4.6744-10.615 0.41347 0.41348-0.44385 3.3556-1.9052 6.5381-1.4613 3.1825-2.7075 5.017-2.7693 4.0768z" fill="#171c22"/>
  <path d="m81.923 483.17c-8.2614-0.50988-15.363-1.2691-15.781-1.6872s0.20116-6.4034 1.3761-13.301c2.3712-13.92 1.6878-37.707-1.2547-43.675-2.3701-4.8072-0.19489-20.228 4.0359-28.612 1.8655-3.6969 4.2657-10.022 5.3338-14.055 1.7959-6.7818 1.7596-7.584-0.48345-10.667-1.8302-2.5153-2.9959-8.8959-4.7498-26-1.352-13.184-3.9804-29.286-6.2827-38.489-2.1771-8.7025-3.7517-16.442-3.4993-17.2 0.71652-2.1496 18.886 18.626 19.864 22.713 0.47932 2.0037 1.6484 5.56 2.5979 7.9029 1.6472 4.0645 1.235 6.2373-2.3111 12.181-0.14481 0.24274-1.5271-0.235-3.0717-1.0617-5.2696-2.8202-5.2696 0.0107-1.63e-4 10.993l5.2668 10.976 1.9895 39.326 1.9895 39.326 10.667 25.109c5.867 13.81 10.667 25.66 10.667 26.333 0 1.3227-3.3343 1.3085-26.354-0.11227zm130.1-58.032c-0.92804-0.92804 0.0236-26.241 1.1766-31.298l0.76-3.3333 1.2284 4c0.67562 2.2 1.5065 8.5 1.8463 14 0.33986 5.5 0.75923 11.5 0.93195 13.333 0.23259 2.4688-0.3918 3.4344-2.4075 3.7229-1.4968 0.21426-3.088 0.0232-3.5358-0.42468zm3.0298-73.298-0.11173-12-26.744-63.333c-14.709-34.833-27.758-64.314-28.997-65.512-1.2391-1.1982-10.834-5.325-21.322-9.1707l-19.069-6.9921-8.6482 3.6756c-4.7565 2.0216-8.9178 3.4061-9.2471 3.0767-1.3521-1.3521 7.7107-11.603 11.393-12.887 4.0535-1.413 5.2801-5.0178 2.6145-7.6834-0.94585-0.94585-6.4468-31.916-6.6345-37.352-0.0477-1.3816-6.8148-1.1576-11.311 0.37444l-5.8259 1.9851-4.4943-4.9042c-3.8884-4.243-5.7308-5.1091-13.665-6.4242-5.0439-0.83601-9.417-2.27-9.718-3.1867-0.41703-1.2701 3.2071-1.6679 15.231-1.6717 12.947-4e-3 16.496-0.44338 19.778-2.4482 5.7472-3.5104 15.333-20.118 15.333-26.564 0-4.6014 0.42237-5.2227 4.3333-6.3741 3.6428-1.0724 5.0747-2.8162 8.9858-10.942 2.5589-5.3167 5.3097-9.6667 6.1129-9.6667 0.80324 0 3.1116 1.8532 5.1298 4.1182l3.6694 4.1182 37.071-1.91 9.3644 7.1426v27.176c0 25.54 0.15267 27.224 2.5366 27.981 1.3951 0.44279 10.67 1.5585 20.612 2.4793 9.9413 0.92084 18.414 2.0131 18.828 2.4273 0.41416 0.41415 0.34817 1.808-0.14664 3.0974-0.73934 1.9267-1.9372 2.2022-6.7222 1.5464-3.2024-0.43893-12.506-1.204-20.674-1.7l-14.851-0.902 0.85102 7.2409c0.73315 6.238 0.49718 7.4619-1.7036 8.8363-1.4728 0.9198-2.733 3.4489-2.9757 5.9722-0.39514 4.1074-0.69947 4.3495-4.9432 3.9329-4.4298-0.43484-4.5048-0.35756-3.6763 3.7852 0.4652 2.326 3.1433 9.4257 5.9514 15.777 4.1517 9.3906 6.2086 12.361 11.01 15.897 3.2472 2.3917 8.6853 6.9658 12.085 10.165 4.9311 4.6404 6.0513 6.4929 5.5408 9.1632-0.35189 1.8408 2.3929 17.667 6.0995 35.169 5.7289 27.051 7.0376 36.041 8.729 59.964 1.0943 15.479 2.1682 28.979 2.3865 30 0.41315 1.9335-1.9733 2.1566-5.8828 0.54992-1.7298-0.71084-2.7489 0.13794-4.2246 3.5186-1.8968 4.3453-1.9476 4.1589-2.0566-7.5446zm3.8942-117.33c-0.92591-1.1156-1.0703-2-0.32652-2 0.73333 0 2.0803 0.9 2.9932 2 0.92591 1.1156 1.0703 2 0.32652 2-0.73333 0-2.0803-0.9-2.9932-2z" fill="#020201"/>
 </g>
</svg>
