<?xml version="1.0" encoding="UTF-8"?>
<!-- Created with Inkscape (http://www.inkscape.org/) -->
<svg width="289.33" height="882.67" version="1.1" viewBox="0 0 289.33 882.67" xmlns="http://www.w3.org/2000/svg" xmlns:cc="http://creativecommons.org/ns#" xmlns:dc="http://purl.org/dc/elements/1.1/" xmlns:rdf="http://www.w3.org/1999/02/22-rdf-syntax-ns#">
 <metadata>
  <rdf:RDF>
   <cc:Work rdf:about="">
    <dc:format>image/svg+xml</dc:format>
    <dc:type rdf:resource="http://purl.org/dc/dcmitype/StillImage"/>
    <dc:title/>
   </cc:Work>
  </rdf:RDF>
 </metadata>
 <g stroke-width=".69213">
  <path d="m99.89 873.88c6.9085-9.5893 10.279-15.389 10.702-18.415 1.4392-10.289 4.5392-51.209 4.5392-59.918 0-7.8575 0.2665-11.082 1.0733-12.987 0.75395-1.78 1.1527-5.6399 1.3402-12.973 0.14686-5.7418 0.61137-18.019 1.0323-27.282 0.42088-9.2634 0.83697-20.478 0.92456-24.921 0.15778-7.9993 0.14376-8.0789-1.431-8.0776-2.4377 2e-3 -6.2245-1.7843-7.0644-3.3325-0.41413-0.7633-0.75298-2.3056-0.75298-3.4272s-1.3936-6.478-3.097-11.904c-4.3696-13.918-5.2597-22.763-5.2811-52.486-9e-3 -12.855 0.0814-24.146 0.20153-25.091 1.4895-11.724 6.1471-29.221 11.162-41.934 4.5446-11.519 6.6853-17.725 7.114-20.623 0.32305-2.1838 0.8868-2.7017 6.1036-5.6069 3.1612-1.7605 6.7438-3.6901 7.9612-4.288 1.8531-0.91011 2.3399-1.6764 2.9889-4.7046 0.42636-1.9897 2.2816-8.9534 4.1228-15.476 2.2483-7.9647 3.0691-11.858 2.4995-11.858-0.46644 0-2.1193 0.44245-3.6731 0.98325l-2.825 0.98325-2.3149-2.7403c-2.0718-2.4525-2.7686-2.8025-6.6348-3.3321-3.1125-0.42638-5.2549-1.2321-7.6655-2.8831l-3.3457-2.2914 11.15-0.34372c6.6722-0.20568 11.726-0.67051 12.586-1.1575 2.4856-1.4087 6.5792-8.9977 6.5692-12.179-4e-3 -1.5503 0.82856-5.5255 1.852-8.8335 1.7668-5.711 1.9604-6.0151 3.8314-6.0151h1.9706l-1.4547 3.609c-2.9406 7.2961-2.8299 6.7898-1.2778 5.8369 0.76404-0.46915 2.2447-2.9373 3.2904-5.4847 1.7972-4.378 2.0254-4.6322 4.1662-4.6402 1.2456-4e-3 2.2752 0.22355 2.288 0.50711 0.0127 0.28357 0.60495 1.2033 1.316 2.0438 1.27 1.5012 1.4637 1.5177 10.952 0.9318l9.6599-0.59642 5.8803 4.3234 0.0215 14.173 0.0215 14.173 11.114 0.88797c6.1127 0.48839 11.462 1.1 11.887 1.3592 0.52743 0.32155 0.27807 1.2987-0.78491 3.076l-1.558 2.6048-5.9738-0.4436c-3.2856-0.24398-7.9508-0.63921-10.368-0.87828-4.3668-0.43199-4.3914-0.42455-4.0024 1.2109 0.21528 0.90503 1.3418 7.214 2.5034 14.019 2.7992 16.4 3.2178 17.404 9.0243 21.651 9.3981 6.8726 16.461 17.358 21.647 32.133 5.9887 17.065 8.318 34.742 8.321 63.157 1e-3 14.482 0.26985 19.661 1.3884 26.81 1.7069 10.909 1.9416 28.183 0.42203 31.064-1.9211 3.6424-4.3361 5.2142-8.0113 5.2142-4.3381 0-6.8642-1.5764-7.3001-4.5557-0.18019-1.2317-1.1628-9.8184-2.1837-19.082-1.4934-13.551-2.4594-19.194-4.9433-28.878-2.1439-8.3574-3.2518-14.345-3.6258-19.592l-0.53858-7.5566-0.54704 6.5306c-0.30087 3.5919-0.77467 7.6137-1.0528 8.9368-0.28637 1.3621-0.14332 3.9571 0.32975 5.9811 0.6059 2.5924 0.62333 3.6449 0.0634 3.829-0.81904 0.26932-0.67115 1.0503 2.231 11.782 0.80872 2.9907 1.4704 7.4867 1.4704 9.9904 0 2.504 0.79052 13.668 1.7567 24.81 0.96621 11.141 1.9573 26.289 2.2025 33.662 0.38281 11.51 0.6832 14.133 2.1256 18.561 1.3739 4.2169 1.793 7.4719 2.3016 17.874 0.34202 6.9945 0.94195 16.43 1.3332 20.967 0.39123 4.5371 0.71629 12.156 0.72235 16.93 8e-3 6.6204 0.29039 9.3128 1.1881 11.343 0.95795 2.1665 1.2525 5.8602 1.5826 19.848 0.33398 14.149 0.60946 17.557 1.5591 19.288 0.63438 1.1561 4.4222 4.6269 8.4176 7.7132 6.5737 5.078 7.406 5.978 8.7626 9.4738 0.82421 2.1245 1.4985 3.9899 1.4985 4.1453s-8.6181 0.28255-19.151 0.28255h-19.151l-0.44946-1.7666c-0.2472-0.97163-0.0737-4.0643 0.38552-6.8726 0.96945-5.9281 0.42651-11.902-1.4079-15.492-1.2162-2.3799-1.697-4.7141-3.4548-16.772-3.6969-25.361-10.691-58.344-15.339-72.332-1.912-5.7548-3.9739-12.87-4.582-15.811-1.3806-6.6782-2.9475-9.2467-7.4768-12.255-4.0099-2.6638-5.1721-2.8451-8.2325-1.284-1.7402 0.88771-3.0793 3.0244-7.2568 11.578-2.8175 5.7696-5.3186 11.853-5.5579 13.519-0.23933 1.6662-1.4783 6.2776-2.7532 10.248-1.3731 4.2755-2.4617 9.3198-2.6703 12.374-0.19372 2.8357-2.1022 13.315-4.2412 23.286-3.1728 14.792-3.8896 19.349-3.8928 24.748-4e-3 7.4289-0.75453 10.853-3.1682 14.461-4.1792 6.2464-4.7797 12.205-2.4321 24.133 0.78027 3.9647 1.4197 7.4405 1.4208 7.7241 1e-3 0.28357-8.6188 0.51558-19.156 0.51558h-19.158zm23.718-196.14c1.059-3.8022 1.4063-7.0317 1.3604-12.651-0.0339-4.15-0.22264-7.7042-0.41945-7.8986-0.93488-0.92223-1.3343 1.4251-2.1127 12.414-0.46224 6.5261-0.9208 12.175-1.0191 12.553-0.0982 0.37809-0.0988 1.4608-1e-3 2.406l0.17743 1.7186 0.29629-1.7186c0.16295-0.94526 0.9362-4.0161 1.7183-6.8245zm5.2572-51.772c-0.16668-0.85511-0.30939-0.31735-0.31713 1.195-8e-3 1.5124 0.12865 2.212 0.30307 1.5548s0.18075-1.8946 0.0141-2.7498z" fill="#d8e2e7"/>
  <path d="m97.951 876.97c4.7106-6.078 11.325-16.615 12.07-19.227 1.3009-4.5623 4.9025-49.092 4.9025-60.614 0-8.5313 0.24715-11.484 1.1357-13.566 1.2355-2.8959 1.2601-3.2835 2.3464-37.034 0.40159-12.477 0.84618-25.856 0.98803-29.732 0.23853-6.5178 0.16006-7.0465-1.0467-7.0465-2.8047 0-6.7792-2.159-7.608-4.1326-0.45527-1.0842-0.65852-2.2415-0.45167-2.5716 0.20685-0.33013-1.1741-5.4743-3.0688-11.431-1.8947-5.9571-3.4449-11.025-3.4449-11.261 0-0.23657 0.79567 0.6338 1.7682 1.9342l1.7682 2.3643-0.4963-6.8707c-0.55599-7.6971-0.62398-16.484-0.22606-29.213 0.22275-7.1254 0.0664-8.9656-0.91571-10.776l-1.1844-2.1836 2.3628-0.76926c2.5604-0.83356 2.7924-1.3396 3.5788-7.8068 0.54467-4.4793 1.0216-4.878 6.7112-5.611l3.2623-0.4203 1.0498-4.6052c0.57738-2.5329 1.5341-7.2345 2.1261-10.448l1.0763-5.8432-2.8403-10.655c-1.5622-5.8604-2.9881-11.584-3.1688-12.718-0.18071-1.1344 0.1426-7.7696 0.71843-14.745 1.2234-14.819 0.0274-12.962 12.531-19.46 7.1494-3.715 8.6786-4.824 11.362-8.2419 1.7137-2.1825 3.8634-4.1378 4.8052-4.371 1.9946-0.49386 1.9906-0.47788 0.73972-2.885-0.53056-1.021-1.3767-5.2065-1.8802-9.3012-1.1701-9.5142-1.3256-9.7273-6.0156-8.2406l-3.634 1.1522-1.5925-1.9596c-0.87589-1.0778-1.7973-2.2632-2.0476-2.6342-0.25032-0.37102-2.4232-0.94007-4.8285-1.2646-3.0181-0.40716-5.465-1.2801-7.8963-2.8169l-3.523-2.2269 11.139-0.34371c12.175-0.37572 13.561-0.76362 15.416-4.3169 0.63569-1.2176 1.8933-3.171 2.7947-4.341 1.2823-1.6644 1.6443-3.0106 1.6635-6.187 0.0346-5.7006 2.592-12.924 4.6792-13.216 1.9834-0.27787 1.9646 0.31516-0.17421 5.5076-2.0659 5.0154-2.0272 4.7447-0.59988 4.2044 0.62826-0.23782 2.2057-2.7029 3.5055-5.4779 1.9921-4.2534 2.63-5.0455 4.0633-5.0455 1.0804 0 2.2627 0.75053 3.2434 2.059l1.5431 2.059 19.834-0.88899 5.6936 4.4484v14.035c0 13.132 0.0819 14.035 1.2727 14.035 1.6015 0 15.498 1.2642 19.478 1.772l2.9807 0.38025-1.5411 2.7048c-0.84758 1.4876-2.0321 2.7071-2.6322 2.7098-0.60016 3e-3 -5.0942-0.35352-9.9865-0.79166-4.8925-0.43814-9.0811-0.61333-9.3082-0.38932-0.22709 0.22402-0.0711 1.895 0.34657 3.7133 0.4177 1.8183 1.5828 8.2553 2.589 14.305 1.0214 6.1401 2.4234 12.148 3.1737 13.599 0.81587 1.578 3.1031 3.848 5.8197 5.7758 15.245 10.819 25.511 35.225 28.573 67.93 0.58151 6.2099 1.0375 18.632 1.0473 28.529 0.0139 14.029 0.292 19.245 1.3929 26.122 1.6709 10.437 1.9019 26.342 0.43288 29.811-1.5103 3.5658-4.1995 5.2491-8.3858 5.2491-5.0078 0-6.4871-1.2035-6.9771-5.6761-3.4393-31.394-4.0718-35.611-7.0755-47.177-2.4307-9.359-3.2077-13.756-3.5838-20.28l-0.48028-8.3291-0.8933 8.5928c-1.0712 10.304-1.0779 10.48-0.68406 17.874 0.17121 3.2138 0.97542 8.009 1.7872 10.655 1.0093 3.2906 1.6983 8.2894 2.1796 15.811 0.387 6.0494 1.0074 14.247 1.3786 18.217 1.2952 13.85 2.7774 36.827 2.7938 43.309 0.0126 4.9891 0.42545 7.8287 1.749 12.03 1.4368 4.561 1.8524 7.846 2.4348 19.249 0.38628 7.5617 1.0026 16.997 1.3695 20.967 0.36695 3.97 0.67773 11.125 0.69064 15.899 0.0178 6.5698 0.30784 9.3282 1.1928 11.343 0.94453 2.1501 1.2474 5.8996 1.5753 19.504 0.34621 14.365 0.58905 17.175 1.6508 19.105 0.68472 1.2444 4.3435 4.6472 8.1308 7.5617 6.0125 4.6273 7.1129 5.8063 8.6778 9.2974 0.98589 2.199 1.7925 4.1324 1.7925 4.2965s-8.4286 0.29841-18.73 0.29841c-15.688 0-18.869-0.16527-19.586-1.0176-0.67561-0.80308-0.6775-2.259-9e-3 -6.9053 0.97351-6.7655 0.4929-12.108-1.486-16.522-0.75608-1.686-1.803-6.2336-2.3264-10.106-3.7039-27.396-11.258-63.881-16.404-79.223-1.9022-5.6714-3.9663-12.787-4.5869-15.811-1.2754-6.2158-2.9509-8.872-7.5763-12.012-3.6307-2.4642-6.4322-2.6435-9.0892-0.58171-2.7439 2.1292-11.286 20.058-12.177 25.556-0.37653 2.325-1.5888 6.7013-2.6941 9.7247-1.2707 3.4761-2.1617 7.5457-2.4235 11.068-0.22768 3.0642-2.1132 13.582-4.1901 23.373-2.9331 13.827-3.8701 19.76-4.1967 26.574-0.41216 8.5967-0.47604 8.8713-3.1938 13.757-4.1949 7.5399-4.6072 10.44-2.8966 20.376 0.78337 4.5498 1.6232 9.0542 1.8664 10.01l0.44207 1.7375h-38.47zm26.684-204.68c0.36111-2.2722 0.42386-7.0574 0.13972-10.655-0.50365-6.377-0.53448-6.4658-1.3098-3.7809-0.43676 1.5123-0.98914 6.462-1.2276 10.999-0.23843 4.5371-0.72834 9.7382-1.0887 11.559-0.36036 1.82-0.44269 4.1401-0.18297 5.1558 0.39124 1.5301 0.69017 0.90356 1.7431-3.6528 0.69896-3.0248 1.5658-7.3558 1.9264-9.624zm4.2289-46.322c-0.57057-0.96323-0.66218-0.92813-0.68719 0.26348-0.0159 0.75618-0.17839 2.6122-0.36115 4.1247l-0.33229 2.7498 1.0194-3.0133c0.67837-2.0051 0.79921-3.3851 0.36115-4.1247z" fill="#9c9e9f"/>
  <path d="m95.864 882.1c0.3065-0.48203 3.1767-4.6966 6.3782-9.366 3.2015-4.6694 6.251-9.5053 6.777-10.747 1.4614-3.4504 5.1723-46.964 5.1723-60.65 0-9.7953 0.21251-12.154 1.3938-15.469 1.0582-2.9699 1.3938-5.674 1.3938-11.231 0-4.0255 0.30101-14.01 0.66892-22.187 0.3679-8.1777 0.81757-20.482 0.99924-27.344l0.33034-12.475-3.2641-0.80924c-4.1189-1.0212-5.7031-2.4244-5.7031-5.0516 0-1.1386-1.4322-6.5351-3.1828-11.992-2.9558-9.2146-3.5938-12.597-1.7267-9.1556 0.95936 1.7683 7.2382 5.0006 8.6646 4.4606 0.80769-0.30574 0.89196-0.78755 0.37308-2.1338-0.4592-1.1914-0.32243-4.2194 0.43442-9.6182 0.86904-6.199 0.94667-8.8578 0.36417-12.467-0.72121-4.4685-0.69526-4.624 0.99909-5.9883 2.1696-1.747 2.1736-2.1237 0.0281-2.6549-0.94129-0.23307-2.5227-0.72801-3.5143-1.0999l-1.8028-0.67616 10.401-13.548-2.9055-2.9174c-2.7052-2.7162-2.8158-2.9723-1.6034-3.7154 4.2052-2.5774 4.4362-3.452 6.6906-25.333 0.75018-7.282 0.73457-7.4385-1.7143-17.186-1.3592-5.4105-2.7456-10.475-3.0808-11.255-0.36253-0.8433-0.22476-6.4132 0.34007-13.749 0.52222-6.7821 0.97049-13.105 0.99614-14.05 0.0541-1.9911 2.7711-3.9044 13.179-9.2807 5.3132-2.7445 7.2732-4.1992 9.7255-7.2178 1.6892-2.0795 3.9491-4.0523 5.022-4.3841 1.8334-0.56687 1.8894-0.69541 0.93111-2.1381-0.56076-0.84427-1.5369-5.3678-2.1691-10.052-0.63224-4.6845-1.3807-8.7834-1.6632-9.1087-0.28255-0.32523-2.174-0.0473-4.2032 0.61752l-3.6894 1.2088-2.4708-2.7841c-2.2331-2.5163-2.8801-2.8291-6.7269-3.2516-2.9747-0.32675-5.1777-1.0706-7.3171-2.4708l-3.0609-2.0033 9.9585-3e-3c8.6129-3e-3 10.331-0.1906 12.718-1.3918 1.5178-0.76407 2.7597-1.7924 2.7597-2.2852 0-0.49285 1.0976-2.419 2.439-4.2803 2.0067-2.7843 2.4386-3.9937 2.4368-6.8238-7.4e-4 -1.8917 0.67165-5.6822 1.4953-8.4234 1.3092-4.3574 1.7037-4.984 3.1381-4.984 0.90236 0 1.6407 0.11213 1.6407 0.24918 0 0.13704-0.93797 2.4931-2.0844 5.2356-2.016 4.8228-2.0332 4.954-0.52266 3.9976 1.5515-0.98235 3.927-4.9374 5.3013-8.8264 0.99784-2.8236 3.6439-2.773 5.7246 0.10944l1.5449 2.1403 19.909-0.98177 5.6677 4.4931v13.977c0 7.6875 0.2352 13.986 0.52266 13.998 0.28746 0.0113 5.0697 0.46606 10.627 1.0107s10.663 0.99949 11.345 1.0107c1.1325 0.0186 1.1022 0.25898-0.34844 2.7649-0.87382 1.5095-1.9023 2.7327-2.2856 2.7184-0.38327-0.0144-5.042-0.41657-10.353-0.8938l-9.6554-0.86769 0.45479 2.7895c0.25013 1.5343 0.58344 3.8723 0.74067 5.1956 0.85886 7.2274 3.7822 21.353 4.9366 23.854 0.94181 2.0402 2.6877 3.8545 5.9537 6.187 19.847 14.174 29.856 47.122 29.883 98.37 7e-3 13.513 0.28999 18.736 1.3847 25.574 1.5154 9.4661 1.8251 22.844 0.62729 27.1-1.18 4.1924-4.035 6.5852-7.858 6.5852-3.6556 0-6.5451-1.1085-6.9915-2.6822-0.17141-0.60428-0.51672-3.1095-0.76729-5.5671-2.236-21.929-4.079-34.205-6.553-43.653-2.8649-10.939-4.1861-18.999-4.3288-26.404-0.0789-4.0936-0.18179-3.7347-1.0662 3.7184-0.53839 4.5371-0.94638 10.26-0.90671 12.718 0.0397 2.4576 0.0502 5.9607 0.0234 7.7844s0.71175 6.0002 1.6413 9.2807c1.049 3.7016 1.8554 8.8328 2.1257 13.526 0.23951 4.159 1.0366 14.832 1.7714 23.717 1.7422 21.068 2.7703 36.971 2.7703 42.854 0 3.0053 0.61545 6.7616 1.6913 10.323 1.2894 4.2682 1.7967 7.9679 2.1344 15.567 0.2437 5.4823 0.89374 15.687 1.4446 22.679 0.5508 6.9907 1.0014 15.691 1.0014 19.334 0 4.3168 0.38417 7.6702 1.1033 9.631 0.83416 2.2743 1.2166 7.146 1.568 19.973 0.54489 19.893-0.20231 17.961 10.188 26.344 5.9744 4.8206 7.0148 5.9875 8.4286 9.452l1.613 3.9528h-18.742c-21.691 0-20.628 0.36096-19.47-6.616 1.2979-7.8184 0.93598-11.521-2.0075-20.538-0.74052-2.2686-1.8478-7.8601-2.4607-12.425-1.5019-11.19-6.8685-40.344-9.8862-53.707-1.3489-5.9734-3.9815-15.501-5.8502-21.172-1.8687-5.6714-3.7814-12.322-4.2505-14.78-1.0411-5.4548-1.9416-7.282-4.9464-10.036-5.0471-4.6259-9.0155-5.6586-12.227-3.1821-2.3879 1.8414-11.298 20.663-12.096 25.552-0.37196 2.2785-1.5703 6.5447-2.663 9.4815-1.166 3.1333-2.1922 7.6105-2.4841 10.838-0.27353 3.0248-2.0734 12.924-3.9996 21.998-2.588 12.192-3.7198 19.376-4.3357 27.521-0.82133 10.863-0.87022 11.082-3.3804 15.123-4.3892 7.067-4.7306 11.484-1.9779 25.583l1.2414 6.3588h-18.737c-15.012 0-18.627-0.17425-18.181-0.87641zm26.961-200.42c1.1124-1.7756 1.83-10.755 1.3979-17.491-0.76729-11.961-1.517-8.7038-3.7692 16.378-0.87206 9.7119-0.19169 13.458 1.1458 6.3091 0.47536-2.5408 1.0268-4.879 1.2255-5.1961zm5.5486-52.69c-0.44863-1.3917-0.45345-1.3918-0.99556-0.0237-0.29962 0.75618-0.53581 2.767-0.52485 4.4684l0.0199 3.0935 0.97564-3.0699c0.53662-1.6884 0.77282-3.6992 0.52486-4.4684zm5.3246-21.485c-0.75483-1.1607-0.77547-1.1589-0.39531 0.0347 0.22058 0.69259 0.43743 1.7753 0.48188 2.406 0.0728 1.0332 0.11201 1.0297 0.39532-0.0346 0.17296-0.64978-0.0439-1.7325-0.48189-2.406z" fill="#5f6264"/>
  <path d="m102.01 873.44c3.6161-5.2473 6.9194-10.429 7.3406-11.515 1.4054-3.6226 4.8111-45.059 4.8255-58.712 0.0113-10.64 0.22901-13.361 1.3201-16.498 1.3976-4.0187 1.5395-6.5646 2.87-51.461 0.36295-12.248 0.51942-22.493 0.34771-22.767-0.17172-0.27463-1.4951-0.68605-2.9409-0.9155-4.0688-0.64568-5.7636-2.1523-5.7708-5.1301-3e-3 -1.3964-1.3966-6.87-3.0961-12.163-2.0787-6.4742-2.7032-9.1742-1.9082-8.2496 1.5529 1.8066 7.4886 4.5422 8.7884 4.0502 0.78433-0.29691 0.86528-0.78825 0.35008-2.125-0.45919-1.1914-0.32243-4.2194 0.43442-9.6182 0.86904-6.199 0.94667-8.8578 0.36417-12.467-0.7212-4.4685-0.69526-4.624 0.99909-5.9883 2.1696-1.747 2.1736-2.1237 0.0281-2.6549-0.94129-0.23306-2.5227-0.72801-3.5143-1.0999l-1.8028-0.67616 10.401-13.548-2.9055-2.9173c-2.7052-2.7162-2.8158-2.9723-1.6034-3.7154 4.2084-2.5793 4.4888-3.6513 6.7237-25.704 0.75977-7.4976 0.75527-7.5418-1.7543-17.372-1.3838-5.4208-2.7807-10.345-3.1041-10.943-0.32979-0.60942-0.16913-6.5204 0.36585-13.46 0.52462-6.8059 0.9654-13.147 0.97948-14.092 0.0288-1.9269 0.37047-2.1644 12.313-8.5588 6.3223-3.3852 8.3586-4.8786 10.946-8.0295 1.7637-2.1473 3.9727-4.0674 4.9607-4.312 1.7149-0.42459 1.7429-0.51388 0.75431-2.3999-0.56476-1.0774-1.5725-5.8653-2.2394-10.64-1.3522-9.6811-1.196-9.5008-6.5961-7.6176l-3.0493 1.0631-2.439-2.7741c-2.1954-2.497-2.8568-2.8203-6.6202-3.2359-2.7223-0.30059-5.138-1.0828-6.9232-2.2418l-2.742-1.7801 10.059-0.34372c7.8366-0.26777 10.559-0.61346 12.324-1.5644 1.2456-0.67135 2.2648-1.491 2.2648-1.8214s1.0976-2.2096 2.439-4.176c1.9794-2.9016 2.4456-4.2424 2.4742-7.1152 0.0193-1.947 0.73635-5.7054 1.5934-8.3522 1.2544-3.8738 1.8609-4.8552 3.1102-5.033l1.5519-0.22089-1.4742 3.6581c-0.81079 2.0119-1.7481 4.3541-2.0828 5.2049-0.33471 0.85069-0.36186 1.5467-0.0604 1.5467 1.3266 0 3.5256-2.9446 5.3345-7.1434 2.2928-5.3218 3.9414-5.9166 6.5929-2.3786l1.6224 2.1647 19.796-0.88732 5.0454 3.776 0.0508 28.42 1.9164 0.36287c1.054 0.19959 6.385 0.73083 11.847 1.1805 5.4617 0.44968 9.929 1.007 9.9275 1.2385-1e-3 0.23148-0.63552 1.445-1.4091 2.6966-0.95427 1.544-1.7937 2.1691-2.6106 1.9443-0.66229-0.18225-4.0264-0.52388-7.476-0.75918-3.4496-0.23531-7.5682-0.59859-9.1519-0.80732l-2.8803-0.37955 0.61763 2.9877c0.3397 1.6432 0.758 4.0704 0.92964 5.3937 1.0275 7.9236 3.9477 22.122 4.9956 24.291 0.7723 1.5976 2.9475 3.7815 5.8407 5.8638 6.077 4.3739 12.602 12.366 16.502 20.213 1.735 3.4904 3.271 6.9426 3.4133 7.6721 0.14237 0.72922 1.2021 4.1322 2.3549 7.5624 5.0346 14.979 7.6294 36.541 7.6685 63.714 0.0189 13.37 0.31481 18.777 1.4104 25.779 2.478 15.838 1.708 26.588-2.1665 30.25-1.777 1.6794-2.6684 1.9836-5.8127 1.9836-4.6658 0-6.644-1.513-6.6558-5.0905-4e-3 -1.3592-0.93583-10.205-2.0697-19.657-1.5361-12.806-2.7542-19.814-4.7789-27.498-2.7309-10.363-4.221-19.881-4.3774-27.958-0.0599-3.093-0.46655-0.87251-1.4064 7.6792-1.0243 9.3198-1.1538 12.713-0.57497 15.06 0.5535 2.2443 0.53867 3.1571-0.0571 3.5204-0.78011 0.47563 0.86535 8.315 2.7978 13.329 0.39534 1.0257 0.72297 3.9329 0.7281 6.4607 4e-3 2.5275 0.76876 13.567 1.6969 24.531 0.92824 10.964 2.0594 26.896 2.5137 35.403 0.67433 12.627 1.1305 16.484 2.4843 21.002 1.1269 3.7616 1.6582 7.2582 1.6582 10.913 0 2.9578 0.61804 13.924 1.3734 24.369 0.75542 10.445 1.4934 21.465 1.64 24.49 0.14663 3.0248 0.64983 6.7372 1.1182 8.2496 0.52833 1.7058 0.93842 8.6602 1.0802 18.317 0.19144 13.042 0.42509 15.976 1.4402 18.087 0.80748 1.6786 3.5945 4.3538 8.3542 8.0192 6.076 4.6789 7.3621 6.0212 8.6115 8.9875 0.80798 1.9179 1.469 3.7552 1.469 4.0829 0 0.78582-35.603 0.75361-36.862-0.0334-0.78498-0.49032-0.85739-1.6531-0.37366-6.0046 0.87397-7.862 0.4884-13.684-1.111-16.776-0.75181-1.4537-1.6913-4.7468-2.0876-7.3179-6.1591-39.951-12.045-68.88-16.738-82.271-1.5182-4.3317-3.5554-11.195-4.5272-15.252-1.9659-8.2072-3.1856-10.339-7.6523-13.37-7.3898-5.0153-9.8951-3.4831-16.449 10.058-3.1952 6.6018-5.1617 11.665-5.796 14.923-0.52798 2.7124-1.7903 7.0972-2.8053 9.7433-1.1769 3.0692-2.0611 7.1774-2.4409 11.343-0.32762 3.5919-2.2275 14.11-4.2219 23.373-2.8889 13.417-3.7205 18.749-4.0898 26.217-0.44342 8.9669-0.56008 9.5284-2.6808 12.894-4.6916 7.445-5.2197 11.675-2.9772 23.845 0.76073 4.1286 1.3879 7.8928 1.3938 8.3657 8e-3 0.66602-4.1356 0.85928-18.426 0.85928l-18.436-2e-5zm19.744-185.86c0.44072-2.3631 1.2645-6.3073 1.8307-8.7648 1.0631-4.6148 1.2239-11.478 0.45112-19.249l-0.44437-4.4684-0.92772 3.4372c-0.51026 1.8905-1.2046 7.3038-1.5431 12.03-0.33844 4.7261-0.82487 11.455-1.0809 14.952-0.543 7.4161 0.48521 8.6532 1.7144 2.0623zm6.7234-58.843c-0.72261-2.8402-1.503-0.56603-1.9691 5.7382l-0.4066 5.4995 1.4174-4.7168c0.84869-2.8244 1.2332-5.4407 0.95832-6.521zm5.2192-21.222c-0.75483-1.1607-0.77548-1.1589-0.39532 0.0346 0.22058 0.69259 0.43743 1.7753 0.48189 2.406 0.0728 1.0332 0.11201 1.0297 0.39531-0.0346 0.17296-0.64979-0.0439-1.7325-0.48188-2.406z" fill="#7a731f"/>
  <path d="m102.7 870.78c3.6161-5.2473 6.9194-10.429 7.3406-11.515 1.4054-3.6226 4.8111-45.059 4.8255-58.712 0.0113-10.64 0.22901-13.361 1.3201-16.498 1.3976-4.0187 1.5395-6.5646 2.87-51.461 0.36295-12.248 0.51942-22.493 0.34771-22.767-0.17172-0.27463-1.4951-0.68605-2.9409-0.9155-4.0688-0.64568-5.7636-2.1523-5.7708-5.1301-3e-3 -1.3964-1.3966-6.87-3.0961-12.163-2.1568-6.718-2.7179-9.1793-1.8582-8.1501 1.0059 1.2037 7.6242 5.0566 8.6859 5.0566 0.15833 0 1.6164-1.7358 3.2402-3.8575l2.9524-3.8575-0.99514-22.255 2.1554-5.4663c2.6831-6.8046 2.6879-7.5572 0.0534-8.4632l-2.1084-0.72505 3.3061-4.5336c2.4307-3.3331 3.4113-4.238 3.7032-3.4171 0.60393 1.6984 3.0052-8.2066 2.426-10.007-0.75018-2.3317-1.6966-0.32357-1.7935 3.8057l-0.0807 3.4372-0.66807-2.7498c-0.36744-1.5123-0.47098-3.9872-0.23008-5.4995 1.1234-7.0529-0.70761-21.97-4.4758-36.466l-2.6716-10.277 6.8614 7.2165c4.9384 5.1938 6.8668 7.7093 6.8802 8.9753 0.0103 0.96746 0.47918 2.3596 1.0419 3.0935 1.1156 1.4551 1.477 6.8213 0.41574 6.174-0.35846-0.21855-0.75041 0.58473-0.8711 1.785l-0.21936 2.1824-2.2648-1.8867c-1.2456-1.0377-2.2648-1.6977-2.2648-1.4667 0 0.23105 1.3005 2.9653 2.8899 6.0762l2.8899 5.6561 1.0016 20.146 1.0016 20.146 11.631 27.079 13.464 0.42417c7.4053 0.23329 18.682 0.4653 25.06 0.51558l11.597 0.0914 0.43864-7.3898c0.24124-4.0645 0.74981-14.66 1.1301-23.545 0.38034-8.8854 1.0044-22.38 1.3868-29.99l0.69531-13.835-14.232-33.194c-7.8277-18.257-14.651-33.425-15.164-33.707s-5.2244-2.0708-10.47-3.9744l-9.5375-3.461-7.5358 2.9922c-4.1446 1.6458-10.657 4.4232-14.471 6.1723-8.8164 4.0424-8.1197 3.3514 1.9865-1.9698 6.5637-3.4559 8.4905-4.851 11.119-8.0513 1.7637-2.1473 3.9727-4.0674 4.9607-4.312 1.7149-0.4246 1.7429-0.51389 0.75431-2.3999-0.56476-1.0774-1.5725-5.8653-2.2394-10.64-1.3522-9.6811-1.196-9.5008-6.5961-7.6176l-3.0493 1.0631-2.439-2.7741c-2.1954-2.497-2.8568-2.8203-6.6202-3.2359-2.7223-0.30059-5.138-1.0828-6.9232-2.2418l-2.742-1.7801 10.059-0.34373c7.8366-0.26776 10.559-0.61345 12.324-1.5644 1.2456-0.67135 2.2648-1.491 2.2648-1.8214s1.0976-2.2096 2.4391-4.176c1.9795-2.9016 2.4456-4.2424 2.4742-7.1152 0.0193-1.947 0.73635-5.7054 1.5934-8.3522 1.2544-3.8738 1.8609-4.8552 3.1102-5.033l1.5519-0.22089-1.4742 3.6581c-0.81079 2.0119-1.7481 4.3541-2.0828 5.2049-0.33466 0.85075-0.36188 1.5467-0.0604 1.5467 1.3266 0 3.5256-2.9446 5.3345-7.1434 2.2928-5.3218 3.9414-5.9166 6.5929-2.3786l1.6224 2.1647 19.796-0.88733 5.0454 3.7761 0.0508 28.42 1.9164 0.36287c1.054 0.19959 6.385 0.73083 11.847 1.1805 5.4617 0.44968 9.929 1.007 9.9275 1.2385-1e-3 0.23147-0.6135 1.4092-1.3601 2.6172-1.1763 1.903-1.6645 2.1551-3.656 1.8876-5.5666-0.74763-18.263-1.6257-18.607-1.2869-0.20778 0.20497 0.12388 1.7489 0.73701 3.4308l1.1148 3.0582-1.8226 0.86172c-1.0024 0.47394-1.917 1.478-2.0324 2.2314-0.58091 3.7911-0.9424 4.5755-1.927 4.1819-0.55886-0.22342-1.4865-0.59398-2.0614-0.82348-1.5985-0.63808-1.3074 0.48671 2.1283 8.2258 2.5257 5.6892 3.6976 7.5162 5.7402 8.9502 2.3269 1.6332 2.6079 1.6892 3.0096 0.59891 0.35382-0.96047 0.69851-0.68097 1.7123 1.3882 0.8029 1.639 2.9834 3.8246 5.9351 5.9491 6.3381 4.5619 14.021 14.024 15.423 18.994 0.58107 2.0594 0.93767 3.7444 0.79243 3.7444-0.14525 0-1.0573-1.7788-2.0267-3.9528-1.2581-2.8212-3.5-5.6883-7.8307-10.015-3.3375-3.3341-6.582-6.3426-7.2099-6.6859-1.0062-0.54961-1.073-0.31996-0.56261 1.9374 5.7103 25.258 6.9285 32.367 8.0106 46.744 0.80083 10.644 1.4081 15.249 2.1128 16.022 1.3124 1.4404 1.2515 2.0644-0.14994 1.534-1.0343-0.39154-1.105 0.60399-0.77046 10.849 0.38321 11.736 2.3033 23.195 5.3166 31.73 0.96982 2.7471 1.7329 8.0879 2.5031 17.52 0.60934 7.4623 1.332 13.764 1.6058 14.004 0.69218 0.60643 11.491 4.0928 11.783 3.8043 0.13087-0.1291-0.24521-2.5005-0.83579-5.2699-1.0197-4.7819-1.0031-5.2452 0.32925-9.2108 1.3444-4.0017 1.3605-4.5311 0.38609-12.69-0.55927-4.6829-1.1137-8.6102-1.2322-8.727-0.11842-0.11681-1.4521 0.0628-2.9636 0.39908-1.5116 0.33631-2.8082 0.55122-2.8814 0.47759-0.0731-0.0736 0.62811-1.9127 1.5584-4.0869 1.5257-3.5656 1.6123-4.273 0.88415-7.2178-0.444-1.7958-1.061-3.7591-1.3711-4.3628-0.33036-0.64318-0.23789-1.4192 0.22332-1.8742 0.58497-0.57706 0.47203-1.12-0.43973-2.1138-1.1802-1.2864-1.1581-1.3818 0.57917-2.5047l1.806-1.1673-2.9115-4.6473h3.5412c3.9609 0 4.2784-0.41001 1.8631-2.406l-1.6636-1.3749 2.7765-2.9767-3.6732-2.3742 1.5438-1.621c0.84906-0.89156 1.1907-1.621 0.75911-1.621-0.5465 0-0.74554-2.5944-0.65581-8.5473 0.0709-4.701 0.22105-8.4562 0.33371-8.3452 0.11265 0.11114 0.82089 6.6641 1.5738 14.563 0.91688 9.6176 1.3709 19.834 1.3748 30.935 4e-3 13.096 0.29683 18.434 1.3922 25.435 2.478 15.838 1.708 26.588-2.1664 30.25-1.777 1.6794-2.6684 1.9836-5.8127 1.9836-4.6658 0-6.644-1.513-6.6557-5.0905-4e-3 -1.3592-0.93583-10.205-2.0697-19.657-1.5361-12.806-2.7542-19.814-4.7789-27.498-2.7309-10.363-4.221-19.881-4.3774-27.958-0.0599-3.093-0.46656-0.87251-1.4064 7.6792-1.0243 9.3198-1.1538 12.713-0.57497 15.06 0.55349 2.2443 0.53867 3.1571-0.0571 3.5204-0.78012 0.47563 0.86535 8.315 2.7978 13.329 0.39534 1.0257 0.72298 3.9329 0.72809 6.4607 4e-3 2.5275 0.76877 13.567 1.6969 24.531 0.92824 10.964 2.0594 26.896 2.5137 35.403 0.67433 12.627 1.1305 16.484 2.4843 21.002 1.1269 3.7616 1.6582 7.2582 1.6582 10.913 0 2.9578 0.61806 13.924 1.3734 24.369 0.75542 10.445 1.4934 21.465 1.64 24.49s0.64983 6.7372 1.1182 8.2496c0.52832 1.7058 0.93841 8.6602 1.0802 18.317 0.19144 13.042 0.4251 15.976 1.4402 18.087 0.80747 1.6786 3.5945 4.3538 8.3542 8.0192 6.076 4.6789 7.3621 6.0212 8.6115 8.9875 0.80799 1.9179 1.469 3.7552 1.469 4.0829 0 0.78582-35.603 0.75361-36.862-0.0334-0.78499-0.49032-0.85739-1.6531-0.37367-6.0046 0.8739-7.862 0.4884-13.684-1.111-16.776-0.7518-1.4537-1.6912-4.7468-2.0876-7.3179-6.1591-39.951-12.045-68.88-16.738-82.271-1.5182-4.3316-3.5554-11.195-4.5272-15.252-1.9659-8.2072-3.1856-10.339-7.6523-13.37-7.3898-5.0153-9.8951-3.4831-16.449 10.058-3.1952 6.6018-5.1617 11.665-5.796 14.923-0.52799 2.7124-1.7904 7.0972-2.8053 9.7433-1.1769 3.0692-2.0611 7.1774-2.441 11.343-0.3276 3.5919-2.2275 14.11-4.2219 23.373-2.8889 13.417-3.7205 18.749-4.0898 26.217-0.44343 8.9669-0.56008 9.5284-2.6808 12.894-4.6916 7.445-5.2197 11.675-2.9772 23.845 0.76073 4.1286 1.3879 7.8928 1.3938 8.3657 8e-3 0.66602-4.1356 0.85928-18.426 0.85928l-18.436-2e-5zm19.744-185.86c0.44072-2.3631 1.2645-6.3073 1.8307-8.7648 1.0631-4.6148 1.2239-11.478 0.45112-19.249l-0.44437-4.4684-0.92772 3.4372c-0.51026 1.8905-1.2046 7.3038-1.5431 12.03-0.33844 4.7261-0.82487 11.455-1.0809 14.952-0.543 7.4161 0.48521 8.6532 1.7144 2.0623zm103.34-91.408c-2.1401-8.2554-2.3536-9.4693-1.1224-6.3829 1.317 3.3014 3.2989 11.388 2.8899 11.791-0.16003 0.15786-0.95537-2.276-1.7675-5.4085zm-4.1537-13.254c-0.43732-0.9468-0.52483-1.7215-0.19447-1.7215 0.57864 0 1.6212 2.82 1.1972 3.2382-0.11419 0.11264-0.56541-0.56989-1.0027-1.5167z" fill="#171c22"/>
  <path d="m138.93 683.26c-1.9164-0.11484-5.9931-0.38971-9.059-0.61081l-5.575-0.40201 0.64247-7.6862c0.43051-5.1506 0.3837-10.796-0.14188-17.112-0.84551-10.161-1.0146-8.8745 2.9961-22.783 1.889-6.5505 1.9169-6.879 0.85053-9.9679-0.60651-1.7568-1.4586-6.752-1.8936-11.1-0.83593-8.3554-2.4322-16.756-5.2207-27.474-0.93111-3.5793-1.6095-6.5903-1.5074-6.691 0.10205-0.10067 3.0639 2.9825 6.582 6.8514 4.5299 4.9817 6.3974 7.5476 6.3999 8.7937 2e-3 0.96746 0.46396 2.3596 1.0267 3.0935 1.1632 1.5171 1.4238 5.1154 0.3706 5.1154-0.38328 0-0.69687 0.9506-0.69687 2.1124v2.1123l-2.5744-2.0934c-1.416-1.1514-2.6899-1.9795-2.831-1.8404-0.14107 0.13917 1.1509 3.0174 2.871 6.3961l3.1276 6.143 1.0338 20.223 1.0338 20.223 5.6383 13.014c3.1011 7.1581 5.6383 13.268 5.6383 13.577 0 0.54235-1.1857 0.55674-8.711 0.10579zm61.457-35.462c0.13775-3.1193 0.44542-7.9916 0.68374-10.827l0.43328-5.1558 1.2769 5.4995c0.7023 3.0248 1.6004 7.4161 1.9958 9.7587 0.3954 2.3426 0.90597 4.7399 1.1346 5.3277 0.33751 0.86763-0.16636 1.0686-2.6796 1.0686h-3.0952zm1.456-30.948 0.28344-7.7202-14.147-32.997c-7.7805-18.148-14.471-33.216-14.867-33.484-0.39625-0.26772-5.1839-2.0837-10.639-4.0354l-9.9187-3.5487-7.5092 2.9438c-4.13 1.6191-8.9882 3.667-10.796 4.551s-3.5325 1.5916-3.8328 1.5728c-0.3002-0.0189 1.8728-1.2542 4.8288-2.7451 4.2142-2.1255 5.9915-3.5168 8.2318-6.444 1.623-2.1206 3.7416-4.0375 4.9042-4.4373 2.3398-0.80462 2.395-0.95848 1.0877-3.0337-0.73757-1.1709-3.2768-15.741-3.2306-18.537 0.0137-0.82657-3.0684-0.59639-6.0884 0.45471l-2.7878 0.97029-2.0029-2.6268c-1.9886-2.6079-3.9928-3.406-8.6247-3.4339-0.95817-6e-3 -3.1534-0.9359-4.8781-2.0669l-3.1359-2.0565 9.9069-3e-3c7.8462-2e-3 10.419-0.24387 12.369-1.1614 1.3545-0.63736 2.4627-1.3516 2.4627-1.5874 0-0.23579 1.0976-2.2268 2.4391-4.4243 1.7221-2.8211 2.439-4.8162 2.439-6.7873 0-3.8254 2.7471-13.568 3.9546-14.026 1.8122-0.68604 1.8044 0.39661-0.0357 4.931-2.3207 5.7186-2.294 6.2864 0.21234 4.5259 1.3345-0.93737 2.7211-3.0917 4.007-6.2253 1.612-3.9284 2.2489-4.7934 3.5343-4.8004 0.8624-4e-3 1.5793 0.22353 1.593 0.50711 0.0138 0.28356 0.71936 1.3438 1.568 2.3562l1.5429 1.8407 19.403-1.204 5.3079 4.1471 0.18821 14.217 0.18821 14.217 11.499 0.95637c6.3241 0.52601 11.586 1.0255 11.694 1.1099 0.10764 0.0844-0.3626 1.1215-1.0453 2.3046-1.4502 2.513-1.6908 2.5369-14.238 1.4074-4.5971-0.41384-8.5112-0.60194-8.6977-0.41802-0.18644 0.18391 0.14977 1.4884 0.74716 2.8987 1.4263 3.3674 1.3843 3.6935-0.5694 4.4262-1.2871 0.48272-1.7617 1.3196-2.1327 3.7601l-0.4772 3.1392-2.1133-1.078c-1.1622-0.59291-2.2443-0.94879-2.4044-0.79082-0.40295 0.39751 1.2083 4.6878 4.0784 10.86 2.585 5.559 1.5235 4.5586 16.377 15.435 4.4354 3.2478 13.082 13.431 14.182 16.703 1.1743 3.4939 0.23799 3.3718-1.1241-0.1467-0.90848-2.3467-2.9705-4.7232-8.436-9.7228-3.9786-3.6395-7.2338-6.3157-7.2338-5.9471 0 0.36861 1.5916 7.896 3.5368 16.728 3.0533 13.862 3.7088 18.242 4.7943 32.042 0.78698 10.004 1.5814 16.37 2.1234 17.014 0.73728 0.87635 0.54627 1.0294-1.2854 1.0294-1.5116 0-2.3985-0.4555-2.9824-1.5317-0.77599-1.4304-0.94263-1.2372-2.5178 2.9179-0.9278 2.4473-1.7608 4.5225-1.8511 4.6116-0.0903 0.0891-0.0367-3.312 0.11917-7.5579z"/>
 </g>
</svg>
