<?xml version="1.0" encoding="UTF-8"?>
<!-- Created with Inkscape (http://www.inkscape.org/) -->
<svg width="3428" height="841.33" version="1.1" viewBox="0 0 3428 841.33" xmlns="http://www.w3.org/2000/svg" xmlns:cc="http://creativecommons.org/ns#" xmlns:dc="http://purl.org/dc/elements/1.1/" xmlns:rdf="http://www.w3.org/1999/02/22-rdf-syntax-ns#">
 <metadata>
  <rdf:RDF>
   <cc:Work rdf:about="">
    <dc:format>image/svg+xml</dc:format>
    <dc:type rdf:resource="http://purl.org/dc/dcmitype/StillImage"/>
    <dc:title/>
   </cc:Work>
  </rdf:RDF>
 </metadata>
 <path d="m10.931 437.06v-404.27h3388.6v808.54h-3388.6z" fill="#fefefe" stroke-width="1.2996"/>
 <path d="m10.931 733.96c0-76.001 0.42117-107.79 1.4413-108.78 0.98566-0.95825 2.8751-1.0164 5.9764-0.1839 5.6759 1.5236 8.6991 0.6313 10.436-3.0802 0.74496-1.5921 2.0742-2.7506 2.9538-2.5744 1.972 0.39499 2.273-15.781 0.31551-16.957-1.9455-1.1689-5.3108-13.179-6.048-21.585-0.58099-6.6239-0.39287-7.4201 1.6624-7.0353 1.6569 0.31021 2.6183 2.2568 3.3728 6.8285 2.6316 15.946 4.7335 8.4851 4.8769-17.311 0.09927-17.863 1.1273-22.534 4.2845-19.467 1.893 1.839 2.0825 5.5543 2.574 50.444 0.31223 28.517 0.47135 30.263 2.6542 29.128 1.9794-1.0299 2.3768-3.4265 2.6932-16.241 0.30484-12.348 0.72423-15.033 2.3482-15.033 1.6241 0 2.0433 2.6876 2.3484 15.056l0.37134 15.056h5.0525c2.9245 0 6.3765-1.0052 8.1958-2.3866 3.8149-2.8965 14.029-8.225 17.612-9.188 2.0046-0.53868 2.9182-2.4651 3.9541-8.3376 1.4666-8.314 3.7386-10.104 4.3969-3.4645l0.41364 4.1726 9.8445-8.6574c5.5765-4.904 10.814-10.787 12.081-13.57 2.3088-5.0725 10.777-11.674 16.888-13.165 1.8164-0.44322 5.7992-0.1646 8.8507 0.61915 10.151 2.6073 18.702 2.6109 24.676 0.0103 5.891-2.5641 15.799-3.2736 15.799-1.1313 0 0.70476 0.87073 1.2814 1.9349 1.2814 1.0642 0 2.6953 1.4023 3.6246 3.1162 1.606 2.962 11.964 14.92 19.841 22.905 2.1672 2.197 4.4577 3.4032 5.6311 2.9655 1.2165-0.45381 4.12 1.2832 7.5424 4.5121 3.0605 2.8875 8.1359 6.9699 11.279 9.0721 3.598 2.4067 6.598 5.79 8.1009 9.1361 1.3127 2.9227 3.5577 6.5036 4.9889 7.9575 1.4312 1.4539 3.2964 3.9045 4.1448 5.4458 1.8455 3.3524 9.4157 3.9007 12.003 0.86945 2.3435-2.7452 0.7841-10.235-3.0542-14.67-1.7569-2.0298-4.203-7.6297-5.4358-12.444-1.2328-4.8145-2.7525-10.772-3.3772-13.238-0.98977-3.9083-1.9111-18.125-1.4739-22.744 0.19305-2.0396 4.4032-2.0812 6.4781-0.0641 0.8699 0.8457 1.5816 4.2714 1.5816 7.6126 0 3.3412 0.60278 6.4371 1.3395 6.8798 0.73674 0.44265 1.0289 1.2934 0.64931 1.8906-0.87016 1.3688 1.868 14.361 3.3511 15.901 2.7772 2.8829 4.484-16.126 4.121-45.895-0.43708-35.84 2.0578-47.202 8.9033-40.547 2.1214 2.0624 2.7246 4.2789 2.726 10.016 9.5e-4 4.0523 0.61911 29.416 1.3737 56.363 0.98389 35.137 0.96734 49.73-0.0585 51.594-1.1669 2.1197-0.99496 2.7304 0.93286 3.3138 1.2998 0.39336 3.3738 1.2379 4.6088 1.8768 1.235 0.63887 2.5112 0.74094 2.8359 0.2268s0.62032-8.0334 0.6568-16.71c0.0365-8.6761 0.43134-16.893 0.87747-18.259 0.90934-2.7854 5.1814-3.3388 6.8164-0.88291 0.58647 0.88094 1.3629 10.539 1.7253 21.463 0.62735 18.907 0.78572 19.848 3.2951 19.597 1.4498-0.14525 6.1304 0.26833 10.401 0.91904 6.8858 1.0491 8.1973 0.88407 11.58-1.4572 2.0978-1.4522 4.6946-2.312 5.7707-1.9105 1.0761 0.40143 8.6172-0.93731 16.758-2.975l14.802-3.7049 0.18188-9.5852c0.1913-10.081 2.0798-17.675 4.9769-20.012 1.3703-1.1056 1.9031-0.15944 2.5686 4.5611 0.46185 3.2758 0.83973 9.3353 0.83973 13.465s0.37271 7.5093 0.82825 7.5093c0.45553 0 4.915-3.748 9.9099-8.3288 4.9949-4.5809 9.6636-8.3289 10.375-8.3289 0.71134 0 1.2933-0.81366 1.2933-1.8081 0-1.8083 2.6816-4.1764 13.518-11.938 4.1678-2.9851 6.6658-3.9338 8.9789-3.4102 1.7626 0.399 4.6875 1.04 6.4998 1.4245 4.4115 0.93593 6.8562 2.9584 6.0487 5.0042-0.3638 0.92164-3e-3 2.0716 0.80268 2.5554 0.80526 0.48384 1.0998 0.30655 0.65442-0.39395-0.4705-0.74013 1.0951-1.3433 3.7373-1.4399 2.5009-0.0914 6.3858-1.0906 8.6332-2.2204 2.2474-1.1298 4.9438-1.7343 5.9921-1.3432 1.0483 0.39107 4.4051-0.12788 7.4597-1.1531 3.0545-1.0253 5.7044-1.4477 5.8885-0.93868 0.1841 0.50903 1.5527 2.8679 3.0413 5.2419 2.5496 4.0662 3.0181 4.268 8.0801 3.4811 6.649-1.0336 9.7057 1.2519 11.693 8.7434 0.765 2.8833 1.7157 6.3236 2.1127 7.6452 0.5212 1.7352 0.22472 2.1515-1.067 1.4983-0.98381-0.49747-0.17125 0.54454 1.8057 2.3156 1.9769 1.7711 5.1417 7.1513 7.0328 11.956 1.8911 4.8047 4.3239 10.805 5.4062 13.334l1.9678 4.5978 6.8156-1.126c10.557-1.7441 20.806-1.3464 25.249 0.97962 3.827 2.0036 4.3144 1.9491 11.624-1.3014 8.7908-3.9091 21.725-4.342 20.922-0.70022-0.32977 1.4961-0.0681 1.5825 1.1808 0.38968 1.247-1.1909 2.7364-0.97096 6.6848 0.98732 5.4249 2.6906 9.5796 8.1608 14.3 18.827 1.612 3.6429 3.7898 7.3166 4.8396 8.1636 1.0498 0.84702 2.7339 3.4599 3.7424 5.8065 1.172 2.7271 2.7437 4.2664 4.356 4.2664 1.7918 0 3.7374 2.3995 6.7177 8.2848 3.5813 7.0723 4.9099 8.506 9.0776 9.7959 7.2109 2.2318 41.677 3.0088 49.769 1.122 5.6486-1.317 8.105-1.2134 16.118 0.6799 5.1994 1.2286 9.2262 2.5912 8.9484 3.0282-0.27776 0.43693 1.366 0.89651 3.6527 1.0213 34.996 1.9095 53.852 4.9385 74.013 11.889 9.5413 3.2894 41.665 7.8847 71.173 10.181 8.699 0.67704 19.375 2.1979 23.724 3.3796 4.3495 1.1817 10.122 2.6636 12.828 3.2932 8.4332 1.962 15.51 5.1865 15.51 7.0672 0 1.5346 11.436 1.7351 76.775 1.3461 46.133-0.27462 79.931-1.0006 84.683-1.819 4.3495-0.74906 24.162-6.607 44.027-13.018l36.119-11.656h22.158c25.475 0 25.368 0.0497 23.501-10.892-1.4945-8.7574-1.4485-20.088 0.067-16.658 0.623 1.4095 1.1744 4.6969 1.2253 7.3053 0.127 6.4944 3.6642 19.218 5.6865 20.455 1.9546 1.1951 6.5218 0.046 7.8902-1.9852 0.5294-0.78595 0.8093-18.93 0.6218-40.32-0.3146-35.883-0.5261-39.023-2.7354-40.593-1.8262-1.2982-2.1835-2.6357-1.5056-5.6364 0.4889-2.1638 0.6267-3.9342 0.3064-3.9342-0.3204 0-2.8469 1.7494-5.6144 3.8876-4.4789 3.4603-5.25 3.6758-7.0144 1.9605s-1.4485-2.4312 2.8737-6.5121c6.7565-6.3793 6.6795-8.6694-0.1757-5.223-3.7089 1.8646-10.218 1.4086-11.631-0.81479-0.4441-0.69867 0.8992-2.6455 2.9851-4.3263 3.6564-2.9462 3.7031-3.1235 1.2992-4.9373-1.3715-1.0347-3.1508-2.1243-3.9541-2.4212-1.868-0.6904 3.0748-4.5821 5.8897-4.6373 1.143-0.0224 4.9766 2.5462 8.5191 5.7081 4.2058 3.754 6.889 5.3131 7.7323 4.4932 0.8434-0.8199 0.059-2.5056-2.2584-4.8579-1.9524-1.9813-3.55-4.5527-3.55-5.7143 0-1.1616-0.7178-3.6438-1.5953-5.516-1.3789-2.9422-1.2553-3.6458 0.9109-5.1858 3.441-2.4461 4.2898-2.2796 7.9493 1.5592 2.9254 3.0688 3.3574 3.1732 5.3033 1.2814 2.4993-2.4298 2.1825-2.39 6.4575-0.8099 5.3476 1.9766 4.5022 7.4324-1.8912 12.205-5.1101 3.8142-6.7888 7.0679-3.6246 7.0254 0.9061-0.0115 3.0214-1.4305 4.7005-3.1519 3.5666-3.6564 10.152-7.0768 13.625-7.0768 3.3996 0 3.043 2.2051-0.532 3.29-1.631 0.49499-4.4483 2.3619-6.2606 4.1488-2.2829 2.2508-2.598 3.0015-1.0257 2.4438 3.4661-1.2294 10.562 1.5794 9.6736 3.8292-0.4069 1.0308-0.7397 3.2685-0.7397 4.9727 0 3.9414-4.1318 4.1556-10.247 0.53109-5.6754-3.364-7.9488-3.2268-9.7366 0.58774-1.1116 2.3718-1.0677 4.0999 0.1784 7.0245 0.9089 2.1334 1.2481 4.8982 0.7536 6.1442-1.0117 2.5498-0.9907 48.471 0.031 65.485 1.0073 16.789 1.0398 16.865 7.1838 16.865 2.8858 0 5.2827-0.43246 5.3263-0.96102 0.043-0.52856 0.3748-14.223 0.7361-30.432 0.3613-16.209 1.067-29.85 1.5682-30.314 0.5013-0.46339 11.884-1.5248 25.295-2.3588 26.495-1.6475 31.443-2.591 37.805-7.2082 2.3076-1.6746 4.582-3.0448 5.0543-3.0448s5.9982-3.4544 12.28-7.6766l11.421-7.6766 6.5902 1.887c3.6246 1.0379 10.12 2.6696 14.433 3.6261l7.8429 1.7391-0.5938 18.466c-0.6022 18.729-0.3428 47.327 0.4361 48.084 0.7647 0.74332 70.153 0.67902 69.814-0.0647-0.1812-0.39762-0.3295-1.5879-0.3295-2.645 0-1.0571-1.1062-1.922-2.4582-1.922-1.3522 0-3.9664-1.1532-5.8097-2.5627-4.0599-3.1048-7.2158-3.2526-10.361-0.48528-3.832 3.3715-6.4298 1.3573-6.1818-4.7933 0.1711-4.2449-0.4338-5.8766-2.8977-7.8162-1.9696-1.5506-4.1103-2.1546-5.8255-1.6437-6.996 2.0836-7.0126 2.0594-5.0942-7.4367 1.0247-5.073-4.0005-10.247-8.9298-9.1949-4.7144 1.0066-8.3788-2.3422-6.4321-5.8784 0.7489-1.3605 2.2777-2.4737 3.3971-2.4737 1.6061 0 1.8417-0.87831 1.1168-4.1644-1.3083-5.93-1.7428-6.3294-5.9148-5.4386-2.8301 0.6043-4.0519 0.22579-5.0349-1.5598-1.6897-3.0694 0.3979-6.7763 3.8162-6.7763 2.1135 0 2.5706-0.89707 2.5706-5.0443 0-4.7544-0.2463-5.0673-4.2836-5.4458-3.5803-0.3356-4.2836-0.92744-4.2836-3.6049 0-2.6775 0.7033-3.2693 4.2836-3.6049 4.1163-0.38584 4.2836-0.62021 4.2836-6.0014 0-5.1564-0.2871-5.6319-3.6246-6.0053-2.8763-0.32175-3.6245-1.0668-3.6245-3.6088 0-2.7666 0.5901-3.2034 4.3278-3.2034 2.4111 0 4.883-0.85123 5.5813-1.922 2.1502-3.2967 1.4798-7.4582-1.342-8.3289-1.6964-0.52347-2.636-1.9387-2.636-3.9706 0-3.7441 3.3218-5.3586 6.7468-3.2791 3.1991 1.9423 2.8367 2.1357 5.7058-3.0436 2.5018-4.5166 2.501-4.5317-0.3594-6.4795-3.3505-2.2815-3.7752-6.3195-0.7822-7.436 2.7981-1.0439 2.6988-1.0696 5.1751 1.3379 2.0229 1.9666 2.4651 1.8348 6.2771-1.8711 3.9656-3.8552 4.0233-4.0699 1.7533-6.5086-1.5088-1.6207-2.038-3.4704-1.481-5.1764 1.0118-3.0996 4.9224-3.4931 7.279-0.7325 2.1865 2.5613 3.3498 2.4331 7.9544-0.87642 3.5552-2.5554 3.7341-3.0348 2.059-5.5201-1.2523-1.8581-1.4382-3.4095-0.5861-4.8897 1.9062-3.3115 6.2574-2.6716 7.7479 1.1394 0.7114 1.8192 1.7346 3.098 2.274 2.842 7.9327-3.7673 8.0929-3.9304 7.361-7.4878-0.5545-2.6951-0.095-3.8816 1.9075-4.9234 2.8074-1.4606 4.3312-0.43368 5.9642 4.0194 1.6878 4.6032 11.053 1.5755 11.684-3.7776 0.3359-2.8459 1.0944-3.5903 3.6593-3.5903 2.3651 0 3.4449 0.86173 4.0135 3.2034 0.6853 2.8226 1.4737 3.2034 6.6315 3.2034 4.8164 0 5.9378-0.45407 6.3292-2.5627 0.7003-3.7752 2.2361-4.8486 5.4972-3.8424 2.3976 0.73981 2.7713 1.5564 2.1327 4.6608-0.8067 3.9204-0.6411 4.0693 6.1205 5.5109 3.0659 0.65364 3.8523 0.24896 4.9448-2.5446 0.9558-2.4441 2.082-3.2136 4.2625-2.9124 2.4974 0.34505 2.9225 1.1251 2.7036 4.9594-0.2291 4.0149 0.2963 4.841 4.4676 7.025l4.7272 2.475 1.9539-2.8608c2.2998-3.3674 4.5971-3.6416 6.9933-0.83471 1.3563 1.5889 1.3911 2.5528 0.1613 4.4674-2.26 3.5183-2.0233 4.2298 2.4861 7.471 3.8397 2.7598 4.186 2.7982 6.5411 0.72625 2.7671-2.4345 6.1592-1.7677 7.4337 1.4613 0.5341 1.3531-0.215 2.8849-2.0791 4.2519l-2.9139 2.1368 2.9534 3.7857c1.6244 2.0821 3.1012 3.9886 3.2819 4.2367 0.1807 0.24806 1.6448-0.44528 3.2536-1.5408 2.1153-1.4404 3.5985-1.6415 5.3573-0.7263 3.1851 1.6572 3.0944 4.5958-0.2037 6.5982-3.0208 1.834-3.246 3.4059-1.1341 7.9122 1.2408 2.6474 2.3294 3.1592 6.2606 2.9434 4.2689-0.23443 4.7587 0.0684 4.7587 2.9421 0 2.3465-0.7933 3.3129-2.9656 3.6129-2.0767 0.28675-2.9377 1.2468-2.8729 3.2034 0.1811 5.4642 1.9612 7.8173 5.9533 7.8694 3.1838 0.0415 3.8393 0.58713 3.8393 3.1957 0 2.2994-0.8864 3.3491-3.295 3.9018-2.8266 0.64868-3.2952 1.4751-3.2952 5.8113 0 4.6081 0.3498 5.1165 3.9541 5.7499 3.0292 0.53229 3.8513 1.2845 3.5144 3.216-0.5848 3.3535-1.8879 4.5317-5.2878 4.7806-2.1158 0.15495-3.0404 1.3221-3.6822 4.6485-0.7438 3.8537-0.3591 4.8277 2.9067 7.3593 4.2764 3.3151 4.2293 3.4318-2.0641 5.1021-2.9805 0.79105-5.2172 2.446-6.3198 4.6763-1.5079 3.0498-1.3747 3.8885 1.1437 7.2001 3.5977 4.7308 2.3011 7.0601-3.4268 6.1564-3.3379-0.52658-4.9401-0.0326-7.0817 2.1838-3.5315 3.6545-3.4887 5.1356 0.1977 6.8429 6.7244 3.1142 13.894-0.32736 31.303-15.028 4.7119-3.9786 9.8173-8.0586 11.345-9.0666 1.528-1.008 7.0859-5.5808 12.351-10.162 5.265-4.5809 10.094-8.5212 10.732-8.7562 1.3066-0.48152 11.506 6.9441 13.964 10.166 2.0177 2.6453 15.218 7.9296 18.346 7.344 3.3315-0.62375 4.1549-4.7926 4.3042-21.79 0.1356-15.446-1.6564-27.106-4.7075-30.631-2.2896-2.6449-2.2174-4.4361 0.4727-11.733 2.137-5.7963 2.1257-6.2833-0.2499-10.892-1.5708-3.0472-2.3472-6.8465-2.1076-10.315 0.2083-3.0201-0.3356-6.3282-1.2089-7.3512-0.9192-1.0768-1.2276-3.2562-0.7319-5.1756 0.4707-1.8236 0.1456-5.2255-0.7227-7.5598-1.3737-3.6932-1.2091-4.9335 1.2682-9.5541 2.4066-4.4886 2.8431-7.4346 2.8227-19.045-0.013-7.5544-0.9846-18.636-2.1582-24.627-2.4056-12.279-2.4848-14.188-0.8504-20.494 1.655-6.3843 4.9296-6.4399 8.2356-0.13977 2.9339 5.5909 3.4095 9.1763 1.4707 11.088-1.4954 1.4743 0.7256 38.288 2.5664 42.541 1.5211 3.5147 5.2623 3.7865 6.1604 0.4475 0.7204-2.6784 6.9184-4.4795 8.9173-2.5913 0.6887 0.65054 2.2834 1.1828 3.5438 1.1828 2.8065 0 4.6047 9.1946 2.7565 14.095-1.8525 4.9119 0.016 19.216 2.7012 20.677 1.2233 0.66554 3.492 5.2679 5.0414 10.228 3.1142 9.9671 5.2952 11.79 9.2136 7.7012 3.0444-3.1769 3.0666-3.1795 9.1011-1.096 7.4801 2.5827 8.0555 3.2596 7.4104 8.7186-0.6012 5.0868-1.0758 5.8512-11.035 17.772l-5.6016 6.7049-0.1014 19.426c-0.1736 33.17 0.2437 51.788 1.2425 55.419 0.5879 2.1367 2.724 4.3961 5.5111 5.8289 2.5033 1.2869 5.4892 3.9356 6.6357 5.886 4.4274 7.533 8.1889 2.9469 10.247-12.493 0.7028-5.2733 2.2232-16.219 3.3785-24.324 1.1552-8.1046 2.7044-19.637 3.4427-25.627 0.7382-5.9904 1.8744-13.849 2.5246-17.464 0.6505-3.6149 0.6908-8.6926 0.09-11.284-0.6614-2.8508-0.387-11.387 0.6948-21.617 5.9721-56.477 5.2329-104.74-1.9274-125.84-1.5055-4.4363-1.8987-7.5329-1.1271-8.8734 0.8634-1.4998-0.4477-4.6741-4.8272-11.687-3.3069-5.2954-6.0126-11.125-6.0126-12.955 0-4.0151 7.362-11.235 12.772-12.526 2.0367-0.4859 6.2239-3.2718 9.3047-6.191l5.6017-5.3075 0.02-23.759c0.013-13.067 0.5263-24.535 1.1448-25.484 2.5222-3.8691 4.1071 6.9943 4.1071 28.151v21.559l3.7584 1.8894c2.0671 1.0392 4.7498 3.3605 5.9616 5.1584 1.2117 1.7979 2.99 3.2689 3.952 3.2689 2.8153 0 12.656 7.4974 14.219 10.834 1.251 2.6692 0.5682 4.4365-5.3199 13.771-3.7152 5.8898-6.7572 11.557-6.7599 12.593 0 1.0362-1.3373 3.9022-2.9655 6.3688l-2.9608 4.4848 0.1187 78.163c0.082 53.99 0.6226 81.928 1.7475 90.336 0.8957 6.6951 2.1087 17.074 2.6955 23.065 0.5865 5.9904 1.769 15.504 2.6273 21.142 0.8583 5.638 2.1964 14.431 2.9737 19.541 1.1073 7.279 1.8901 9.2899 3.6163 9.2899 2.9158 0 7.7878-5.2668 13.816-14.936 5.1478-8.2565 7.2482-14.664 7.3009-22.273 0.027-3.7878 1.0074-5.3268 5.9626-9.3536 3.2622-2.6509 5.9312-5.9104 5.9312-7.2432 0-1.3328 0.5131-2.7317 1.1403-3.1085s1.4748-2.6879 1.8834-5.1356c0.4084-2.4477 1.627-6.3539 2.7076-8.6803 2.4022-5.1715 6.1309-19.894 6.1309-24.208 0-1.7362 0.9715-4.5053 2.159-6.1534 1.4024-1.9464 2.5092-7.3232 3.1581-15.341 0.5495-6.7894 2.1987-20.994 3.6649-31.565 2.9302-21.126 5.6687-63.272 5.1732-79.619-0.2553-8.4233 0.1266-10.904 1.9906-12.915 1.5022-1.6208 2.3066-4.576 2.3066-8.4742 0-3.2921 0.5239-5.9856 1.1643-5.9856 1.387 0 2.7467 4.4597 2.7717 9.0913 0.013 1.8288 1.1455 4.3171 2.5236 5.5296 3.1538 2.7748 4.441 9.1744 2.8976 14.406-0.7412 2.5129-0.5081 14.734 0.6214 32.573 1.6901 26.692 2.4614 34.272 5.987 58.848 0.7584 5.2856 1.8714 13.248 2.4736 17.693 0.6021 4.4458 2.5926 11.077 4.4231 14.736 1.8307 3.6588 3.7046 9.9588 4.1647 14 0.4598 4.0412 1.3877 7.6791 2.0618 8.0841 0.6742 0.40509 1.2258 1.8635 1.2258 3.241 0 1.3775 0.5447 3.5057 1.2103 4.7295 3.0862 5.6736 6.6979 14.575 6.6979 16.508 0 1.1759 2.3692 5.1236 5.2651 8.7727 3.5825 4.5144 5.6812 8.7677 6.567 13.309 1.2537 6.4261 4.8817 12.525 12.988 21.835l3.8165 4.383 0.9868-7.5864c0.5428-4.1725 0.7722-34.802 0.5096-68.065-0.3444-43.621-0.064-60.88 1.0042-61.921 1.0976-1.0686 4.001 0.13371 11.203 4.6393 21.171 13.244 52.469 25.642 76.941 30.477 37.925 7.4934 79.357 3.379 113.18-11.24 4.2586-1.8403 8.4634-3.346 9.3442-3.346 4.1876 0 4.655 6.3232 4.5457 61.506-0.059 30.245 0.2732 55.592 0.74 56.326 1.4329 2.2542 10.333 1.4829 15.808-1.3699 4.7431-2.4714 5.7826-2.5669 12.045-1.1064 4.6648 1.088 10.743 1.3027 19.031 0.67238 12.449-0.94678 17.929-2.4705 20.508-5.7029 0.8148-1.021 2.4173-1.4673 3.636-1.0126 1.1985 0.44711 3.6567 0.26677 5.4628-0.40076l3.2835-1.2137v-29.346c0-24.808-0.3126-29.598-2.0213-30.977-1.1116-0.89697-6.3013-3.071-11.533-4.8311-19.111-6.43-28.297-15.137-26.36-24.986 1.1856-6.0292 8.7889-12.119 18.836-15.085l9.1603-2.705-2.0772-3.9052c-2.4883-4.678-1.125-8.6617 4.1045-11.993 2.7783-1.7699 4.0269-1.8979 6.7489-0.69219 1.837 0.81368 3.8767 1.1568 4.5329 0.76261 0.6562-0.39425 1.1059-9.6273 0.9994-20.518-0.1068-10.891 0.054-20.024 0.3558-20.296 0.7349-0.66229 21.907-1.2966 33.83-1.0135l9.5561 0.22688v17.939c0 18.553 0.2394 19.276 5.4784 16.55 2.7109-1.4105 4.9071-0.90884 15.15 3.4609 2.2843 0.97451 5.2499 1.774 6.5901 1.7766 1.3403 3e-3 4.411 1.1749 6.824 2.6051l4.387 2.6003 4.4149-2.6526c5.0644-3.0429 10.468-2.4276 12.594 1.434 1.7715 3.2179 3.1012 3.0491 7.1744-0.91081 2.6526-2.5788 4.2208-3.1423 6.9796-2.5081 7.1728 1.649 10.236 8.8045 6.1802 14.435-1.9858 2.7561-0.694 5.1859 1.9215 3.6144 1.1814-0.70977 16.672 6.4807 20.344 9.4431 0.9424 0.76037 1.8135 4.131 1.9358 7.4904 0.2042 5.6066-0.2576 6.5949-5.6249 12.04-5.3733 5.4515-23.053 15.191-27.575 15.191-0.9147 0-2.2266 0.4842-2.9152 1.076-0.6887 0.59179-3.328 1.8315-5.8652 2.7549-4.6131 1.6789-6.9023 2.5966-18.949 7.5963-3.5355 1.4673-7.4756 2.6678-8.7557 2.6678s-2.6688 0.86492-3.0862 1.922c-0.4172 1.0571-2.1118 1.9404-3.7655 1.9628-1.6539 0.0224-4.1583 0.88735-5.5654 1.922-1.4073 1.0347-4.699 1.8813-7.3151 1.8813-6.3286 0-7.9199 1.8655-7.9199 9.2848 0 6.1523 0.058 6.2358 6.2607 9.0685 9.039 4.1278 13.141 7.0468 13.908 9.8964 0.8071 3.0005 4.6335 3.3224 5.7538 0.48403 0.5312-1.3455-0.9008-3.3759-4.2922-6.0865-11.812-9.441-11.343-8.796-9.7059-13.329 1.1281-3.1237 2.6178-4.4378 6.0864-5.3689 5.5813-1.4982 8.3501-0.63788 8.3501 2.5946 0 3.6009 2.1731 2.9424 4.8548-1.4712 3.4831-5.7323 11.051-6.9094 14.106-2.1941 1.0728 1.6562 1.0239 2.9008-0.1882 4.7877-0.901 1.4024-1.638 4.2403-1.638 6.3064 0 5.5228-1.1958 7.6831-5.4318 9.8127-2.6295 1.3219-3.7943 2.8809-3.7943 5.078 0 3.8216 3.3454 4.2905 4.3359 0.60778 0.4125-1.5333 1.7979-2.5627 3.4488-2.5627 1.5177 0 2.7595-0.82294 2.7595-1.8288 0-2.598 9.2761-9.7035 12.668-9.7035 1.7326 0 3.11 0.99988 3.5303 2.5627 0.3792 1.4095 1.684 2.5627 2.8997 2.5627 2.9678 0 1.7775 3.0829-1.4138 3.6616-6.9623 1.2626-7.572 5.6718-1.2832 9.2791 5.2961 3.0379 4.9854 5.1969-1.0533 7.3198-6.1946 2.1777-8.0621 1.926-12.471-1.6807-3.5295-2.8873-6.8305-4.1533-6.8305-2.6196 0 1.8529 7.272 10.563 9.9772 11.95 3.5748 1.8333 4.1933 5.5734 1.3067 7.9025-1.5318 1.2359-3.2015 0.5271-8.6856-3.6872-3.7339-2.8695-7.3289-5.2173-7.9888-5.2173-1.6108 0-1.529 2.2136 0.1186 3.2034 0.7249 0.43555 1.318 2.776 1.318 5.2011 0 3.5907-0.5014 4.4092-2.7018 4.4092-2.4482 0-2.6647 0.67123-2.3065 7.1507l0.3953 7.1507 27.679-0.11046 27.678-0.11032 14.498 4.9692c55.277 18.946 56.666 19.365 64.166 19.378l7.4911 0.0128 0.4171-12.988c0.2756-8.5847-0.3429-16.73-1.8245-24.026-3.1525-15.522-3.6577-38.06-0.9655-43.072 1.1357-2.1142 2.7668-3.6999 3.6246-3.5238 1.9361 0.39772 2.1997-15.801 0.2757-16.957-1.9455-1.1689-5.3108-13.179-6.0481-21.585-0.5809-6.6239-0.3928-7.4201 1.6623-7.0353 1.657 0.3102 2.6184 2.2568 3.3729 6.8285 2.6316 15.946 4.7336 8.4851 4.8769-17.311 0.099-17.863 1.1273-22.534 4.2846-19.467 1.8543 1.8015 2.0237 5.03 2.5002 47.657 0.1695 15.152-0.3869 33.315-1.2362 40.363-1.6171 13.418-0.7497 20.502 2.5101 20.502 1.3906 0 1.9561-2.0089 2.1649-7.6882 1.5504-42.188 2.4034-52.536 4.3305-52.536 1.6731 0 2.1005 4.3336 2.7804 28.19 0.7886 27.676 0.7432 28.365-2.4887 37.8-1.8106 5.2856-4.0998 10.521-5.0869 11.633-2.378 2.6801-2.5603 31.958-0.2133 34.24 0.9405 0.91436 5.4715 1.5376 11.178 1.5376h9.5962l-0.8462-6.0865c-0.4868-3.5017-1.7984-6.745-3.0882-7.6371-3.4891-2.4133-5.4403-8.3705-4.9919-15.24 0.2968-4.5455 0.9543-6.2738 2.3867-6.2738 1.4606 0 2.1492 1.9822 2.6361 7.5884 0.3624 4.1736 1.3138 7.7974 2.1139 8.0529 1.7835 0.5693 3.1581-11.017 3.1581-26.616 0-11.803 0.7732-15.772 2.8312-14.535 0.6913 0.41531 1.1849 9.3155 1.1189 20.174-0.064 10.687-0.091 19.979-0.056 20.648 0.033 0.66951 0.8024 0.49545 1.7086-0.3868 1.0289-1.0019 1.6474-5.2632 1.6474-11.351 0-7.1132 0.4884-9.908 1.8074-10.343 2.7064-0.89261 1.3543 23.344-1.5928 28.552-1.1965 2.1142-2.179 6.0064-2.1834 8.6492l-0.013 4.8051h17.475l-0.8153-7.3678c-1.5345-13.867-1.3228-101.59 0.249-103.12 2.1269-2.0678 2.599 0.16106 3.4544 16.31 0.4105 7.7522 1.0384 17.555 1.3953 21.783 0.3566 4.2285 1.3195 15.92 2.1393 25.981 1.3816 16.951 1.6714 18.237 3.954 17.532 3.1882-0.98376 3.2158 1.6246 0.054 5.0962-2.0355 2.2347-2.3207 4.2861-1.8375 13.217l0.572 10.571h172.38v-3.5878c0-5.1136 2.0546-6.6463 7.0443-5.2551 6.4473 1.7976 21.618 1.3886 25.762-0.69459 2.0702-1.0408 8.0646-1.9622 13.71-2.1075 5.9105-0.15208 9.9224-0.78943 9.7658-1.5514-0.2887-1.404 14.132-9.8681 16.813-9.8681 2.6953 0 29.764-26.677 31.238-30.785 1.4302-3.9883 10.608-10.875 16.366-12.28 1.8163-0.44321 5.7991-0.16459 8.8506 0.61916 10.152 2.6073 18.702 2.6109 24.676 0.0103 5.8952-2.564 15.804-3.2735 15.804-1.1312 0 0.70474 0.8707 1.2814 1.935 1.2814 1.0642 0 2.6952 1.4023 3.6246 3.1162 1.606 2.962 11.964 14.92 19.841 22.905 2.1672 2.197 4.4578 3.4032 5.6312 2.9655 1.2164-0.45383 4.1199 1.2831 7.5424 4.5121 3.0605 2.8875 8.1359 6.9699 11.279 9.0721 3.5634 2.3834 6.6262 5.8223 8.1371 9.1361 1.3326 2.9227 4.1027 7.1621 6.1557 9.4209l3.7327 4.1068 118.27 0.1592 9.7366-8.9916c5.3552-4.9454 10.328-8.9916 11.051-8.9916 0.7228 0 1.314-0.81367 1.314-1.8081 0-1.8083 2.6816-4.1764 13.518-11.938 4.1678-2.9851 6.6658-3.9338 8.979-3.4102 1.7626 0.39899 4.6874 1.04 6.4997 1.4245 4.4115 0.93594 6.8562 2.9585 6.0487 5.0042-0.3637 0.92165 0 2.0716 0.8027 2.5554 0.8052 0.48383 1.0998 0.30654 0.6544-0.39397-0.4705-0.74011 1.0951-1.3433 3.7372-1.4398 2.501-0.0914 6.3859-1.0906 8.6333-2.2204s4.9439-1.7343 5.9921-1.3432c1.0482 0.39107 4.4051-0.12788 7.4597-1.1531 3.0546-1.0253 5.7044-1.4477 5.8885-0.93867 0.184 0.50901 1.5526 2.8679 3.0413 5.2419 2.5495 4.0662 3.0181 4.268 8.0801 3.4811 6.5256-1.0145 9.6722 1.2256 11.625 8.2762 0.8826 3.1863 2.3058 5.0681 4.278 5.6557 1.6256 0.48432 12.532 1.2722 24.238 1.7509 18.512 0.75704 21.653 1.1967 24.132 3.3774 2.165 1.9049 4.6133 2.4734 10.192 2.3671 4.0994-0.0781 7.7699-0.81252 8.3103-1.6627 1.2989-2.043 0.4929-14.776-1.3428-21.216-1.2038-4.2231-1.1598-36.21 0.066-47.99 0.3029-2.9109-2.5228-19.278-4.1829-24.228-0.8055-2.402-2.0229-12.781-2.7054-23.065-2.6546-39.998-2.6751-41.958-0.482-46.081 1.1359-2.1352 2.0651-5.0229 2.0651-6.4171 0-3.4882 3.7161-6.8081 6.6183-5.9126 2.082 0.64239 2.5053-0.34197 3.3172-7.7124 1.3897-12.614 0.2693-20.267-3.6256-24.767-1.8643-2.154-4.3069-7.6818-5.5645-12.593-1.2326-4.8145-2.7525-10.772-3.3771-13.238-0.9898-3.9083-1.9111-18.125-1.4739-22.744 0.1929-2.0396 4.4032-2.0812 6.478-0.0641 0.8699 0.8457 1.5817 4.2713 1.5817 7.6125 0 3.3412 0.6027 6.4371 1.3395 6.8798s1.029 1.2934 0.6493 1.8906c-0.8701 1.3688 1.868 14.361 3.3511 15.901 2.7771 2.8829 4.484-16.126 4.121-45.895-0.4335-35.545 2.07-47.191 8.7492-40.697 2.3779 2.3117 2.6377 5.1707 3.473 38.206 1.7389 68.768 0.5207 116.51-3.4034 133.4-1.2728 5.4772-1.1996 8.1943 0.3974 14.736 1.8493 7.5752 2.1717 8.0202 5.8092 8.0202h3.8513l0.083-11.532c0.046-6.3428 0.7814-18.219 1.6352-26.393 0.854-8.1732 1.5147-26.336 1.4681-40.363-0.046-14.026 0.319-26.512 0.8123-27.745 1.0371-2.5932 5.2344-2.9888 6.7977-0.64068 0.5864 0.88094 1.5172 20.053 2.0683 42.605 0.551 22.552 1.1072 43.887 1.2358 47.41 0.2652 7.2671-2.2771 20.206-4.9095 24.987-2.1858 3.9695-5.8955 15.156-5.8955 17.777 0 1.0692-1.5265 3.4931-3.3923 5.3864l-3.3924 3.4424-0.221 32.506c-0.2442 35.918-0.037 37.002 8.3775 43.886 4.9191 4.024 9.5108 4.3079 11.977 0.74071 1.367-1.9771 3.8991-2.8407 10.376-3.5387l8.5672-0.92335-0.3252-14.08c-0.4067-17.609-0.8285-19.323-5.2629-21.389-1.9771-0.92129-5-4.1516-6.7176-7.1784-2.7078-4.7724-3.1013-7.1053-2.9635-17.566 0.1795-13.617 0.7662-15.997 3.9428-15.997 1.8655 0 2.5001 2.3545 3.8752 14.377 1.557 13.613 2.6041 16.308 6.3545 16.356 1.7723 0.0226 2.4233-6.7634 4.3011-44.828 0.7126-14.447 1.6289-27.565 2.0364-29.151 0.8851-3.4459 2.6998-3.7406 3.9456-0.64067 1.0877 2.7068 0.9772 67.318-0.12 70.098-1.2126 3.0721 3.4894 4.1379 5.6401 1.2784 1.3853-1.8416 1.6729-6.3367 1.2392-19.362-0.4591-13.785-0.2051-17.254 1.3563-18.513 3.9981-3.2259 4.7343 0.60171 4.2541 22.117-0.4262 19.093-0.7314 21.357-3.4539 25.613-4.6313 7.2403-6.8709 16.168-6.8645 27.365 0.013 11.401 0.3047 12.174 6.3636 16.52 3.4649 2.4852 5.9047 3.0635 13.099 3.1046 12.662 0.0724 13.454-0.90106 13.454-16.536 0-6.8924-0.5931-14.048-1.3179-15.902-0.8003-2.0464-1.5907-35.367-2.0123-84.831-0.3818-44.804-0.9576-81.875-1.2797-82.382-1.1425-1.7974 1.9259-15.76 4.1907-19.068l2.3006-3.3609 0.9604 5.1254c0.5282 2.819 0.9945 13.778 1.0363 24.354 0.043 10.576 0.7238 21.243 1.5157 23.705s1.9462 14.279 2.565 26.259c0.6189 11.981 2.0293 29.856 3.1344 39.722 1.1049 9.8665 2.0265 20.984 2.048 24.706 0.041 7.0186 2.4707 9.961 5.6633 6.8571 2.363-2.2972 4.92-1.693 4.92 1.1626 0 1.4377-2.4431 4.8733-5.4289 7.6347-4.5423 4.2009-5.2865 5.5716-4.5576 8.3952 0.4793 1.856 1.4178 15.452 2.0856 30.212 0.6681 14.761 1.5678 27.393 1.9995 28.072 0.8719 1.3715 8.4784 1.6678 11.725 0.4568 1.6221-0.60513 2.0849-2.7382 2.0849-9.6102 0-5.034 0.5667-8.8324 1.318-8.8324 0.7616 0 1.318 4.0576 1.318 9.6102 0 8.756 0.2344 9.6102 2.6361 9.6102 2.2919 0 2.6361-0.85424 2.6361-6.5439 0-5.4407 0.3515-6.4128 2.0848-5.7661 1.1467 0.42779 3.5191 0.77777 5.2722 0.77777 2.6429 0 3.1871 0.63869 3.1871 3.7393 0 7.6891 0.2261 7.793 16.946 7.793 8.638 0 19.379-0.83832 24.572-1.9178 7.5963-1.5791 11.516-1.666 22.196-0.4919 7.1339 0.78425 14.993 1.1069 17.464 0.71701l4.4934-0.7089v86.972h-3388.7zm1813.3-4.4207c0.7288-0.88094 1.0277-3.495 0.6643-5.809-0.4955-3.1558-2.0217-5.087-6.1063-7.7274-10.553-6.8216-12.32-7.2858-27.726-7.2858-16.203 0-18.77 0.97699-28.236 10.747-6.3713 6.5765-7.3084 8.7092-4.52 10.288 3.571 2.0218 64.237 1.8258 65.924-0.21296zm369.36-38.059c0-42.095 0.2222-40.977-8.5673-43.103-2.1747-0.52607-7.1901-2.3461-11.145-4.0445-10.449-4.4869-10.425-4.5545-10.162 28.924l0.2183 27.772h3.5511c5.5089 0 6.5685 2.1017 7.2068 14.295 0.3263 6.2328 0.8256 12.022 1.1096 12.865 0.4902 1.4549 12.578 2.8435 16.141 1.8542 1.2706-0.35275 1.6476-9.1767 1.6476-38.563zm35.35 33.454c0.2729-2.7674-0.404-5.1719-1.9115-6.7914-2.0567-2.2093-2.1263-2.994-0.5863-6.6073 3.4002-7.9789 3.3809-12.58-0.063-15.155-4.1039-3.068-6.2707-2.9893-9.9389 0.36085-1.662 1.518-5.2589 3.1123-7.9932 3.543l-4.9711 0.78308-0.3772 13.248c-0.2075 7.2864 0.185 13.909 0.872 14.716 0.8461 0.9947 5.0074 1.2617 12.898 0.82775l11.649-0.64067 0.4222-4.2843zm-753.77-8.4819c4.1178-2.0702 5.6908-4.7817 4.5099-7.7738-0.8284-2.0987-3.5155-1.7003-9.9337 1.4728-4.6142 2.2812-5.6197 4.0145-3.6602 6.3097 2.0149 2.3603 4.3763 2.358 9.084-9e-3zm-43.706-33.683c0.3053-25.697 0.084-29.792-1.6106-29.792-2.0271 0-4.7993 7.6103-7.2346 19.861-0.7005 3.5238-3.6677 13.283-6.5937 21.688-2.926 8.4047-5.1773 15.416-5.0026 15.582 1.2775 1.2081 10.492 2.8795 14.816 2.6871l5.2721-0.23455zm22.459 26.931c0.9948-1.3065 1.3787-3.6208 0.9073-5.4685-0.4496-1.7619-1.3244-5.7982-1.9441-8.9695-0.6197-3.1714-1.7433-7.7843-2.4967-10.251-0.7535-2.4666-2.9348-10.251-4.8476-17.298-3.5304-13.008-5.229-16.55-7.332-15.287-1.4122 0.84852-1.5856 58.652-0.1801 60.05 1.7805 1.7714 14.065-0.37421 15.893-2.776zm-46.293-4.4105c1.6778-1.5324 3.0506-3.8048 3.0506-5.0498 0-1.245 0.5931-2.6201 1.318-3.0557 0.725-0.43555 1.3181-2.742 1.3181-5.1254s0.5931-4.6899 1.318-5.1254c0.7248-0.43556 1.318-2.1654 1.318-3.8441 0-1.6787 0.5931-3.4085 1.3181-3.8441 0.7248-0.43557 1.3179-3.3186 1.3179-6.4068s0.5932-5.9712 1.318-6.4068c0.725-0.43556 1.3181-1.9111 1.3181-3.279 0-1.3679 0.5931-2.4871 1.318-2.4871s1.318-3.0936 1.318-6.8747c0-4.7852 0.7523-7.8044 2.4749-9.9334 2.9205-3.6096 5.9916-16.733 4.9028-20.95-0.4708-1.8237-0.013-3.5578 1.2023-4.5369 2.9136-2.3509 6.1407 0.62473 5.0903 4.6937-0.4415 1.7098-0.055 5.7041 0.8584 8.8762 1.2372 4.2962 1.2898 6.5592 0.206 8.8718-0.8167 1.7425-0.9422 3.4124-0.2865 3.8066 0.6429 0.38618 1.3966-0.314 1.6753-1.556 0.3472-1.5473 1.4158-0.36436 3.3949 3.7581 1.5884 3.3089 2.8821 6.7686 2.8748 7.6882-0.013 0.91959 1.1571 5.1317 2.5877 9.3602 3.6394 10.757 8.7545 28.202 10.643 36.297 0.8758 3.754 2.3754 7.1176 3.3325 7.4747 2.2569 0.84197 16.879-7.1646 23.65-12.95 2.8996-2.4776 5.6347-4.5158 6.078-4.5293 0.6645-0.0203 14.868-20.124 19.029-26.933 1.5816-2.5881 3.1438-13.427 4.0688-28.23 0.6456-10.33 0.3119-13.688-2.1643-21.783-7.152-23.381-20.393-39.611-40.851-50.073-11.604-5.934-15.942-7.3078-28.764-9.1101-9.254-1.3008-12.917-1.2201-23.411 0.51553-40.659 6.7245-69.042 38.933-69.074 78.383-0.013 15.422 2.3043 24.667 9.6206 38.397 5.5924 10.494 20.612 27.778 24.139 27.778 0.9996 0 1.8174 0.57661 1.8174 1.2814s0.8829 1.2814 1.962 1.2814 3.1681 1.0091 4.6424 2.2424c2.4172 2.0221 6.4678 3.693 9.786 4.0367 0.6782 0.0702 2.6058-1.126 4.2835-2.6584zm88.612-2.8658c3.5323-3.6554 3.1832-7.646-0.7165-8.1896-3.3438-0.46616-9.9781 6.5644-8.8621 9.3914 1.1398 2.8879 6.2456 2.2474 9.5786-1.2018zm742.76-5.7919c0.417-0.65606 0.2176-1.5176-0.4431-1.9147-0.6607-0.39702-1.5416 0.13975-1.9572 1.1928-0.8194 2.076 1.1608 2.6715 2.4003 0.72187zm-22.146-11.035c0.9946-2.5195-0.1823-3.6764-2.7611-2.7143-1.1585 0.43216-1.6819 1.5863-1.234 2.721 0.9992 2.5314 2.9945 2.528 3.9951-7e-3zm-7.5233-1.1442c2.1245-2.4887-0.4339-7.1294-3.9305-7.1294-1.9649 0-2.5897 0.87592-2.5897 3.6305 0 5.4949 3.3032 7.2674 6.5202 3.4989zm-405.84-19.35c1.3623-1.5957 1.3638-3.7256 0.013-11.212-0.9205-5.0831-2.2704-9.9627-2.9996-10.844-1.7568-2.122-13.043-2.0545-16.068 0.0962-1.7823 1.2669-2.5587 4.0118-3.0595 10.815-0.9579 13.016-0.8776 13.115 10.672 13.115 7.1777 0 10.211-0.52197 11.447-1.97zm357.14-48.644c3.6869-3.8154 6.026-4.0597 7.8117-0.81594 0.8385 1.5233 3.3599 2.6567 6.966 3.1313 11.012 1.4493 15.577-6.01 7.3126-11.95l-4.2703-3.0693 3.1841-0.73074c1.7511-0.40191 3.4255-1.4353 3.7208-2.2964 0.8017-2.3383-3.3573-3.3834-7.0156-1.7629-4.2879 1.8993-4.2467 6.9061 0.084 10.218 4.381 3.3503 4.1635 5.3544-0.5813 5.3544-4.4011 0-5.1847-0.86517-8.0996-8.9422-2.9856-8.2727-6.1934-7.861-9.7714 1.254-2.4897 6.3424-3.1556 7.0475-6.6553 7.0475-3.815 0-3.8965-0.14169-4.2868-7.449-0.331-6.2013-0.7726-7.3796-2.6361-7.0346-3.2334 0.59864-3.9445 15.204-0.885 18.179 3.3693 3.2755 11.447 2.6705 15.122-1.1326zm60.386 0.32034c0.3243-1.6647-0.4369-2.2424-2.9548-2.2424-2.1361 0-3.3917-0.71151-3.3917-1.922 0-1.0571 0.5446-1.922 1.2102-1.922s2.1347-0.34486 3.2645-0.76635c1.3815-0.51539 2.5799 0.35531 3.6594 2.6588 0.8829 1.8838 3.2285 4.2412 5.2125 5.2386 4.7642 2.3952 15.639 1.061 18.031-2.2122 2.209-3.022 5.0749-3.0088 6.7484 0.0312 1.8039 3.2767 11.585 4.5294 15.583 1.9956 3.9935-2.5309 3.8343-7.3791-0.3295-10.031-3.9807-2.5357-4.185-4.0775-0.659-4.9739 1.4498-0.3686 2.636-1.3189 2.636-2.1117 0-2.2923-3.8351-3.1066-7.3332-1.557-4.2878 1.8993-4.2467 6.9061 0.084 10.218 4.3809 3.3502 4.1634 5.3544-0.5813 5.3544-4.3711 0-5.1333-0.84832-8.059-8.9695-2.8928-8.0296-6.4435-7.9116-9.2496 0.30739-2.6602 7.7917-3.4866 8.4965-5.1062 4.3551-0.7741-1.9796-2.3373-3.3811-3.7713-3.3811-3.7091 0-4.4509 1.4575-2.0527 4.0337 1.9988 2.1472 1.999 2.3795 0 3.1241-4.8505 1.8096-8.0718-2.6071-5.9564-8.1667 0.8208-2.1567 2.1405-2.8353 5.5148-2.8353 5.2588 0 6.7117-1.0523 4.7025-3.4058-2.6382-3.0903-7.7751-1.9373-12.7 2.8505-3.5945 3.4945-5.4247 4.3935-7.7763 3.8197-4.0544-0.98928-3.9156-3.0105 0.277-4.0335 5.5043-1.3431 2.8698-3.7156-4.1258-3.7156-7.0625 0-11.089 2.559-11.089 7.0475 0 4.1554-3.7771 2.9441-4.9882-1.5997-0.6447-2.4193-2.0955-4.3471-3.4643-4.6034-2.0229-0.37876-2.2201 0.15539-1.3986 3.791 1.6121 7.1363 5.7005 15.226 7.6948 15.226 1.0753 0 2.9143-2.7651 4.2613-6.4068 1.3035-3.5238 2.8458-6.4068 3.4274-6.4068 0.5818 0 1.0577 2.4794 1.0577 5.5099 0 3.0304 0.7385 6.2278 1.6412 7.1053 2.3906 2.3241 9.4445 1.3321 9.9774-1.4032zm-39.368-42.523c0.8638-1.0118 3.2485-2.198 5.2995-2.6359 5.2831-1.1281 6.0411-5.2435 1.6882-9.1654-4.791-4.3167-7.2811-3.4183-8.6082 3.1058-1.3361 6.5692-3.5813 5.9441-3.5813-0.99702 0-6.1299-1.1666-6.923-6.4291-4.3708-6.0826 2.95-7.3372 10.767-1.7308 10.784 1.2259 4e-3 4.0082 1.1148 6.1829 2.4691 4.8922 3.0465 5.2364 3.0854 7.1788 0.80995zm-12.014-18.469c0.3379-2.3102-0.1081-2.8829-1.9771-2.5366-1.3408 0.24856-2.6075 1.7737-2.8501 3.4314-0.3379 2.3102 0.1082 2.8829 1.977 2.5366 1.3409-0.24856 2.6077-1.7737 2.8502-3.4314zm21.872-0.61967c-0.9937-2.5173-4.5154-2.8843-4.5154-0.47054 0 2.3839 2.9614 4.9373 4.2609 3.674 0.6037-0.58691 0.7183-2.0284 0.2545-3.2034zm-22.432-10.744c-2.2523-3.4712-4.4893-3.4384-4.4893 0.0657 0 3.4126 2.4512 5.1354 4.5834 3.2215 0.8373-0.75162 0.8044-1.9024-0.094-3.2873zm23.189 0.99563c0-3.1981-2.5891-4.7727-4.0813-2.4822-1.922 2.9499-1.3346 4.9693 1.4452 4.9693 1.7307 0 2.6361-0.85425 2.6361-2.4871zm-6.2607-3.1407c3.0292-2.2355 2.9424-4.6231-0.1682-4.6231-2.9683 0-6.001 3.1961-4.8101 5.0693 1.1015 1.7326 2.1537 1.6383 4.9783-0.44623zm-9.802-1.74c-0.2418-1.2333-1.7681-2.4266-3.3917-2.6518-3.2448-0.45007-3.8249 0.97048-1.3705 3.3566 2.3611 2.2955 5.266 1.8656 4.7622-0.70475zm-480.83-63.591c0-4.2101-2.6589-8.0365-4.4049-6.339-2.1717 2.1113 0.3413 10.667 3.1332 10.667 0.6994 0 1.2717-1.9475 1.2717-4.3279zm9.7559 0.20868c0.6537-1.798 0.7596-4.3456 0.2353-5.6614-0.9236-2.3177-1.012-2.3148-2.8362 0.095-2.3705 3.1313-2.5459 10.113-0.2354 9.3674 0.9062-0.2925 2.1826-2.0029 2.8363-3.8009zm-534.08 209.98c-0.8906-2.3944-1.2156-5.376-0.7223-6.6259 0.5785-1.4656 0.064-2.8647-1.4489-3.9403-1.9513-1.3871-2.8727-1.3322-5.4761 0.32618-3.3661 2.1442-7.1321 1.5411-7.0607-1.1307 0.062-2.3191 4.6588-7.408 6.6916-7.408 1.3222 0 1.3484-0.34169 0.1183-1.5376-0.8699-0.8457-1.5817-2.8638-1.5817-4.4848 0-2.3736 0.7183-2.9471 3.6905-2.9471 2.0298 0 4.3623-0.65317 5.1835-1.4515s2.4949-1.0778 3.7194-0.62094c2.242 0.83636 2.1691 4.3238-0.2156 10.321-0.8228 2.0695-0.19 1.8914 3.8048-1.0709 5.2907-3.9231 7.9642-3.4934 6.781 1.0899-0.4239 1.6418-0.1198 3.3761 0.6756 3.8541 2.0471 1.23 0.412 3.2547-2.6286 3.2547-2.9919 0-3.1082 0.46003-0.9605 3.8032 1.8581 2.8927 0.413 5.0709-1.8832 2.8385-2.5903-2.5182-3.5101-1.7787-5.3284 4.2837l-1.7396 5.8zm-497.36-0.92143c1.9428-0.7569 3.8912-0.74129 5.2721 0.0423 1.6702 0.9477 0.93837 1.2328-3.0817 1.2006-4.6112-0.0369-4.8858-0.19278-2.1904-1.2429z" fill="#020202" stroke-width="1.2996"/>
</svg>
