<?xml version="1.0" encoding="UTF-8"?>
<!-- Created with Inkscape (http://www.inkscape.org/) -->
<svg width="3428" height="841.33" version="1.1" viewBox="0 0 3428 841.33" xmlns="http://www.w3.org/2000/svg" xmlns:cc="http://creativecommons.org/ns#" xmlns:dc="http://purl.org/dc/elements/1.1/" xmlns:rdf="http://www.w3.org/1999/02/22-rdf-syntax-ns#">
 <metadata>
  <rdf:RDF>
   <cc:Work rdf:about="">
    <dc:format>image/svg+xml</dc:format>
    <dc:type rdf:resource="http://purl.org/dc/dcmitype/StillImage"/>
    <dc:title/>
   </cc:Work>
  </rdf:RDF>
 </metadata>
 <path d="m-2.1817 727.2c0-82.33 0.32831-116.76 1.1235-117.84 0.76834-1.038 2.2412-1.101 4.6587-0.19908 4.4244 1.6505 6.781 0.68387 8.1347-3.3366 0.5807-1.7247 1.6168-2.9795 2.3025-2.7888 1.5371 0.42788 1.7718-17.095 0.24594-18.37-1.5166-1.2662-4.1398-14.277-4.7145-23.382-0.45289-7.1755-0.30625-8.038 1.2959-7.6212 1.2915 0.33603 2.041 2.4448 2.6291 7.3971 2.0514 17.274 3.6898 9.1916 3.8016-18.752 0.07734-19.351 0.87876-24.41 3.3397-21.088 1.4756 1.9921 1.6234 6.0168 2.0064 54.645 0.2434 30.891 0.36743 32.784 2.069 31.552 1.543-1.1156 1.8528-3.7119 2.0994-17.593 0.23762-13.376 0.56454-16.284 1.8305-16.284 1.266 0 1.5927 2.9113 1.8306 16.31l0.28947 16.31h3.9384c2.2796 0 4.9706-1.0889 6.3888-2.5854 2.9738-3.1378 10.936-8.91 13.729-9.9531 1.5625-0.58354 2.2748-2.6704 3.0822-9.032 1.1432-9.0064 2.9144-10.946 3.4274-3.753l0.32243 4.5202 7.6739-9.3783c4.3469-5.3124 8.4297-11.686 9.417-14.7 1.7997-5.495 8.4008-12.646 13.164-14.261 1.4159-0.48014 4.5205-0.17831 6.8992 0.6707 7.9132 2.8244 14.578 2.8282 19.236 0.012 4.592-2.7776 12.316-3.5462 12.316-1.2255 0 0.76343 0.67874 1.3881 1.5082 1.3881 0.82952 0 2.101 1.519 2.8254 3.3758 1.2519 3.2087 9.3264 16.162 15.466 24.811 1.6894 2.3799 3.4749 3.6866 4.3895 3.2125 0.94826-0.4916 3.2116 1.39 5.8794 4.8878 2.3857 3.128 6.3421 7.5503 8.7918 9.8276 2.8048 2.6072 5.1432 6.2723 6.3148 9.8968 1.0232 3.1662 2.7732 7.0452 3.8888 8.6202 1.1156 1.575 2.5696 4.2296 3.2309 5.8994 1.4386 3.6314 7.3396 4.2256 9.3568 0.94186 1.8268-2.9738 0.61121-11.087-2.3809-15.891-1.3695-2.1989-3.2763-8.265-4.2372-13.48-0.96097-5.2153-2.1456-11.669-2.6326-14.341-0.77154-4.2337-1.4897-19.635-1.149-24.639 0.15047-2.2094 3.4324-2.2545 5.0498-0.0695 0.6781 0.9161 1.2329 4.6271 1.2329 8.2464 0 3.6193 0.46986 6.9731 1.0442 7.4527 0.5743 0.47951 0.80206 1.4011 0.50613 2.048-0.67829 1.4828 1.4561 15.557 2.6122 17.225 2.1649 3.123 3.4954-17.469 3.2123-49.718-0.34071-38.826 1.6041-51.133 6.9402-43.924 1.6536 2.2341 2.1239 4.6352 2.1249 10.85 7.2e-4 4.3898 0.48258 31.865 1.0708 61.056 0.76696 38.062 0.75406 53.871-0.0457 55.891-0.9096 2.2962-0.77557 2.9578 0.72718 3.5897 1.0132 0.42612 2.63 1.341 3.5926 2.0331 0.96269 0.69208 1.9574 0.80262 2.2106 0.24567 0.25316-0.55694 0.48354-8.7023 0.51199-18.101 0.0285-9.3986 0.33623-18.3 0.684-19.78 0.70884-3.0173 4.039-3.6169 5.3135-0.95643 0.45715 0.95431 1.0624 11.417 1.3449 23.25 0.48903 20.481 0.61249 21.501 2.5685 21.229 1.1302-0.15731 4.7787 0.29067 8.108 0.99557 5.3676 1.1365 6.3899 0.9577 9.0263-1.5786 1.6352-1.5732 3.6594-2.5045 4.4982-2.0696 0.83881 0.43486 6.7171-1.0154 13.063-3.2228l11.538-4.0134 0.14169-10.383c0.14914-10.92 1.6212-19.147 3.8795-21.679 1.0682-1.1976 1.4834-0.17282 2.0024 4.941 0.36002 3.5486 0.65458 10.113 0.65458 14.587 0 4.4741 0.29054 8.1347 0.64564 8.1347 0.35508 0 3.8313-4.0602 7.7248-9.0224 3.8936-4.9622 7.533-9.0224 8.0873-9.0224 0.55436 0 1.0082-0.88143 1.0082-1.9587 0-1.9589 2.0903-4.5242 10.537-12.932 3.2488-3.2335 5.196-4.2614 6.999-3.6942 1.374 0.43223 3.6539 1.1266 5.0666 1.5431 3.4388 1.0139 5.3444 3.2049 4.715 5.421-0.28359 0.99839-3e-3 2.2441 0.6257 2.7683 0.6277 0.52413 0.85727 0.33207 0.51012-0.42675-0.36675-0.80177 0.85365-1.4551 2.9133-1.5598 1.9494-0.0991 4.9777-1.1814 6.7297-2.4054 1.7518-1.2239 3.8538-1.8787 4.671-1.455 0.81715 0.42363 3.4338-0.13845 5.8149-1.2492 2.381-1.1106 4.4466-1.5682 4.5902-1.0168 0.14345 0.55141 1.2103 3.1068 2.3706 5.6784 1.9875 4.4049 2.3526 4.6235 6.2986 3.7708 5.1829-1.1197 7.5656 1.3562 9.1151 9.4714 0.59632 3.1235 1.3374 6.8502 1.6469 8.2817 0.40629 1.8796 0.17518 2.3306-0.8317 1.6231-0.76689-0.53891-0.13352 0.58986 1.4076 2.5083 1.5411 1.9186 4.0081 7.7468 5.4822 12.952 1.4741 5.2048 3.3705 11.705 4.2142 14.444l1.5339 4.9806 5.3129-1.2198c8.229-1.8893 16.218-1.4585 19.682 1.0612 2.9832 2.1705 3.3631 2.1114 9.0611-1.4098 6.8525-4.2347 16.934-4.7035 16.31-0.75851-0.25705 1.6207-0.0531 1.7142 0.92045 0.42212 0.97202-1.2901 2.1331-1.0518 5.2109 1.0695 4.2288 2.9146 7.4674 8.8405 11.147 20.395 1.2566 3.9463 2.9542 7.9258 3.7725 8.8434 0.81835 0.91755 2.131 3.7482 2.9173 6.2899 0.91361 2.9542 2.1388 4.6218 3.3956 4.6218 1.3967 0 2.9134 2.5993 5.2364 8.9747 2.7916 7.6613 3.8273 9.2143 7.0761 10.612 5.6209 2.4176 32.488 3.2593 38.796 1.2154 4.4031-1.4267 6.3179-1.3144 12.564 0.73651 4.053 1.3309 7.192 2.807 6.9754 3.2803-0.21655 0.47335 1.0648 0.97118 2.8472 1.1063 27.279 2.0685 41.978 5.3496 57.693 12.879 7.4375 3.5634 32.478 8.5414 55.48 11.029 6.7809 0.73342 15.103 2.3809 18.493 3.661 3.3905 1.2801 7.8902 2.8855 9.9994 3.5675 6.5738 2.1254 12.09 5.6184 12.09 7.6558 0 1.6624 8.9147 1.8796 59.847 1.4582 35.961-0.2975 62.307-1.0839 66.011-1.9704 3.3905-0.81144 18.834-7.1572 34.32-14.102l28.154-12.626h17.271c19.859 0 19.774 0.054 18.319-11.799-1.1649-9.4867-1.1292-21.761 0.0525-18.045 0.48563 1.5269 0.91551 5.088 0.9552 7.9136 0.0992 7.0352 2.8561 20.819 4.4325 22.158 1.5237 1.2946 5.0838 0.0499 6.1505-2.1505 0.41267-0.85139 0.63083-20.506 0.48476-43.679-0.24529-38.871-0.41018-42.273-2.1322-43.975-1.4236-1.4064-1.7022-2.8552-1.1737-6.1056 0.38114-2.344 0.48855-4.2619 0.23873-4.2619-0.24968 0-2.2191 1.8951-4.3765 4.2113-3.4912 3.7484-4.0923 3.9819-5.4677 2.1238-1.3753-1.8582-1.129-2.6337 2.2402-7.0543 5.2666-6.9106 5.2067-9.3912-0.13717-5.6581-2.8912 2.0198-7.9648 1.5259-9.0666-0.88264-0.34627-0.75685 0.70087-2.8659 2.3269-4.6865 2.8502-3.1915 2.8865-3.3837 1.0127-5.3485-1.069-1.1209-2.456-2.3012-3.0822-2.6229-1.4562-0.74789 2.3968-4.9637 4.591-5.0234 0.891-0.0243 3.8794 2.7583 6.6406 6.1835 3.2786 4.0666 5.3701 5.7557 6.0275 4.8675 0.65738-0.88819 0.0467-2.7143-1.7604-5.2625-1.522-2.1463-2.7673-4.9317-2.7673-6.1902 0-1.2585-0.5596-3.9473-1.2435-5.9753-1.0749-3.1872-0.97856-3.9494 0.71005-5.6175 2.6822-2.6499 3.3438-2.4694 6.1965 1.6891 2.2805 3.3245 2.6171 3.4374 4.134 1.3881 1.9482-2.632 1.7013-2.589 5.0337-0.87734 4.1684 2.1412 3.5094 8.0513-1.4743 13.221-3.9834 4.1318-5.2919 7.6565-2.8254 7.6104 0.70627-0.012 2.3552-1.5496 3.664-3.4145 2.7803-3.9609 7.9135-7.6661 10.621-7.6661 2.65 0 2.372 2.3888-0.41471 3.5639-1.2714 0.53622-3.4676 2.5587-4.8802 4.4941-1.7795 2.4382-2.0253 3.2514-0.79951 2.6473 2.7018-1.3317 8.2328 1.7109 7.5406 4.148-0.31709 1.1166-0.57654 3.5407-0.57654 5.3869 0 4.2695-3.2208 4.5015-7.9874 0.57531-4.4241-3.6441-6.1962-3.4956-7.5897 0.63667-0.86648 2.5694-0.83234 4.4414 0.13863 7.6095 0.70846 2.311 0.97286 5.3062 0.58734 6.6559-0.78856 2.7621-0.77223 52.508 0.0234 70.939 0.7852 18.187 0.8106 18.27 5.5999 18.27 2.2496 0 4.1179-0.46846 4.1519-1.041 0.0336-0.57256 0.29213-15.408 0.57376-32.965 0.28163-17.559 0.83176-32.335 1.2224-32.839 0.39078-0.502 9.2638-1.6518 19.717-2.5551 20.652-1.7847 24.511-2.8067 29.469-7.8083 1.7989-1.8141 3.5719-3.2985 3.9399-3.2985 0.36816 0 4.6756-3.7422 9.5722-8.3158l8.9028-8.3158 5.137 2.0442c2.8254 1.1243 7.8883 2.8919 11.251 3.9282l6.1136 1.8839-0.4629 20.003c-0.4694 20.288-0.2672 51.267 0.34 52.088 0.596 0.80523 54.684 0.73558 54.42-0.0702-0.1416-0.43072-0.2569-1.7201-0.2569-2.8652 0-1.1452-0.8623-2.0821-1.9163-2.0821s-3.0918-1.2493-4.5286-2.7762c-3.1647-3.3634-5.6247-3.5233-8.0766-0.52571-2.987 3.6522-5.012 1.4704-4.8188-5.1926 0.1328-4.5984-0.3381-6.3658-2.2588-8.4672-1.5354-1.6797-3.204-2.334-4.5411-1.7806-5.4534 2.2571-5.4662 2.2309-3.9708-8.0559 0.7988-5.4955-3.1185-11.101-6.961-9.9605-3.6749 1.0905-6.5313-2.5372-5.0139-6.368 0.5839-1.4738 1.7755-2.6797 2.6481-2.6797 1.252 0 1.4356-0.95144 0.8706-4.5111-1.0199-6.4238-1.3586-6.8566-4.6106-5.8915-2.2061 0.65461-3.1585 0.24458-3.9247-1.6897-1.3173-3.325 0.3101-7.3407 2.9748-7.3407 1.6474 0 2.0036-0.97178 2.0036-5.4642 0-5.1504-0.1919-5.4893-3.339-5.8994-2.7909-0.36352-3.3391-1.0046-3.3391-3.9052 0-2.9005 0.5482-3.5414 3.3391-3.9052 3.2087-0.41797 3.339-0.67184 3.339-6.5012 0-5.5857-0.2237-6.1009-2.8253-6.5052-2.2421-0.34855-2.8254-1.1556-2.8254-3.9093 0-2.997 0.4601-3.4701 3.3736-3.4701 1.8795 0 3.8064-0.92213 4.3507-2.0821 1.676-3.5713 1.1535-8.0793-1.0462-9.0224-1.3223-0.56704-2.0547-2.1002-2.0547-4.3013 0-4.0559 2.5894-5.8049 5.2592-3.5522 2.4937 2.1041 2.2112 2.3136 4.4477-3.297 1.9501-4.8928 1.9496-4.909-0.2801-7.0189-2.6118-2.4716-2.9429-6.8456-0.6097-8.0554 2.1811-1.1308 2.1036-1.1587 4.034 1.4493 1.5769 2.1304 1.9215 1.9876 4.8931-2.0269 3.0911-4.1762 3.1362-4.4089 1.3666-7.0507-1.176-1.7557-1.5886-3.7594-1.1544-5.6075 0.7887-3.3577 3.837-3.784 5.674-0.79349 1.7044 2.7745 2.6113 2.6358 6.2006-0.94941 2.7714-2.7683 2.9107-3.2875 1.605-5.9796-0.9763-2.0128-1.1211-3.6933-0.4569-5.2969 1.4859-3.5873 4.8777-2.8941 6.0396 1.2343 0.5545 1.9706 1.3522 3.356 1.7725 3.0786 6.1836-4.0809 6.3086-4.2576 5.738-8.1113-0.4321-2.9196-0.074-4.2048 1.4869-5.3334 2.1885-1.5823 3.3762-0.4698 4.6493 4.354 1.3157 4.9866 8.6157 1.7067 9.1081-4.0922 0.2619-3.0829 0.8532-3.8892 2.8524-3.8892 1.8438 0 2.6855 0.93349 3.1286 3.4701 0.5342 3.0576 1.1487 3.4701 5.1693 3.4701 3.7545 0 4.6286-0.49187 4.9337-2.7762 0.546-4.0895 1.7432-5.2525 4.2851-4.1623 1.869 0.80141 2.1603 1.686 1.6625 5.0489-0.6287 4.2468-0.4998 4.4082 4.7709 5.9698 2.39 0.70806 3.003 0.26967 3.8546-2.7566 0.7451-2.6477 1.623-3.4813 3.3227-3.1548 1.9468 0.37378 2.2781 1.2188 2.1074 5.3723-0.1785 4.3492 0.2309 5.2442 3.4825 7.61l3.6849 2.6812 1.5231-3.0991c1.7929-3.6477 3.5836-3.9449 5.4514-0.90425 1.0572 1.7212 1.0843 2.7654 0.1255 4.8393-1.7617 3.8112-1.5771 4.582 1.9379 8.0931 2.9931 2.9896 3.2631 3.0313 5.0988 0.78673 2.157-2.6372 4.8012-1.9149 5.7947 1.583 0.4163 1.4657-0.1677 3.1252-1.6208 4.6061l-2.2712 2.3148 2.3022 4.101c1.2661 2.2555 2.4174 4.3208 2.5582 4.5896 0.1415 0.26872 1.2822-0.48235 2.5361-1.6691 1.6489-1.5603 2.8051-1.7782 4.1761-0.78678 2.4828 1.7952 2.4121 4.9785-0.1588 7.1476-2.3546 1.9868-2.5302 3.6895-0.8841 8.571 0.9674 2.8678 1.8159 3.4223 4.8803 3.1884 3.3277-0.25395 3.7095 0.0742 3.7095 3.187 0 2.542-0.6184 3.5887-2.3117 3.9138-1.6189 0.31062-2.29 1.3506-2.2395 3.4701 0.1416 5.9192 1.5288 8.4684 4.6406 8.5247 2.4818 0.0449 2.9929 0.63603 2.9929 3.4617 0 2.4909-0.6911 3.6279-2.5686 4.2268-2.2034 0.70268-2.5686 1.598-2.5686 6.2952 0 4.9918 0.2727 5.5425 3.0823 6.2288 2.3613 0.57662 3.002 1.3915 2.7394 3.4837-0.4559 3.6326-1.4716 4.909-4.1218 5.1788-1.6492 0.16781-2.37 1.4322-2.8703 5.0355-0.5798 4.1748-0.2799 5.2298 2.2658 7.9721 3.3334 3.5911 3.2967 3.7176-1.609 5.527-2.3233 0.85691-4.0669 2.6496-4.9264 5.0656-1.1755 3.3037-1.0715 4.2125 0.8916 7.7998 2.8044 5.1248 1.7937 7.6479-2.6712 6.669-2.6018-0.57043-3.8508-0.0353-5.5203 2.3656-2.7529 3.959-2.7194 5.5633 0.1541 7.4128 5.2418 3.3736 10.83-0.35462 24.401-16.279 3.6731-4.3098 7.6526-8.7298 8.8439-9.8216 1.191-1.092 5.5234-6.0455 9.6275-11.008 4.104-4.9622 7.8687-9.2308 8.3659-9.4855 1.0186-0.52161 8.9692 7.5224 10.885 11.013 1.5727 2.8657 11.862 8.5899 14.301 7.9556 2.5969-0.67568 3.2388-5.1916 3.3552-23.605 0.1052-16.732-1.2911-29.363-3.6695-33.183-1.7849-2.8652-1.7286-4.8056 0.3684-12.71 1.6657-6.279 1.657-6.8065-0.1949-11.799-1.2243-3.3008-1.8295-7.4166-1.6428-11.174 0.1623-3.2717-0.2617-6.8552-0.9424-7.9633-0.7165-1.1665-0.9568-3.5274-0.5705-5.6065 0.367-1.9754 0.1139-5.6607-0.5633-8.1893-1.0708-4.0007-0.9425-5.3444 0.9886-10.35 1.876-4.8625 2.2162-8.0537 2.2002-20.631-0.015-8.1834-0.7674-20.188-1.6822-26.678-1.8752-13.302-1.937-15.37-0.663-22.201 1.2902-6.9161 3.8427-6.9762 6.4198-0.15134 2.2868 6.0565 2.6577 9.9405 1.1463 12.011-1.1656 1.597 0.5656 41.475 2.0007 46.085 1.1855 3.8074 4.1019 4.1017 4.8019 0.48477 0.5616-2.9015 5.3931-4.8524 6.9512-2.8072 0.5369 0.70468 1.78 1.2813 2.7625 1.2813 2.1877 0 3.5892 9.9603 2.1488 15.269-1.4441 5.321 0.015 20.816 2.1054 22.399 0.9537 0.72095 2.722 5.7065 3.9298 11.079 2.4277 10.797 4.1278 12.772 7.1822 8.3426 2.373-3.4414 2.3904-3.4443 7.0944-1.1872 5.8308 2.7976 6.2793 3.5312 5.7765 9.4447-0.4688 5.5103-0.8387 6.3384-8.6019 19.252l-4.3666 7.2634-0.079 21.043c-0.1356 35.933 0.19 56.101 0.9686 60.035 0.4583 2.3146 2.1234 4.7622 4.296 6.3143 1.9513 1.394 4.279 4.2633 5.1726 6.3761 3.4512 8.1602 6.3833 3.1922 7.9875-13.533 0.5477-5.7125 1.7329-17.57 2.6336-26.348 0.9004-8.7794 2.1081-21.272 2.6835-27.762 0.5755-6.4892 1.4611-15.002 1.9681-18.918 0.507-3.916 0.5383-9.4165 0.07-12.223-0.5156-3.0882-0.3016-12.335 0.5417-23.418 4.6552-61.181 4.079-113.46-1.5025-136.32-1.1736-4.8056-1.4801-8.1602-0.8786-9.6122 0.6731-1.6247-0.349-5.0635-3.7629-12.66-2.5777-5.7364-4.6869-12.052-4.6869-14.034 0-4.3495 5.7387-12.171 9.956-13.569 1.5877-0.52637 4.8517-3.5443 7.2533-6.7065l4.3664-5.7495 0.016-25.737c0.015-14.156 0.4104-26.578 0.8925-27.606 1.9661-4.1912 3.2016 7.5768 3.2016 30.495v23.354l2.9296 2.0468c1.6113 1.1257 3.7026 3.6403 4.6471 5.5879s2.3308 3.541 3.0807 3.541c2.1946 0 9.8653 8.1218 11.084 11.736 0.9751 2.8915 0.443 4.8059-4.147 14.918-2.896 6.3804-5.2673 12.519-5.2693 13.641 0 1.1225-1.0425 4.227-2.3117 6.8991l-2.308 4.8582 0.091 84.672c0.064 58.486 0.4854 88.751 1.3623 97.858 0.6982 7.2526 1.6438 18.496 2.1011 24.985s1.3791 16.796 2.048 22.903c0.669 6.1076 1.7123 15.633 2.3181 21.168 0.8631 7.885 1.4732 10.063 2.8189 10.063 2.273 0 6.0707-5.7053 10.77-16.179 4.0128-8.9441 5.65-15.885 5.6912-24.129 0.02-4.1031 0.7853-5.7705 4.6479-10.133 2.5429-2.8716 4.6233-6.4026 4.6233-7.8463s0.4001-2.959 0.8889-3.3674c0.4891-0.40823 1.1496-2.9118 1.4681-5.5633 0.3185-2.6516 1.2683-6.8829 2.1107-9.4031 1.8724-5.6022 4.7791-21.551 4.7791-26.224 0-1.8808 0.7573-4.8804 1.6829-6.6659 1.0931-2.1085 1.956-7.9329 2.4618-16.619 0.4284-7.3548 1.7139-22.742 2.8568-34.192 2.2841-22.886 4.4189-68.542 4.0326-86.25-0.1991-9.1248 0.099-11.812 1.5518-13.99 1.1708-1.7558 1.7978-4.957 1.7978-9.18 0-3.5663 0.4085-6.484 0.9077-6.484 1.0811 0 2.1411 4.831 2.1605 9.8483 0.015 1.9811 0.8929 4.6768 1.9672 5.9901 2.4582 3.0058 3.4617 9.9383 2.2586 15.606-0.5779 2.7222-0.3962 15.961 0.4845 35.286 1.3174 28.915 1.9185 37.126 4.6668 63.749 0.5911 5.7259 1.4587 14.351 1.9281 19.167 0.4695 4.8159 2.021 11.999 3.4479 15.963 1.4271 3.9635 2.8877 10.788 3.2465 15.166 0.3584 4.3776 1.0817 8.3185 1.6071 8.7572 0.5255 0.43881 0.9556 2.0187 0.9556 3.5109 0 1.4922 0.4246 3.7976 0.9433 5.1234 2.4059 6.146 5.2211 15.789 5.2211 17.883 0 1.2738 1.8468 5.5502 4.1043 9.5032 2.7925 4.8904 4.4285 9.4979 5.1191 14.418 0.9773 6.9612 3.8052 13.569 10.124 23.653l2.9749 4.7479 0.7693-8.2182c0.423-4.5199 0.6017-37.699 0.3971-73.732-0.2685-47.254-0.05-65.95 0.7828-67.077 0.8555-1.1576 3.1188 0.14489 8.733 5.0257 16.502 14.347 40.901 27.776 59.976 33.016 29.562 8.1175 61.86 3.6603 88.229-12.175 3.3196-1.9935 6.5972-3.6245 7.2839-3.6245 3.2643 0 3.6285 6.8497 3.5434 66.628-0.047 32.765 0.2129 60.221 0.5767 61.016 1.1171 2.442 8.055 1.6064 12.323-1.484 3.6974-2.6773 4.5077-2.7807 9.389-1.1986 3.6365 1.1786 8.3743 1.4112 14.834 0.72837 9.7042-1.0256 13.976-2.6762 15.986-6.1777 0.6352-1.1061 1.8843-1.5895 2.8343-1.0969 0.9343 0.48434 2.8505 0.289 4.2582-0.43414l2.5597-1.3148v-31.791c0-26.874-0.2437-32.063-1.5757-33.557-0.8665-0.97166-4.9119-3.3266-8.9898-5.2334-14.897-6.9655-22.058-16.398-20.549-27.067 0.9241-6.5313 6.8511-13.128 14.683-16.342l7.1406-2.9301-1.6192-4.2304c-1.9396-5.0675-0.8769-9.3831 3.1996-12.991 2.1656-1.9172 3.1389-2.0559 5.2608-0.74982 1.4319 0.88145 3.0219 1.2532 3.5334 0.82612 0.5114-0.42707 0.862-10.429 0.779-22.226-0.083-11.798 0.043-21.691 0.2773-21.986 0.5731-0.71743 17.077-1.4046 26.371-1.0979l7.4489 0.2458v19.433c0 20.097 0.1867 20.881 4.2705 17.929 2.1132-1.528 3.8252-0.98453 11.81 3.7491 1.7808 1.0557 4.0925 1.9217 5.1373 1.9246 1.0446 2e-3 3.4383 1.2728 5.3193 2.822l3.4197 2.8167 3.4414-2.8736c3.9478-3.2963 8.1599-2.6298 9.817 1.5534 1.3808 3.4858 2.4173 3.303 5.5924-0.98665 2.0677-2.7936 3.2901-3.404 5.4406-2.717 5.5913 1.7863 7.9795 9.5378 4.8176 15.636-1.5479 2.9858-0.5409 5.6177 1.4978 3.9155 0.9209-0.76887 12.996 7.0204 15.859 10.23 0.7346 0.82368 1.4135 4.475 1.5089 8.1141 0.1591 6.0734-0.2008 7.144-4.3848 13.043-4.1884 5.9054-17.97 16.456-21.494 16.456-0.713 0-1.7355 0.52452-2.2723 1.1656-0.5368 0.64108-2.5944 1.984-4.5721 2.9843-3.5959 1.8188-5.3804 2.8129-14.772 8.2289-2.756 1.5895-5.8273 2.89-6.8252 2.89-0.9977 0-2.0804 0.93692-2.4057 2.0821-0.3252 1.1452-1.6462 2.102-2.9353 2.1262-1.2893 0.0243-3.2414 0.96125-4.3382 2.0821-1.097 1.1209-3.6629 2.038-5.7021 2.038-4.9333 0-6.1738 2.0209-6.1738 10.058 0 6.6647 0.046 6.7552 4.8803 9.8237 7.046 4.4715 10.244 7.6336 10.841 10.721 0.6291 3.2505 3.6118 3.599 4.4852 0.52433 0.4141-1.4575-0.7023-3.657-3.3459-6.5933-9.2079-10.227-8.8419-9.5285-7.5657-14.439 0.8792-3.3839 2.0405-4.8073 4.7443-5.8158 4.3507-1.623 6.509-0.69099 6.509 2.8105 0 3.9007 1.6939 3.1874 3.7844-1.5937 2.715-6.2097 8.6145-7.4849 10.996-2.3768 0.8363 1.7941 0.7981 3.1423-0.1468 5.1864-0.7022 1.5191-1.2768 4.5934-1.2768 6.8316 0 5.9827-0.9322 8.323-4.234 10.63-2.0499 1.432-2.9577 3.1208-2.9577 5.501 0 4.1399 2.6077 4.6479 3.3797 0.65839 0.3217-1.661 1.4015-2.7762 2.6886-2.7762 1.1829 0 2.1508-0.89147 2.1508-1.981 0-2.8144 7.231-10.511 9.8748-10.511 1.3504 0 2.4242 1.0831 2.7519 2.7762 0.2955 1.5269 1.3127 2.7762 2.2604 2.7762 2.3133 0 1.3855 3.3398-1.1022 3.9666-5.4271 1.3677-5.9024 6.1441-1.0001 10.052 4.1283 3.2908 3.886 5.6297-0.8211 7.9294-4.8288 2.359-6.2845 2.0864-9.7214-1.8207-2.7512-3.1278-5.3244-4.4991-5.3244-2.8378 0 2.0072 5.6684 11.443 7.7772 12.946 2.7867 1.986 3.2688 6.0376 1.0187 8.5605-1.1941 1.3388-2.4958 0.57099-6.7705-3.9943-2.9106-3.1084-5.713-5.6516-6.2274-5.6516-1.2555 0-1.1919 2.3978 0.092 3.4701 0.5649 0.47183 1.0274 3.0072 1.0274 5.6342 0 3.8897-0.3909 4.7763-2.1061 4.7763-1.9084 0-2.0772 0.72712-1.7981 7.746l0.3082 7.746 43.152-0.23919 11.301 5.3831c43.09 20.524 44.171 20.978 50.018 20.992l5.8394 0.0143 0.3251-14.069c0.2148-9.2995-0.2673-18.123-1.4223-26.026-2.4574-16.815-2.8512-41.229-0.7525-46.658 0.8853-2.2903 2.1568-4.0081 2.8253-3.8172 1.5094 0.43085 1.7148-17.117 0.215-18.369-1.5165-1.2663-4.1398-14.277-4.7144-23.382-0.453-7.1755-0.3064-8.038 1.2956-7.6212 1.2917 0.33605 2.0411 2.4448 2.6292 7.397 2.0513 17.274 3.69 9.1916 3.8016-18.752 0.078-19.351 0.8788-24.41 3.3399-21.088 1.4454 1.9515 1.5776 5.4487 1.949 51.625 0.1327 16.414-0.3016 36.09-0.9638 43.724-1.2604 14.535-0.5843 22.209 1.9567 22.209 1.0841 0 1.5249-2.1762 1.6876-8.3285 1.2086-45.7 1.8735-56.91 3.3757-56.91 1.3042 0 1.6373 4.6944 2.1673 30.538 0.6147 29.982 0.5794 30.726-1.9399 40.948-1.4113 5.7259-3.1959 11.397-3.9653 12.602-1.8536 2.9032-1.9958 34.62-0.1664 37.09 0.7334 0.99049 4.2652 1.6657 8.7136 1.6657h7.4802l-0.6596-6.5933c-0.3795-3.7933-1.4018-7.3066-2.4073-8.2731-2.7197-2.6143-4.2407-9.0675-3.8912-16.509 0.2314-4.924 0.7439-6.7962 1.8605-6.7962 1.1386 0 1.6753 2.1472 2.0549 8.2204 0.2825 4.5211 1.0241 8.4469 1.6477 8.7236 1.3903 0.61672 2.4618-11.934 2.4618-28.833 0-12.785 0.6027-17.085 2.207-15.746 0.5389 0.44988 0.9236 10.091 0.8722 21.854-0.05 11.577-0.071 21.642-0.043 22.368 0.024 0.72525 0.6254 0.5367 1.3318-0.41901 0.802-1.0853 1.2841-5.7015 1.2841-12.296 0-7.7055 0.3806-10.733 1.4088-11.204 2.1098-0.96693 1.0558 25.289-1.2415 30.929-0.9327 2.2903-1.6986 6.5067-1.702 9.3695l-0.015 5.2052h13.622l-0.6356-7.9814c-1.1961-15.022-1.0311-110.05 0.1941-111.71 1.658-2.2399 2.026 0.1745 2.6927 17.668 0.32 8.3977 0.8096 19.017 1.0877 23.597 0.278 4.5806 1.0285 17.245 1.6676 28.144 1.0769 18.363 1.303 19.755 3.0822 18.992 2.4852-1.0657 2.5067 1.7599 0.043 5.5206-1.5867 2.4207-1.809 4.6431-1.4324 14.317l0.4458 11.451h134.37v-3.8866c0-5.5394 1.6015-7.1999 5.4911-5.6927 5.0257 1.9473 16.851 1.5042 20.082-0.75246 1.6138-1.1274 6.2864-2.1256 10.687-2.283 4.6071-0.16471 7.7346-0.85517 7.6125-1.6806-0.2251-1.5209 11.016-10.69 13.106-10.69 2.101 0 23.202-28.898 24.35-33.347 1.1149-4.3206 8.2691-11.781 12.757-13.302 1.4159-0.48011 4.5205-0.17832 6.8992 0.67072 7.9133 2.8244 14.578 2.8282 19.236 0.012 4.5952-2.7776 12.319-3.5462 12.319-1.2254 0 0.76342 0.6787 1.388 1.5084 1.388 0.8294 0 2.101 1.5191 2.8254 3.3758 1.2518 3.2087 9.3263 16.162 15.466 24.811 1.6895 2.3799 3.475 3.6866 4.3896 3.2125 0.9481-0.49162 3.2114 1.39 5.8793 4.8878 2.3857 3.128 6.3421 7.5503 8.7919 9.8276 2.7777 2.5818 5.1652 6.3071 6.3429 9.897 1.0388 3.1662 3.1982 7.7584 4.7984 10.205l2.9098 4.4488 92.191 0.17234 7.5898-9.7402c4.1745-5.3571 8.0508-9.7402 8.614-9.7402 0.5636 0 1.0244-0.88144 1.0244-1.9587 0-1.9589 2.0903-4.5242 10.537-12.932 3.2488-3.2338 5.1959-4.2614 6.9991-3.6942 1.3739 0.4322 3.6539 1.1266 5.0666 1.5431 3.4388 1.0139 5.3444 3.2049 4.715 5.421-0.2834 0.99842 0 2.2441 0.6258 2.7683 0.6276 0.52413 0.8571 0.33208 0.51-0.42677-0.3667-0.80175 0.8536-1.4551 2.9131-1.5598 1.9497-0.0991 4.9779-1.1814 6.7299-2.4052 1.7517-1.2239 3.8538-1.8787 4.6708-1.4551 0.8172 0.42365 3.4339-0.13845 5.8149-1.2492 2.3811-1.1107 4.4467-1.5682 4.5901-1.0168 0.1431 0.55139 1.2105 3.1068 2.3708 5.6784 1.9874 4.4049 2.3526 4.6233 6.2985 3.7709 5.0868-1.099 7.5396 1.3277 9.0617 8.9654 0.6881 3.4517 1.7976 5.49 3.3349 6.1266 1.2672 0.52465 9.7692 1.3782 18.894 1.8968 14.43 0.82005 16.879 1.2964 18.811 3.6587 1.6876 2.0635 3.5962 2.6795 7.9446 2.5642 3.1956-0.0847 6.0569-0.88018 6.478-1.8012 1.0126-2.2132 0.3843-16.006-1.0466-22.983-0.9384-4.5748-0.9041-39.224 0.051-51.986 0.2361-3.1533-1.9666-20.883-3.2606-26.246-0.6279-2.6021-1.577-13.845-2.1089-24.985-2.0694-43.328-2.0854-45.452-0.3757-49.918 0.8854-2.313 1.6098-5.4411 1.6098-6.9514 0-3.7787 2.8967-7.3751 5.1589-6.405 1.623 0.69588 1.9529-0.37045 2.5857-8.3545 1.0834-13.665 0.2101-21.955-2.8261-26.831-1.4533-2.3334-3.3572-8.3213-4.3375-13.641-0.9609-5.2153-2.1456-11.669-2.6326-14.341-0.7717-4.2337-1.4897-19.635-1.1488-24.639 0.1503-2.2094 3.4324-2.2546 5.0497-0.0695 0.678 0.91612 1.2328 4.6271 1.2328 8.2464s0.47 6.9731 1.0443 7.4527c0.5741 0.47951 0.8019 1.4011 0.506 2.048-0.6782 1.4828 1.4562 15.557 2.6121 17.225 2.165 3.123 3.4955-17.469 3.2125-49.718-0.3379-38.506 1.6135-51.121 6.8201-44.087 1.8536 2.5043 2.0562 5.6013 2.7072 41.387 1.3556 74.493 0.4061 126.22-2.6529 144.51-0.9922 5.9333-0.9352 8.8768 0.3097 15.963 1.4415 8.206 1.6929 8.688 4.5285 8.688h3.002l0.064-12.492c0.036-6.871 0.609-19.737 1.2747-28.59 0.6656-8.8536 1.1807-28.53 1.1444-43.724-0.036-15.194 0.2486-28.719 0.6332-30.056 0.8083-2.8091 4.0802-3.2378 5.2988-0.69404 0.4572 0.95431 1.1828 21.723 1.6123 46.154 0.4295 24.429 0.8632 47.541 0.9632 51.358 0.2069 7.8723-1.775 21.888-3.8269 27.067-1.7038 4.3001-4.5956 16.418-4.5956 19.257 0 1.1582-1.1899 3.784-2.6443 5.835l-2.6445 3.7291-0.1722 35.212c-0.1903 38.909-0.029 40.084 6.5304 47.541 3.8344 4.359 7.4137 4.6667 9.3362 0.80239 1.0657-2.1417 3.0394-3.0772 8.088-3.8334l6.6781-1.0002-0.2535-15.253c-0.317-19.075-0.6458-20.932-4.1024-23.17-1.5413-0.99801-3.8977-4.4972-5.2364-7.7761-2.1109-5.1699-2.4177-7.6971-2.3103-19.029 0.1401-14.751 0.5973-17.33 3.0736-17.33 1.4541 0 1.9487 2.5506 3.0207 15.574 1.2136 14.747 2.03 17.666 4.9533 17.718 1.3816 0.0243 1.8892-7.3266 3.3529-48.56 0.5554-15.651 1.2697-29.86 1.5874-31.579 0.6899-3.7329 2.1045-4.052 3.0755-0.69401 0.848 2.9323 0.7617 72.923-0.093 75.935-0.9451 3.328 2.7199 4.4824 4.3965 1.3849 1.0798-1.995 1.3041-6.8645 0.966-20.974-0.358-14.933-0.16-18.691 1.0571-20.055 3.1166-3.4944 3.6906 0.65184 3.3162 23.959-0.3323 20.683-0.5702 23.135-2.6923 27.745-3.6101 7.8432-5.356 17.515-5.351 29.645 0.015 12.35 0.2376 13.188 4.9605 17.895 2.7008 2.6921 4.6027 3.3185 10.211 3.3632 9.8701 0.0783 10.487-0.9761 10.487-17.913 0-7.4663-0.4622-15.218-1.0272-17.226-0.6238-2.2168-1.2399-38.312-1.5685-91.895-0.2977-48.534-0.7465-88.694-0.9976-89.243-0.8907-1.9471 1.5013-17.072 3.2667-20.656l1.7934-3.6408 0.7486 5.5523c0.4118 3.0538 0.7753 14.926 0.8078 26.382 0.034 11.456 0.5642 23.012 1.1816 25.68 0.6172 2.6671 1.517 15.468 1.9993 28.447 0.4825 12.979 1.5819 32.342 2.4433 43.029 0.8613 10.687 1.5797 22.732 1.5965 26.764 0.032 7.6031 1.9259 10.791 4.4146 7.4281 1.8419-2.4885 3.8351-1.8339 3.8351 1.2594 0 1.5574-1.9044 5.2792-4.2319 8.2705-3.5408 4.5507-4.1208 6.0357-3.5526 9.0943 0.3735 2.0106 1.1052 16.738 1.6256 32.729 0.5209 15.99 1.2222 29.674 1.5587 30.409 0.6796 1.4857 6.6092 1.8068 9.1396 0.49484 1.2644-0.65552 1.6251-2.9662 1.6251-10.41 0-5.4533 0.4417-9.5678 1.0274-9.5678 0.5936 0 1.0273 4.3955 1.0273 10.41 0 9.485 0.1827 10.41 2.055 10.41 1.7864 0 2.0548-0.92539 2.0548-7.0889 0-5.8937 0.274-6.9468 1.6251-6.2462 0.8938 0.4634 2.7432 0.84254 4.1097 0.84254 2.0602 0 2.4845 0.69187 2.4845 4.0506 0 8.3294 0.1762 8.4419 13.21 8.4419 6.7333 0 15.106-0.90814 19.154-2.0775 5.9215-1.7106 8.9772-1.8047 17.302-0.53284 5.561 0.84953 11.687 1.199 13.613 0.77671l3.5027-0.76793v94.213h-2641.5zm1413.5-4.7889c0.5681-0.9543 0.8011-3.7859 0.518-6.2928-0.3863-3.4185-1.576-5.5106-4.7601-8.3707-8.2259-7.3897-9.6031-7.8926-21.613-7.8926-12.631 0-14.632 1.0584-22.01 11.642-4.9665 7.1242-5.6969 9.4344-3.5235 11.144 2.7837 2.1902 50.073 1.9779 51.388-0.23059zm287.92-41.229c0-45.6 0.1731-44.39-6.6781-46.693-1.6954-0.56989-5.6049-2.5415-8.6878-4.3812-8.145-4.8605-8.1265-4.9338-7.9212 31.333l0.1703 30.084h2.768c4.2942 0 5.1203 2.2767 5.6177 15.485 0.2545 6.7518 0.6436 13.023 0.865 13.936 0.3823 1.5761 9.8043 3.0803 12.582 2.0087 0.9905-0.38213 1.2843-9.9407 1.2843-41.774zm27.556 36.24c0.2125-2.9979-0.315-5.6024-1.49-7.357-1.6033-2.3933-1.6576-3.2433-0.4572-7.1574 2.6505-8.6434 2.6355-13.628-0.05-16.418-3.1988-3.3235-4.8879-3.2383-7.7474 0.39087-1.2955 1.6444-4.0993 3.3715-6.2308 3.8379l-3.8749 0.84829-0.294 14.351c-0.1617 7.8931 0.1444 15.067 0.6796 15.942 0.6596 1.0775 3.9034 1.3668 10.054 0.89668l9.0807-0.69405zm-587.57-9.1883c3.2099-2.2426 4.436-5.1799 3.5157-8.4211-0.6458-2.2734-2.7404-1.8419-7.7434 1.5954-3.5969 2.4711-4.3807 4.3488-2.8532 6.8351 1.5706 2.5568 3.4113 2.5544 7.0809-0.01zm-34.068-36.489c0.238-27.836 0.066-32.273-1.2555-32.273-1.5802 0-3.7412 8.244-5.6395 21.515-0.5461 3.8172-2.8589 14.39-5.1398 23.494-2.2808 9.1045-4.0356 16.7-3.8996 16.879 0.9959 1.3087 8.179 3.1192 11.549 2.9108l4.1097-0.25411zm17.508 29.175c0.7753-1.4153 1.0746-3.9224 0.7071-5.924-0.3505-1.9086-1.0324-6.2811-1.5154-9.7163-0.4831-3.4355-1.3589-8.4326-1.9462-11.105-0.5873-2.6721-2.2877-11.105-3.7788-18.739-2.7519-14.092-4.076-17.928-5.7153-16.56-1.1008 0.91918-1.236 63.537-0.1401 65.05 1.388 1.9189 10.964-0.40538 12.389-3.0072zm-36.085-4.7777c1.3079-1.66 2.378-4.1215 2.378-5.4704 0-1.3487 0.4622-2.8382 1.0273-3.3101 0.5651-0.47184 1.0275-2.9705 1.0275-5.5523 0-2.5818 0.4623-5.0804 1.0273-5.5523 0.5651-0.47192 1.0274-2.3457 1.0274-4.1642 0-1.8185 0.4623-3.6923 1.0275-4.1642 0.565-0.47185 1.0275-3.5949 1.0275-6.9404 0-3.3452 0.4623-6.4685 1.0272-6.9404 0.5652-0.47183 1.0275-2.0703 1.0275-3.5522s0.4624-2.6943 1.0274-2.6943 1.0275-3.3512 1.0275-7.4472c0-5.1835 0.5863-8.4543 1.9291-10.761 2.2765-3.9103 4.6706-18.126 3.8218-22.695-0.367-1.9756-0.015-3.8539 0.9371-4.9147 2.2713-2.5465 4.7869 0.67676 3.968 5.0844-0.3441 1.8522-0.044 6.1792 0.6692 9.6154 0.9644 4.6541 1.0054 7.1054 0.1606 9.6106-0.6367 1.8876-0.7346 3.6966-0.2234 4.1236 0.5012 0.41833 1.0887-0.34015 1.3059-1.6855 0.2707-1.6762 1.1037-0.3947 2.6462 4.0712 1.2384 3.5844 2.2469 7.3321 2.2411 8.3285-0.015 0.99617 0.902 5.559 2.0171 10.14 2.837 11.653 6.8243 30.55 8.2964 39.32 0.6827 4.0666 1.8517 7.7102 2.5976 8.0972 1.7595 0.91208 13.158-7.7613 18.436-14.028 2.2603-2.684 4.3924-4.8918 4.7378-4.9064 0.518-0.0214 11.59-21.799 14.833-29.177 1.2329-2.8036 2.4505-14.546 3.1716-30.581 0.5032-11.191 0.2432-14.828-1.687-23.597-5.5752-25.329-15.897-42.91-31.843-54.241-9.0455-6.4281-12.426-7.9165-22.421-9.8689-7.2136-1.4091-10.069-1.3217-18.249 0.55846-31.694 7.2844-53.819 42.175-53.844 84.91-0.015 16.706 1.7962 26.721 7.4994 41.595 4.3593 11.368 16.066 30.091 18.817 30.091 0.7791 0 1.4166 0.62463 1.4166 1.3881 0 0.76343 0.6884 1.3881 1.5295 1.3881s2.4696 1.0931 3.6187 2.4291c1.8842 2.1905 5.0418 4.0005 7.6282 4.3729 0.5287 0.0761 2.0312-1.2198 3.3392-2.8798zm69.074-3.1044c2.7535-3.9597 2.4811-8.2826-0.5587-8.8715-2.6064-0.50498-7.778 7.1111-6.908 10.173 0.8884 3.1285 4.8684 2.4346 7.4667-1.3018zm578.99-6.2742c0.325-0.71067 0.1696-1.644-0.3454-2.0741-0.5151-0.43007-1.2019 0.15134-1.5257 1.2922-0.6387 2.2489 0.9048 2.8941 1.8711 0.78198zm-17.263-11.954c0.7753-2.7294-0.1415-3.9826-2.1523-2.9404-0.903 0.46813-1.311 1.7184-0.9617 2.9476 0.7787 2.7423 2.334 2.7384 3.114-7e-3zm-5.8645-1.2395c1.6562-2.696-0.3382-7.7231-3.0637-7.7231-1.5318 0-2.0187 0.94887-2.0187 3.933 0 5.9524 2.5748 7.8726 5.0824 3.7902zm-316.36-20.962c1.0619-1.7286 1.0631-4.0358 0.015-12.146-0.7175-5.5065-1.7699-10.792-2.3382-11.747-1.3695-2.2987-10.167-2.2256-12.525 0.10431-1.3892 1.3724-1.9946 4.3459-2.3849 11.715-0.7467 14.1-0.6841 14.207 8.3193 14.207 5.595 0 7.9592-0.56545 8.9227-2.134zm278.39-52.695c2.874-4.1332 4.6973-4.3977 6.0892-0.88388 0.6536 1.6502 2.6191 2.8778 5.4301 3.392 8.5843 1.57 12.142-6.5105 5.7003-12.945l-3.3287-3.325 2.4819-0.79158c1.365-0.4354 2.6703-1.5548 2.9004-2.4878 0.625-2.5329-2.617-3.6651-5.4688-1.9098-3.3423 2.0575-3.3102 7.4811 0.066 11.069 3.415 3.6293 3.2456 5.8003-0.4531 5.8003-3.4306 0-4.0414-0.93721-6.3137-9.687-2.3274-8.9615-4.8277-8.5156-7.617 1.3585-1.9406 6.8705-2.4598 7.6343-5.1878 7.6343-2.9738 0-3.0374-0.15349-3.3416-8.0692-0.258-6.7177-0.6022-7.9941-2.0547-7.6205-2.5205 0.6485-3.075 16.471-0.69 19.693 2.6264 3.5481 8.9231 2.8929 11.788-1.2269zm47.072 0.34701c0.2528-1.8033-0.3406-2.4291-2.3033-2.4291-1.6652 0-2.6439-0.77076-2.6439-2.0821 0-1.1452 0.4247-2.0821 0.9434-2.0821s1.664-0.37357 2.5447-0.83017c1.0768-0.55831 2.0112 0.3849 2.8525 2.8802 0.6883 2.0407 2.5168 4.5944 4.0632 5.6748 3.7138 2.5948 12.191 1.1494 14.056-2.3964 1.7219-3.2736 3.956-3.2593 5.2605 0.0339 1.4062 3.5496 9.0308 4.9066 12.147 2.1618 3.1129-2.7418 2.9888-7.9936-0.2569-10.867-3.103-2.7468-3.2623-4.417-0.5137-5.3881 1.1302-0.39927 2.0547-1.4287 2.0547-2.2876 0-2.4833-2.9893-3.3653-5.7162-1.6867-3.3424 2.0575-3.3103 7.4811 0.066 11.069 3.4149 3.6293 3.2454 5.8003-0.4531 5.8003-3.4074 0-4.0017-0.91895-6.2821-9.7163-2.255-8.6982-5.0228-8.5705-7.2102 0.33297-2.0737 8.4404-2.7178 9.2041-3.9803 4.7178-0.6033-2.1444-1.822-3.6627-2.9398-3.6627-2.8913 0-3.4696 1.5789-1.6002 4.3698 1.5583 2.326 1.5584 2.5776 0 3.3844-3.7809 1.9602-6.292-2.8242-4.6429-8.8467 0.6397-2.3363 1.6684-3.0714 4.2987-3.0714 4.0994 0 5.232-1.1399 3.6657-3.6895-2.0564-3.3476-6.0608-2.0986-9.8996 3.0879-2.8021 3.7854-4.2287 4.7593-6.0619 4.1378-3.1603-1.0716-3.0521-3.2612 0.216-4.3693 4.2907-1.4549 2.2371-4.0251-3.2161-4.0251-5.5052 0-8.6439 2.7721-8.6439 7.6343 0 4.5015-2.9443 3.1891-3.8884-1.733-0.5025-2.6208-1.6335-4.7092-2.7004-4.9866-1.5769-0.41029-1.7307 0.16829-1.0904 4.1067 1.2567 7.7305 4.4437 16.494 5.9983 16.494 0.8383 0 2.2718-2.9953 3.3217-6.9404 1.016-3.8172 2.2183-6.9404 2.6717-6.9404 0.4536 0 0.8244 2.6859 0.8244 5.9686s0.5759 6.7463 1.2794 7.6969c1.8636 2.5176 7.3621 1.443 7.7775-1.52zm-30.688-46.063c0.6733-1.0961 2.5322-2.381 4.1311-2.8554 4.1182-1.2221 4.7091-5.68 1.3159-9.9288-3.7346-4.6763-5.6757-3.7031-6.7101 3.3643-1.0416 7.1161-2.7917 6.4391-2.7917-1.08 0-6.6403-0.9095-7.4994-5.0117-4.7348-4.7412 3.1956-5.7192 11.664-1.349 11.683 0.9554 5e-3 3.1243 1.2076 4.8195 2.6747 3.8135 3.3004 4.0819 3.3424 5.596 0.87742zm-9.3654-20.007c0.2634-2.5026-0.085-3.123-1.5412-2.7478-1.0451 0.26927-2.0325 1.9214-2.2216 3.7172-0.2634 2.5026 0.085 3.123 1.5412 2.7478 1.0451-0.26926 2.0325-1.9214 2.2216-3.7172zm17.05-0.67126c-0.7747-2.727-3.5198-3.1244-3.5198-0.50974 0 2.5826 2.3083 5.3485 3.3213 3.98 0.4707-0.63578 0.56-2.1973 0.1985-3.4701zm-17.486-11.639c-1.7557-3.7604-3.4995-3.7248-3.4995 0.0712 0 3.6966 1.9107 5.5631 3.5728 3.4899 0.6527-0.81421 0.6271-2.0608-0.073-3.561zm18.077 1.0785c0-3.4644-2.018-5.1702-3.1813-2.6888-1.4982 3.1956-1.0403 5.3831 1.1266 5.3831 1.3491 0 2.0547-0.92539 2.0547-2.6943zm-4.8802-3.4023c2.3613-2.4217 2.2936-5.0081-0.1313-5.0081-2.3139 0-4.6779 3.4622-3.7496 5.4915 0.8587 1.8769 1.6788 1.7748 3.8806-0.48339zm-7.6406-1.8849c-0.1885-1.336-1.3783-2.6286-2.644-2.8726-2.5292-0.48756-2.9815 1.0513-1.0683 3.636 1.8405 2.4866 4.105 2.021 3.7123-0.76343zm-374.82-68.886c0-4.5607-2.0726-8.7056-3.4337-6.8669-1.6929 2.2872 0.2659 11.555 2.4424 11.555 0.5452 0 0.9913-2.1097 0.9913-4.6882zm7.6049 0.22606c0.5095-1.9477 0.5921-4.7075 0.1834-6.1329-0.72-2.5107-0.7889-2.5076-2.2109 0.10288-1.8478 3.392-1.9845 10.955-0.1834 10.147 0.7063-0.31687 1.7013-2.1697 2.2109-4.1175zm-416.32 227.46c-0.6943-2.5938-0.94763-5.8237-0.56298-7.1777 0.45091-1.5877 0.0496-3.1032-1.1296-4.2683-1.521-1.5026-2.2392-1.4432-4.2687 0.35336-2.6238 2.3227-5.5595 1.6694-5.5038-1.2249 0.0482-2.5122 3.6316-8.0248 5.2162-8.0248 1.0306 0 1.0511-0.37014 0.0919-1.6656-0.6781-0.91614-1.2329-3.1022-1.2329-4.8582 0-2.5713 0.5599-3.1925 2.8767-3.1925 1.5824 0 3.4006-0.70755 4.0406-1.5724 0.64016-0.86481 1.9448-1.1675 2.8993-0.67266 1.7477 0.90601 1.6908 4.6839-0.16811 11.181-0.64133 2.2419-0.14811 2.0489 2.966-1.16 4.1241-4.2497 6.2081-3.7842 5.2858 1.1807-0.33037 1.7785-0.0934 3.6572 0.52663 4.175 1.5958 1.3325 0.32118 3.5257-2.0489 3.5257-2.3323 0-2.4229 0.49832-0.74887 4.1198 1.4484 3.1335 0.32205 5.4931-1.468 3.075-2.0191-2.7279-2.736-1.9269-4.1534 4.6405l-1.356 6.283zm-387.7-0.99816c1.5144-0.81993 3.0333-0.80303 4.1096 0.0459 1.302 1.0266 0.73147 1.3355-2.4022 1.3006-3.5944-0.0401-3.8084-0.20888-1.7074-1.3464z" fill="#020202" stroke-width="1.1942"/>
</svg>
