<?xml version="1.0" standalone="no"?>
<!DOCTYPE svg PUBLIC "-//W3C//DTD SVG 20010904//EN"
 "http://www.w3.org/TR/2001/REC-SVG-20010904/DTD/svg10.dtd">
<svg version="1.0" xmlns="http://www.w3.org/2000/svg"
 width="300.000000pt" height="74.000000pt" viewBox="0 0 300.000000 74.000000"
 preserveAspectRatio="xMidYMid meet">
<metadata>
Created by potrace 1.10, written by Peter Selinger 2001-2011
</metadata>
<g transform="translate(0.000000,74.000000) scale(0.100000,-0.100000)"
fill="#000000" stroke="none">
<path d="M1491 424 c0 -17 -4 -34 -8 -37 -4 -4 -6 -54 -4 -110 3 -105 -4 -157
-20 -157 -13 0 -11 84 3 98 9 9 8 12 -5 12 -16 0 -21 10 -18 38 1 6 -3 12 -9
12 -5 0 -10 11 -10 25 0 14 -4 25 -9 25 -5 0 -7 -38 -4 -87 4 -73 3 -85 -9
-76 -10 9 -19 7 -38 -7 -14 -11 -31 -20 -38 -20 -7 0 -15 -6 -18 -12 -3 -8
-29 -14 -69 -15 l-65 -3 0 35 c0 28 -4 35 -19 35 -11 0 -23 -4 -26 -10 -3 -5
-19 -10 -36 -10 -26 0 -29 -3 -29 -30 0 -28 -2 -30 -39 -30 -22 0 -52 -5 -66
-10 -43 -16 -172 -12 -278 8 -55 11 -107 18 -116 15 -11 -3 -27 7 -43 26 -19
22 -33 29 -54 28 -22 -2 -33 4 -46 24 -20 32 -62 36 -97 8 -37 -30 -67 -25
-75 12 -3 17 -6 44 -6 60 0 16 -5 29 -11 29 -7 0 -10 -12 -7 -29 3 -18 0 -27
-5 -24 -6 4 -7 -9 -2 -33 l7 -39 -35 38 c-42 44 -74 47 -107 12 -25 -27 -48
-33 -47 -12 0 6 -1 23 -2 37 l-2 25 -9 -23 c-5 -12 -7 -29 -4 -37 4 -8 1 -15
-5 -15 -6 0 -11 -9 -11 -19 0 -17 4 -18 36 -11 19 5 43 15 52 23 30 25 46 25
82 -3 57 -44 113 -53 157 -24 32 20 63 17 83 -9 10 -12 31 -24 46 -25 15 -1
39 -13 54 -26 19 -18 41 -25 90 -30 36 -3 88 -11 115 -17 78 -17 183 -19 234
-3 25 8 60 14 77 14 30 0 64 25 64 48 0 7 4 12 9 12 5 0 16 3 25 6 10 4 16 1
16 -8 0 -31 35 -48 96 -48 48 0 67 5 102 28 50 34 74 34 100 3 15 -19 22 -22
38 -13 15 8 25 6 44 -9 56 -42 122 -10 146 69 7 24 15 36 25 33 8 -3 33 -6 57
-9 35 -3 42 -8 42 -26 0 -40 27 -66 70 -66 21 0 42 -4 45 -10 3 -5 28 -10 55
-10 27 0 61 -5 76 -10 37 -14 203 -24 269 -15 36 4 65 15 84 31 38 31 56 30
98 -6 40 -35 91 -39 156 -12 31 12 44 13 75 3 20 -6 55 -10 77 -8 22 2 65 1
95 -3 66 -9 110 -3 110 16 0 13 -52 20 -97 15 -10 -1 -16 82 -14 192 0 9 -5
15 -10 11 -6 -3 -7 -44 -3 -106 6 -84 5 -100 -7 -96 -9 3 -13 17 -11 40 1 19
-2 46 -7 59 -10 26 -11 24 -15 -70 -1 -13 -6 -26 -13 -28 -18 -6 -25 33 -14
74 6 21 10 61 9 88 l-1 50 -7 -55 c-7 -49 -8 -45 -7 32 1 48 -2 90 -6 94 -4 4
-7 -9 -7 -30 0 -26 -4 -35 -12 -30 -7 4 -8 3 -4 -5 4 -6 9 -59 11 -116 l4
-105 -27 6 c-15 3 -36 9 -47 12 -33 10 -49 9 -72 -5 -12 -7 -46 -13 -76 -13
-46 0 -57 4 -81 29 -33 34 -65 35 -100 2 -12 -12 -36 -23 -52 -25 -16 -2 -33
-5 -39 -6 -5 -1 -38 -2 -72 -1 l-61 1 -11 53 -10 52 3 -52 c3 -45 0 -53 -14
-53 -12 0 -19 10 -22 30 -3 21 -1 27 7 20 9 -7 9 4 1 46 -7 44 -11 52 -17 36
-5 -12 -7 -46 -6 -77 3 -53 1 -56 -18 -50 -11 4 -46 9 -77 12 -40 4 -58 10
-58 19 0 8 5 14 10 14 6 0 10 -5 10 -10 0 -18 33 5 36 24 2 14 0 15 -12 5 -12
-10 -13 -9 -8 5 5 12 2 15 -10 10 -9 -3 -13 -10 -10 -15 3 -5 0 -9 -5 -9 -27
0 -7 29 28 43 22 9 42 20 44 24 8 12 -19 45 -35 42 -33 -4 -48 2 -48 21 0 13
-7 20 -20 20 -13 0 -20 -7 -20 -20 0 -11 -9 -28 -20 -37 -11 -10 -20 -21 -20
-25 0 -3 9 -10 20 -13 14 -4 20 -15 20 -36 0 -16 -3 -30 -7 -30 -5 -1 -23 -3
-41 -5 l-33 -2 7 54 6 55 -28 -8 c-43 -12 -98 -7 -135 11 -18 9 -33 16 -34 16
-2 0 0 -29 3 -65 2 -36 2 -65 -1 -65 -16 0 -39 69 -51 148 l-12 87 -7 -77 c-6
-75 -31 -158 -47 -158 -12 0 -16 65 -9 165 3 50 2 95 -2 100 -4 6 -9 24 -12
40 l-4 30 -2 -31z m439 -174 c0 -5 -4 -10 -10 -10 -5 0 -10 5 -10 10 0 6 5 10
10 10 6 0 10 -4 10 -10z m70 -40 c0 -5 -25 -10 -56 -10 -34 0 -53 4 -49 10 3
6 28 10 56 10 27 0 49 -4 49 -10z m-1763 -22 c-3 -8 -6 -5 -6 6 -1 11 2 17 5
13 3 -3 4 -12 1 -19z m1353 -19 c0 -5 -7 -9 -15 -9 -9 0 -12 6 -9 15 6 15 24
11 24 -6z m340 -29 c0 -22 -4 -40 -10 -40 -5 0 -10 18 -10 40 0 22 5 40 10 40
6 0 10 -18 10 -40z m-325 -30 c4 -6 -8 -10 -30 -10 -22 0 -34 4 -30 10 3 6 17
10 30 10 13 0 27 -4 30 -10z"/>
<path d="M1246 273 c-2 -3 -12 -6 -21 -7 -25 -4 -52 -52 -47 -85 2 -17 13 -38
25 -48 21 -18 21 -18 4 7 -23 33 -21 76 3 100 45 45 127 4 118 -59 -2 -16 -1
-28 4 -25 4 3 8 19 8 36 0 44 -70 104 -94 81z"/>
<path d="M1024 209 c-3 -6 -1 -16 5 -22 13 -13 15 -28 2 -24 -5 1 -9 -1 -10
-5 -1 -5 2 -8 7 -7 4 0 10 -10 14 -23 4 -17 6 -12 7 19 1 23 6 43 13 45 15 5
1 28 -17 28 -8 0 -17 -5 -21 -11z"/>
<path d="M1250 196 c0 -7 7 -27 16 -42 15 -27 15 -27 10 -4 -3 14 -6 33 -6 43
0 9 -4 17 -10 17 -5 0 -10 -6 -10 -14z"/>
</g>
</svg>
